<svg width="40" height="41" viewBox="0 0 40 41" fill="none" xmlns="http://www.w3.org/2000/svg">
<g clip-path="url(#clip0_10_37)">
<path d="M16.3798 36.3429C16.6277 36.3429 16.8287 36.1419 16.8287 35.894C16.8287 35.646 16.6277 35.4451 16.3798 35.4451C16.1318 35.4451 15.9308 35.646 15.9308 35.894C15.9308 36.1419 16.1318 36.3429 16.3798 36.3429Z" fill="#515151"/>
<path d="M16.3798 38.0682C16.6277 38.0682 16.8287 37.8672 16.8287 37.6193C16.8287 37.3714 16.6277 37.1704 16.3798 37.1704C16.1318 37.1704 15.9308 37.3714 15.9308 37.6193C15.9308 37.8672 16.1318 38.0682 16.3798 38.0682Z" fill="#515151"/>
<path d="M23.6188 36.3429C23.8667 36.3429 24.0677 36.1419 24.0677 35.894C24.0677 35.646 23.8667 35.4451 23.6188 35.4451C23.3709 35.4451 23.1699 35.646 23.1699 35.894C23.1699 36.1419 23.3709 36.3429 23.6188 36.3429Z" fill="#515151"/>
<path d="M23.6188 38.0682C23.8667 38.0682 24.0677 37.8672 24.0677 37.6193C24.0677 37.3714 23.8667 37.1704 23.6188 37.1704C23.3709 37.1704 23.1699 37.3714 23.1699 37.6193C23.1699 37.8672 23.3709 38.0682 23.6188 38.0682Z" fill="#515151"/>
<path d="M20 40.818C31.0456 40.818 39.9999 31.8637 39.9999 20.818C39.9999 9.77238 31.0456 0.818115 20 0.818115C8.95433 0.818115 6.10352e-05 9.77238 6.10352e-05 20.818C6.10352e-05 31.8637 8.95433 40.818 20 40.818Z" fill="#386895"/>
<path d="M14.9777 20.6889L31.4827 37.194C36.633 33.5759 39.9999 27.5905 39.9999 20.8181C39.9999 20.7078 39.9975 20.598 39.9958 20.4881L27.4887 6.7915L14.9777 20.6889Z" fill="#273B7A"/>
<path d="M23.3332 23.6477H16.6666V30.3143H23.3332V23.6477Z" fill="#FCD088"/>
<path d="M23.3337 23.6477H19.8882V30.3143H23.3337V23.6477Z" fill="#DDAB62"/>
<path d="M27.9503 28.982L24.4175 28.2755L23.7931 27.3641C23.6762 27.1935 23.4551 27.1292 23.2651 27.2106L22.5787 27.5062C20.9331 28.2152 19.0678 28.2135 17.4235 27.5015L16.7546 27.212C16.566 27.1297 16.3453 27.1915 16.227 27.3599L15.5827 28.2754L12.0499 28.982C10.251 29.3418 8.9563 30.9211 8.9563 32.7554V37.4934C12.121 39.5936 15.9173 40.8179 20 40.8179C24.0827 40.8179 27.879 39.5936 31.0437 37.4933V32.7553C31.0437 30.921 29.749 29.3417 27.9503 28.982Z" fill="#E2E2E2"/>
<path d="M27.9503 28.982L24.4175 28.2755L23.7931 27.3641C23.6762 27.1935 23.455 27.1292 23.265 27.2106L22.5787 27.5063C21.7207 27.876 20.8029 28.0506 19.8879 28.0339V40.816C19.9254 40.8161 19.9625 40.8182 20.0001 40.8182C24.0828 40.8182 27.8792 39.5938 31.0438 37.4936V32.7555C31.0437 30.921 29.7488 29.3417 27.9503 28.982Z" fill="#A0A0A0"/>
<path d="M14.6353 40.0868C16.3428 40.5616 18.1412 40.8178 20 40.8178C21.8588 40.8178 23.6572 40.5615 25.3648 40.0868V28.4648L24.4175 28.2752L23.7931 27.3638C23.6762 27.1932 23.455 27.1289 23.265 27.2103L22.5787 27.5061C20.9331 28.2151 19.0678 28.2134 17.4234 27.5014L16.7546 27.2119C16.5659 27.1296 16.3453 27.1914 16.2269 27.3598L15.5827 28.2753L14.6355 28.4647V40.0868H14.6353Z" fill="#FCFCFC"/>
<path d="M24.4175 28.2752L23.7931 27.3638C23.6762 27.1932 23.455 27.1289 23.265 27.2103L22.5787 27.5061C21.7207 27.8758 20.8029 28.0503 19.8879 28.0337V40.8158C19.9254 40.816 19.9625 40.8177 20.0001 40.8177C21.8589 40.8177 23.6574 40.5614 25.3649 40.0867V28.4646L24.4175 28.2752Z" fill="#EFEFEF"/>
<path d="M26.7438 17.8543C26.7777 17.5416 26.7953 17.2333 26.7953 16.9327C26.7953 12.956 23.7529 9.73218 20 9.73218C16.2471 9.73218 13.2047 12.956 13.2047 16.9327C13.2047 17.2333 13.2224 17.5416 13.2562 17.8543C12.5971 18.0257 12.2834 19.0396 12.5559 20.1249C12.8292 21.2135 13.5883 21.961 14.2518 21.7945C14.3122 21.7792 14.3686 21.7549 14.4231 21.7262C15.6511 24.1909 17.6908 26.1905 20 26.1905C22.3092 26.1905 24.3491 24.1909 25.577 21.7262C25.6313 21.7549 25.688 21.7794 25.7483 21.7945C26.4117 21.961 27.1709 21.2135 27.4441 20.1249C27.7166 19.0396 27.403 18.0257 26.7438 17.8543Z" fill="#FFEDB5"/>
<path d="M26.7438 17.8543C26.7776 17.5416 26.7953 17.2333 26.7953 16.9327C26.7953 12.956 23.7529 9.73218 20 9.73218C19.9624 9.73218 19.9254 9.7346 19.8878 9.73515V26.1875C19.9252 26.1886 19.9624 26.1905 20 26.1905C22.3092 26.1905 24.349 24.1907 25.5769 21.7261C25.6313 21.7548 25.688 21.7793 25.7483 21.7944C26.4117 21.9609 27.1709 21.2134 27.4441 20.1248C27.7166 19.0396 27.4029 18.0257 26.7438 17.8543Z" fill="#E8CF89"/>
<path d="M13.4725 18.0985C14.4548 18.5807 14.5195 20.4758 14.5195 20.4758C14.5195 20.4758 15.6571 16.5709 15.2267 15.1566C14.7962 13.7422 15.9441 13.6452 15.9441 13.6452C17.3837 14.119 18.7586 14.2777 19.9554 14.2798V9.71509C13.2023 9.75024 12.4923 17.6174 13.4725 18.0985Z" fill="#3A3A3A"/>
<path d="M20 9.71436C19.9847 9.71436 19.9702 9.71514 19.9551 9.71514V14.2798C22.3706 14.2837 24.0561 13.6452 24.0561 13.6452C24.0561 13.6452 25.204 13.7422 24.7736 15.1566C24.3431 16.571 25.4807 20.4759 25.4807 20.4759C25.4807 20.4759 25.5453 18.5808 26.5278 18.0985C27.5103 17.6163 26.7952 9.71436 20 9.71436Z" fill="#333333"/>
<path d="M16.3798 32.8939C16.6277 32.8939 16.8287 32.6929 16.8287 32.445C16.8287 32.1971 16.6277 31.9961 16.3798 31.9961C16.1318 31.9961 15.9308 32.1971 15.9308 32.445C15.9308 32.6929 16.1318 32.8939 16.3798 32.8939Z" fill="#515151"/>
<path d="M16.3798 34.619C16.6277 34.619 16.8287 34.418 16.8287 34.1701C16.8287 33.9222 16.6277 33.7212 16.3798 33.7212C16.1318 33.7212 15.9308 33.9222 15.9308 34.1701C15.9308 34.418 16.1318 34.619 16.3798 34.619Z" fill="#515151"/>
<path d="M23.6188 32.8939C23.8667 32.8939 24.0677 32.6929 24.0677 32.445C24.0677 32.1971 23.8667 31.9961 23.6188 31.9961C23.3709 31.9961 23.1699 32.1971 23.1699 32.445C23.1699 32.6929 23.3709 32.8939 23.6188 32.8939Z" fill="#515151"/>
<path d="M23.6188 34.619C23.8667 34.619 24.0677 34.418 24.0677 34.1701C24.0677 33.9222 23.8667 33.7212 23.6188 33.7212C23.3709 33.7212 23.1699 33.9222 23.1699 34.1701C23.1699 34.418 23.3709 34.619 23.6188 34.619Z" fill="#515151"/>
<path d="M28.2154 9.11293C28.2154 6.86271 26.3913 5.03857 24.1411 5.03857C23.385 5.03857 22.6774 5.24529 22.0705 5.6042C21.4636 5.24529 20.7561 5.03857 20 5.03857C19.2439 5.03857 18.5363 5.24529 17.9294 5.6042C17.3226 5.24529 16.615 5.03857 15.8589 5.03857C13.6087 5.03857 11.7845 6.86271 11.7845 9.11293C11.7845 10.3248 12.3141 11.4123 13.1538 12.1585V16.1261H26.8463V12.1587C27.6859 11.4123 28.2154 10.3247 28.2154 9.11293Z" fill="#EFEFEF"/>
<path d="M24.1412 5.03857C23.385 5.03857 22.6775 5.24529 22.0707 5.6042C21.4638 5.24529 20.7562 5.03857 20.0001 5.03857C19.9624 5.03857 19.9254 5.04139 19.8879 5.04232V16.126H26.8463V12.1587C27.686 11.4123 28.2156 10.3248 28.2156 9.11293C28.2154 6.86279 26.3913 5.03857 24.1412 5.03857Z" fill="#A0A0A0"/>
</g>
<defs>
<clipPath id="clip0_10_37">
<rect width="40" height="40" fill="white" transform="translate(0 0.818115)"/>
</clipPath>
</defs>
</svg>
