<?xml version="1.0" encoding="UTF-8" standalone="no"?>
<svg
   sodipodi:docname="20 - Lollipop.svg"
   inkscape:version="1.1.1 (1:1.1+202109281949+c3084ef5ed)"
   id="svg831"
   version="1.1"
   viewBox="0 0 22.577778 22.577778"
   height="64pt"
   width="64pt"
   inkscape:export-filename="/media/taufikramadhan/Data/Tr Design Studio/Project Design/TR Creative Design/Icon Design/Project Hiring/Icon Icons/010 - Food/Send/3 - Flat/20 - Lollipop.png"
   inkscape:export-xdpi="576"
   inkscape:export-ydpi="576"
   xmlns:inkscape="http://www.inkscape.org/namespaces/inkscape"
   xmlns:sodipodi="http://sodipodi.sourceforge.net/DTD/sodipodi-0.dtd"
   xmlns="http://www.w3.org/2000/svg"
   xmlns:svg="http://www.w3.org/2000/svg"
   xmlns:rdf="http://www.w3.org/1999/02/22-rdf-syntax-ns#"
   xmlns:cc="http://creativecommons.org/ns#"
   xmlns:dc="http://purl.org/dc/elements/1.1/">
  <defs
     id="defs825">
    <pattern
       y="0"
       x="0"
       height="6"
       width="6"
       patternUnits="userSpaceOnUse"
       id="EMFhbasepattern" />
    <pattern
       y="0"
       x="0"
       height="6"
       width="6"
       patternUnits="userSpaceOnUse"
       id="EMFhbasepattern-9" />
    <pattern
       y="0"
       x="0"
       height="6"
       width="6"
       patternUnits="userSpaceOnUse"
       id="EMFhbasepattern-0" />
    <pattern
       y="0"
       x="0"
       height="6"
       width="6"
       patternUnits="userSpaceOnUse"
       id="EMFhbasepattern-7" />
    <pattern
       y="0"
       x="0"
       height="6"
       width="6"
       patternUnits="userSpaceOnUse"
       id="EMFhbasepattern-2" />
    <pattern
       y="0"
       x="0"
       height="6"
       width="6"
       patternUnits="userSpaceOnUse"
       id="EMFhbasepattern-98" />
    <pattern
       y="0"
       x="0"
       height="6"
       width="6"
       patternUnits="userSpaceOnUse"
       id="EMFhbasepattern-6" />
    <pattern
       y="0"
       x="0"
       height="6"
       width="6"
       patternUnits="userSpaceOnUse"
       id="EMFhbasepattern-01" />
    <pattern
       y="0"
       x="0"
       height="6"
       width="6"
       patternUnits="userSpaceOnUse"
       id="EMFhbasepattern-07" />
    <pattern
       y="0"
       x="0"
       height="6"
       width="6"
       patternUnits="userSpaceOnUse"
       id="EMFhbasepattern-8" />
    <pattern
       y="0"
       x="0"
       height="6"
       width="6"
       patternUnits="userSpaceOnUse"
       id="EMFhbasepattern-4" />
    <pattern
       y="0"
       x="0"
       height="6"
       width="6"
       patternUnits="userSpaceOnUse"
       id="EMFhbasepattern-40" />
    <pattern
       y="0"
       x="0"
       height="6"
       width="6"
       patternUnits="userSpaceOnUse"
       id="EMFhbasepattern-08" />
    <pattern
       y="0"
       x="0"
       height="6"
       width="6"
       patternUnits="userSpaceOnUse"
       id="EMFhbasepattern-04" />
    <pattern
       y="0"
       x="0"
       height="6"
       width="6"
       patternUnits="userSpaceOnUse"
       id="EMFhbasepattern-014" />
    <pattern
       y="0"
       x="0"
       height="6"
       width="6"
       patternUnits="userSpaceOnUse"
       id="EMFhbasepattern-27" />
    <pattern
       y="0"
       x="0"
       height="6"
       width="6"
       patternUnits="userSpaceOnUse"
       id="EMFhbasepattern-09" />
    <pattern
       y="0"
       x="0"
       height="6"
       width="6"
       patternUnits="userSpaceOnUse"
       id="EMFhbasepattern-5" />
    <pattern
       y="0"
       x="0"
       height="6"
       width="6"
       patternUnits="userSpaceOnUse"
       id="EMFhbasepattern-018" />
  </defs>
  <sodipodi:namedview
     inkscape:document-rotation="0"
     inkscape:snap-global="true"
     inkscape:snap-nodes="false"
     inkscape:bbox-nodes="true"
     inkscape:snap-bbox="true"
     showguides="false"
     inkscape:snap-midpoints="true"
     inkscape:snap-smooth-nodes="true"
     inkscape:snap-intersection-paths="true"
     inkscape:object-paths="true"
     inkscape:showpageshadow="false"
     inkscape:pagecheckerboard="true"
     inkscape:window-maximized="1"
     inkscape:window-y="31"
     inkscape:window-x="0"
     inkscape:window-height="705"
     inkscape:window-width="1366"
     units="pt"
     showgrid="false"
     inkscape:current-layer="layer1"
     inkscape:document-units="pt"
     inkscape:cy="42.732286"
     inkscape:cx="42.628314"
     inkscape:zoom="4.8090103"
     inkscape:pageshadow="2"
     inkscape:pageopacity="0.0"
     borderopacity="1.0"
     bordercolor="#666666"
     pagecolor="#ffffff"
     id="base">
    <inkscape:grid
       id="grid1378"
       type="xygrid" />
    <sodipodi:guide
       inkscape:locked="false"
       id="guide1380"
       orientation="78.000048,0"
       position="0.97013831,21.607643" />
    <sodipodi:guide
       inkscape:locked="false"
       id="guide1382"
       orientation="0,78.000005"
       position="0.97013831,0.97013129" />
    <sodipodi:guide
       inkscape:locked="false"
       id="guide1384"
       orientation="-78.000048,0"
       position="21.607639,0.97013129" />
    <sodipodi:guide
       inkscape:locked="false"
       id="guide1386"
       orientation="0,-78.000005"
       position="21.607639,21.607643" />
  </sodipodi:namedview>
  <metadata
     id="metadata828">
    <rdf:RDF>
      <cc:Work
         rdf:about="">
        <dc:format>image/svg+xml</dc:format>
        <dc:type
           rdf:resource="http://purl.org/dc/dcmitype/StillImage" />
      </cc:Work>
    </rdf:RDF>
  </metadata>
  <g
     transform="translate(0,-274.42223)"
     id="layer1"
     inkscape:groupmode="layer"
     inkscape:label="Icon">
    <g
       id="g891244"
       style="display:inline"
       transform="matrix(1.257704,0,0,1.257704,39.003401,-153.90489)">
      <g
         id="g841582">
        <path
           style="color:#000000;fill:#d0e2ee;stroke-linecap:round;stroke-linejoin:round;-inkscape-stroke:none;paint-order:markers fill stroke"
           d="m -23.591797,349.41992 -0.998047,0.99805 a 0.26461046,0.26461046 0 0 0 0,0.375 l 1.201172,1.20117 a 0.26461046,0.26461046 0 0 0 0.375,0 l 0.998047,-0.99805 a 0.26461046,0.26461046 0 0 0 0,-0.375 l -1.201172,-1.20117 a 0.26461046,0.26461046 0 0 0 -0.375,0 z"
           id="path796313" />
        <path
           style="color:#000000;fill:#d0e2ee;stroke-linecap:round;stroke-linejoin:round;-inkscape-stroke:none;paint-order:markers fill stroke"
           d="m -25.990234,351.82031 -4.00586,4.00586 c -0.161158,0.16116 -0.244089,0.37362 -0.24414,0.58594 -8e-6,0.21239 0.08299,0.42673 0.24414,0.58789 l 0.400391,0.40039 c 0.161191,0.16116 0.375601,0.24408 0.587891,0.24414 0.212386,0 0.426736,-0.083 0.58789,-0.24414 l 4.003906,-4.00391 a 0.26461046,0.26461046 0 0 0 0,-0.375 l -1.201171,-1.20117 a 0.26461046,0.26461046 0 0 0 -0.373047,0 z"
           id="path799500" />
        <path
           id="path825705"
           style="color:#000000;fill:#a8c2e1;fill-opacity:1;stroke-width:3.77953;stroke-linecap:round;stroke-linejoin:round;-inkscape-stroke:none;paint-order:markers fill stroke"
           d="m -97.636719,270.91016 a 1.0001025,1.0001025 0 0 0 -0.59375,0.28515 l -2.708981,2.70899 5.953122,5.95312 2.705078,-2.70508 a 1.0001025,1.0001025 0 0 0 0,-1.41796 l -4.539062,-4.53907 a 1.0001025,1.0001025 0 0 0 -0.816407,-0.28515 z"
           transform="matrix(0.26458334,0,0,0.26458334,0,280.06666)" />
        <path
           style="color:#000000;fill:#ee8eb4;stroke-linecap:round;stroke-linejoin:round;-inkscape-stroke:none;paint-order:markers fill stroke"
           d="m -26.386719,347.48633 c -0.297008,-0.0126 -0.561246,0.0719 -0.763672,0.23242 -0.297172,0.23568 -0.3838,0.6138 -0.345703,0.99414 -0.380338,-0.0381 -0.758456,0.0485 -0.99414,0.3457 -0.321082,0.40485 -0.337181,1.05885 0.11914,1.72071 a 0.26461046,0.26461046 0 0 0 0.002,0.004 c 0.380628,0.53156 1.024207,0.78295 1.560547,0.92383 0.536341,0.14089 0.990235,0.16406 0.990235,0.16406 a 0.26461046,0.26461046 0 0 0 0.201172,-0.0781 l 1.201171,-1.20117 a 0.26461046,0.26461046 0 0 0 0.07813,-0.20118 c 0,0 -0.02318,-0.45389 -0.164062,-0.99023 -0.140886,-0.53634 -0.392274,-1.17992 -0.923828,-1.56055 a 0.26461046,0.26461046 0 0 0 -0.0039,-0.002 c -0.330929,-0.22816 -0.660024,-0.33899 -0.957032,-0.35156 z"
           id="path796321" />
        <path
           style="color:#000000;fill:#ee8eb4;stroke-linecap:round;stroke-linejoin:round;-inkscape-stroke:none;paint-order:markers fill stroke"
           d="m -22.986328,351.74219 a 0.26461046,0.26461046 0 0 0 -0.201172,0.0781 l -1.201172,1.20117 a 0.26461046,0.26461046 0 0 0 -0.07813,0.20118 c 0,0 0.02318,0.45389 0.164063,0.99023 0.140885,0.53634 0.392275,1.17992 0.923828,1.56055 a 0.26461046,0.26461046 0 0 0 0.0039,0.004 c 0.661857,0.45632 1.315853,0.43827 1.720703,0.11719 0.297475,-0.23592 0.382271,-0.61341 0.34375,-0.99414 0.380999,0.0388 0.760008,-0.048 0.996094,-0.3457 0.321082,-0.40485 0.337181,-1.05885 -0.119141,-1.72071 a 0.26461046,0.26461046 0 0 0 -0.002,-0.004 c -0.380627,-0.53156 -1.024206,-0.78099 -1.560547,-0.92188 -0.53634,-0.14088 -0.990234,-0.16601 -0.990234,-0.16601 z"
           id="path796327" />
        <path
           style="color:#000000;fill:#e75f96;stroke-linecap:round;stroke-linejoin:round;-inkscape-stroke:none;paint-order:markers fill stroke"
           d="m -24.415902,350.21811 a 0.26461046,0.26461046 0 0 0 -0.372886,0 l -1.401782,1.40178 a 0.26461046,0.26461046 0 0 0 -0.0014,0.37427 l 1.602042,1.60205 a 0.26461046,0.26461046 0 0 0 0.37565,-10e-6 l 1.401783,-1.40178 a 0.26461046,0.26461046 0 0 0 -0.0014,-0.37427 z"
           id="path796341" />
        <path
           id="path830918"
           style="color:#000000;fill:#e75f96;fill-opacity:1;stroke-width:1;stroke-linecap:round;stroke-linejoin:round;-inkscape-stroke:none;paint-order:markers fill stroke"
           d="m -22.986195,351.74239 c -0.07522,-0.004 -0.148526,0.0245 -0.201538,0.078 l -0.529166,0.52917 c 0.05301,-0.0535 0.126314,-0.0819 0.201538,-0.078 0,0 0.45378,0.025 0.99012,0.16588 0.536341,0.14089 1.180002,0.39035 1.560628,0.92191 6.88e-4,10e-4 0.0014,0.003 0.0021,0.004 0.371094,0.53825 0.429333,1.07109 0.265617,1.46917 0.147235,-0.0566 0.278515,-0.14702 0.382406,-0.27802 0.321082,-0.40485 0.337466,-1.05845 -0.118856,-1.72031 -6.88e-4,-10e-4 -0.0014,-0.003 -0.0021,-0.004 -0.380627,-0.53156 -1.024287,-0.78102 -1.560628,-0.92191 -0.53634,-0.14088 -0.990121,-0.16588 -0.990121,-0.16588 z"
           sodipodi:nodetypes="ccccscccsccsc" />
        <path
           id="path832818"
           style="color:#000000;fill:#e75f96;fill-opacity:1;stroke-width:1;stroke-linecap:round;stroke-linejoin:round;-inkscape-stroke:none;paint-order:markers fill stroke"
           d="m -26.441797,347.48529 c -0.274498,-5.3e-4 -0.518711,0.0831 -0.708483,0.23357 -0.130784,0.10373 -0.220962,0.23495 -0.277503,0.38189 0.153046,-0.063 0.326305,-0.0931 0.512112,-0.0853 0.297008,0.0126 0.62612,0.12324 0.957048,0.3514 0.480631,0.41353 0.781579,1.02019 0.9276,1.56274 0.140883,0.53634 0.163814,0.99012 0.163814,0.99012 0.0036,0.069 -0.01995,0.13673 -0.06563,0.18862 l 0.516766,-0.51625 c 0.05351,-0.053 0.08189,-0.12631 0.07803,-0.20153 0,0 -0.02294,-0.45379 -0.163814,-0.99012 -0.140886,-0.53634 -0.39242,-1.18 -0.923976,-1.56063 -0.240575,-0.24058 -0.648139,-0.3364 -0.960673,-0.35352 -0.01855,-8e-4 -0.03699,-0.001 -0.05529,-0.001 z"
           sodipodi:nodetypes="csccccccccscccc" />
      </g>
      <g
         id="g890670">
        <path
           id="circle5549"
           style="fill:#e75f96;fill-opacity:1;stroke:none;stroke-width:0.529168;stroke-linecap:round;stroke-linejoin:round;stroke-opacity:1;paint-order:markers fill stroke;stop-color:#000000"
           d="m -19.796173,347.20087 c -1.802387,-1.80239 0.803402,-3.60712 2.205039,-2.20071 0.804953,0.79284 0.999208,2.20071 -0.0021,3.20203 -0.995433,0.99543 -2.208817,0.99543 -3.204248,0 -3.003979,-3.00398 1.401873,-7.0093 4.20558,-4.20557 1.216638,1.21663 1.702247,3.50464 -10e-6,5.20689 -1.537986,1.53798 -3.769057,1.43785 -5.206899,1e-5 -1.437842,-1.43784 -2.202915,-4.20557 -0.400526,-6.00796 1.969923,-1.96992 4.839101,-1.96992 6.608754,-0.20027 0.884827,0.88483 1.435556,2.13649 1.489715,3.4423 0.05415,1.30582 -0.388257,2.66579 -1.489716,3.76725 -2.191136,2.19113 -5.218695,1.99087 -7.209556,1e-5 -0.99543,-0.99543 -1.60211,-2.70064 -1.602112,-4.00531 l 1.138942,-0.17663 z"
           sodipodi:nodetypes="ccscccscsscsccc" />
        <path
           style="color:#000000;fill:#f4b8d0;fill-opacity:1;stroke-linecap:round;stroke-linejoin:round;-inkscape-stroke:none;paint-order:markers fill stroke"
           d="m -18.824219,341.43359 c -1.254292,0.0263 -2.532124,0.54385 -3.5625,1.57422 -0.800671,0.80067 -1.04756,1.79379 -1.046875,2.77344 l -1.009765,0.15625 a 0.26461046,0.26461046 0 0 0 -0.222657,0.26172 c 3e-6,1.38669 0.615437,3.12911 1.679688,4.19336 2.079423,2.07942 5.299029,2.28299 7.582031,0 1.153409,-1.15341 1.625296,-2.59378 1.568359,-3.9668 -0.05695,-1.37301 -0.634131,-2.68296 -1.568359,-3.61719 -0.935381,-0.93538 -2.16563,-1.40131 -3.419922,-1.375 z m 0.0078,0.51953 c 1.115188,-0.0237 2.204792,0.39425 3.039062,1.22852 0.835425,0.83543 1.360738,2.02898 1.41211,3.26758 0.05136,1.23861 -0.362603,2.51885 -1.41211,3.56836 -2.099265,2.09926 -4.933642,1.90229 -6.835937,0 -0.87599,-0.87599 -1.41751,-2.39906 -1.478516,-3.59766 l 0.619141,-0.0957 c 0.0019,0.0155 -0.006,0.0314 -0.0039,0.0469 0.154252,1.16135 0.727883,2.25719 1.490234,3.01953 1.530265,1.53027 3.94952,1.63251 5.582031,0 0.901934,-0.90193 1.237046,-1.98437 1.171875,-2.99023 -0.06517,-1.00586 -0.517362,-1.93729 -1.171875,-2.5918 -1.495396,-1.4954 -3.485867,-1.18848 -4.65039,-0.0781 -0.582262,0.55518 -0.973838,1.31072 -1.011719,2.14062 -0.03788,0.82991 0.287383,1.72293 1.082031,2.51758 0.535724,0.53573 1.157367,0.82422 1.789063,0.82422 0.631695,0 1.253337,-0.28849 1.789062,-0.82422 1.101088,-1.1011 0.901354,-2.68838 0,-3.57617 -0.79859,-0.79978 -1.959482,-0.70089 -2.658203,-0.11914 -0.349572,0.29105 -0.593997,0.71333 -0.609375,1.19726 -0.01538,0.48394 0.202659,1.0093 0.691406,1.49805 a 0.264584,0.264584 0 0 0 0.373047,0 0.264584,0.264584 0 0 0 0,-0.375 c -0.412445,-0.41244 -0.545243,-0.78804 -0.535156,-1.10547 0.01009,-0.31742 0.166188,-0.59896 0.417969,-0.80859 0.503561,-0.41926 1.344262,-0.51717 1.947265,0.0879 a 0.26461046,0.26461046 0 0 0 0.002,0.002 c 0.708551,0.69789 0.89762,1.92464 -0.0039,2.82617 -0.459707,0.45971 -0.941351,0.66797 -1.414062,0.66797 -0.472712,0 -0.95631,-0.20826 -1.416016,-0.66797 -0.70734,-0.70733 -0.956744,-1.4408 -0.925781,-2.11914 0.03096,-0.67834 0.35349,-1.31202 0.847656,-1.7832 0.988332,-0.94236 2.601848,-1.238 3.910156,0.0703 0.562124,0.56212 0.961349,1.3841 1.017578,2.25196 0.05623,0.86786 -0.217257,1.77976 -1.017578,2.58007 -1.443457,1.44346 -3.486615,1.34542 -4.832031,0 -0.67549,-0.67548 -1.202696,-1.68227 -1.339844,-2.71484 -0.137147,-1.03257 0.09938,-2.07789 0.939453,-2.91797 0.939545,-0.93954 2.080124,-1.40594 3.195313,-1.42969 z"
           id="path650715" />
        <path
           style="color:#000000;fill:#f4b8d0;fill-opacity:1;stroke-linecap:round;stroke-linejoin:round;-inkscape-stroke:none;paint-order:markers fill stroke"
           d="m -18.408252,345.81251 c -0.432926,-0.43293 -1.141504,-0.43293 -1.574423,-10e-6 -0.432919,0.43292 -0.434298,1.14288 -0.0014,1.5758 0.432919,0.43292 1.144255,0.43292 1.577174,0 0.432919,-0.43292 0.43154,-1.14287 -0.0014,-1.57579 z"
           id="path796351" />
      </g>
    </g>
  </g>
</svg>
