<?xml version="1.0" encoding="UTF-8" standalone="no"?>
<svg
   xmlns:dc="http://purl.org/dc/elements/1.1/"
   xmlns:cc="http://creativecommons.org/ns#"
   xmlns:rdf="http://www.w3.org/1999/02/22-rdf-syntax-ns#"
   xmlns:svg="http://www.w3.org/2000/svg"
   xmlns="http://www.w3.org/2000/svg"
   xmlns:sodipodi="http://sodipodi.sourceforge.net/DTD/sodipodi-0.dtd"
   xmlns:inkscape="http://www.inkscape.org/namespaces/inkscape"
   inkscape:export-ydpi="576"
   inkscape:export-xdpi="576"
   inkscape:export-filename="D:\Project Real\November\export\flat\png\5 - Bread with cheese.png"
   width="64pt"
   height="64pt"
   viewBox="0 0 22.577778 22.577778"
   version="1.1"
   id="svg831"
   inkscape:version="1.0 (4035a4fb49, 2020-05-01)"
   sodipodi:docname="6 - Fried chicken.svg">
  <defs
     id="defs825">
    <pattern
       id="EMFhbasepattern"
       patternUnits="userSpaceOnUse"
       width="6"
       height="6"
       x="0"
       y="0" />
    <pattern
       id="EMFhbasepattern-9"
       patternUnits="userSpaceOnUse"
       width="6"
       height="6"
       x="0"
       y="0" />
    <pattern
       id="EMFhbasepattern-0"
       patternUnits="userSpaceOnUse"
       width="6"
       height="6"
       x="0"
       y="0" />
    <pattern
       id="EMFhbasepattern-7"
       patternUnits="userSpaceOnUse"
       width="6"
       height="6"
       x="0"
       y="0" />
    <pattern
       id="EMFhbasepattern-2"
       patternUnits="userSpaceOnUse"
       width="6"
       height="6"
       x="0"
       y="0" />
    <pattern
       id="EMFhbasepattern-98"
       patternUnits="userSpaceOnUse"
       width="6"
       height="6"
       x="0"
       y="0" />
    <pattern
       id="EMFhbasepattern-6"
       patternUnits="userSpaceOnUse"
       width="6"
       height="6"
       x="0"
       y="0" />
    <pattern
       id="EMFhbasepattern-01"
       patternUnits="userSpaceOnUse"
       width="6"
       height="6"
       x="0"
       y="0" />
    <pattern
       id="EMFhbasepattern-07"
       patternUnits="userSpaceOnUse"
       width="6"
       height="6"
       x="0"
       y="0" />
    <pattern
       id="EMFhbasepattern-8"
       patternUnits="userSpaceOnUse"
       width="6"
       height="6"
       x="0"
       y="0" />
    <pattern
       id="EMFhbasepattern-4"
       patternUnits="userSpaceOnUse"
       width="6"
       height="6"
       x="0"
       y="0" />
    <pattern
       id="EMFhbasepattern-40"
       patternUnits="userSpaceOnUse"
       width="6"
       height="6"
       x="0"
       y="0" />
    <pattern
       id="EMFhbasepattern-08"
       patternUnits="userSpaceOnUse"
       width="6"
       height="6"
       x="0"
       y="0" />
    <pattern
       id="EMFhbasepattern-04"
       patternUnits="userSpaceOnUse"
       width="6"
       height="6"
       x="0"
       y="0" />
    <pattern
       id="EMFhbasepattern-014"
       patternUnits="userSpaceOnUse"
       width="6"
       height="6"
       x="0"
       y="0" />
    <pattern
       id="EMFhbasepattern-27"
       patternUnits="userSpaceOnUse"
       width="6"
       height="6"
       x="0"
       y="0" />
    <pattern
       id="EMFhbasepattern-09"
       patternUnits="userSpaceOnUse"
       width="6"
       height="6"
       x="0"
       y="0" />
    <pattern
       id="EMFhbasepattern-5"
       patternUnits="userSpaceOnUse"
       width="6"
       height="6"
       x="0"
       y="0" />
    <pattern
       id="EMFhbasepattern-018"
       patternUnits="userSpaceOnUse"
       width="6"
       height="6"
       x="0"
       y="0" />
  </defs>
  <sodipodi:namedview
     id="base"
     pagecolor="#ffffff"
     bordercolor="#666666"
     borderopacity="1.0"
     inkscape:pageopacity="0.0"
     inkscape:pageshadow="2"
     inkscape:zoom="6.2578125"
     inkscape:cx="42.666667"
     inkscape:cy="42.666667"
     inkscape:document-units="pt"
     inkscape:current-layer="layer1"
     showgrid="false"
     units="pt"
     inkscape:window-width="1366"
     inkscape:window-height="706"
     inkscape:window-x="-8"
     inkscape:window-y="-8"
     inkscape:window-maximized="1"
     inkscape:pagecheckerboard="true"
     inkscape:showpageshadow="false"
     inkscape:object-paths="true"
     inkscape:snap-intersection-paths="true"
     inkscape:snap-smooth-nodes="true"
     inkscape:snap-midpoints="true"
     showguides="true"
     inkscape:snap-bbox="true"
     inkscape:bbox-nodes="true"
     inkscape:snap-nodes="false"
     inkscape:snap-global="true"
     inkscape:document-rotation="0">
    <inkscape:grid
       type="xygrid"
       id="grid1378" />
    <sodipodi:guide
       position="0.97013831,21.607643"
       orientation="78.000048,0"
       id="guide1380"
       inkscape:locked="false" />
    <sodipodi:guide
       position="0.97013831,0.97013129"
       orientation="0,78.000005"
       id="guide1382"
       inkscape:locked="false" />
    <sodipodi:guide
       position="21.607639,0.97013129"
       orientation="-78.000048,0"
       id="guide1384"
       inkscape:locked="false" />
    <sodipodi:guide
       position="21.607639,21.607643"
       orientation="0,-78.000005"
       id="guide1386"
       inkscape:locked="false" />
  </sodipodi:namedview>
  <metadata
     id="metadata828">
    <rdf:RDF>
      <cc:Work
         rdf:about="">
        <dc:format>image/svg+xml</dc:format>
        <dc:type
           rdf:resource="http://purl.org/dc/dcmitype/StillImage" />
        <dc:title></dc:title>
      </cc:Work>
    </rdf:RDF>
  </metadata>
  <g
     inkscape:label="Icon"
     inkscape:groupmode="layer"
     id="layer1"
     transform="translate(0,-274.42223)">
    <g
       transform="matrix(1.2576058,0,0,1.2576058,77.362318,-77.149907)"
       style="display:inline;stroke-width:0.795162"
       id="g560">
      <path
         style="color:#000000;font-style:normal;font-variant:normal;font-weight:normal;font-stretch:normal;font-size:medium;line-height:normal;font-family:sans-serif;font-variant-ligatures:normal;font-variant-position:normal;font-variant-caps:normal;font-variant-numeric:normal;font-variant-alternates:normal;font-variant-east-asian:normal;font-feature-settings:normal;font-variation-settings:normal;text-indent:0;text-align:start;text-decoration:none;text-decoration-line:none;text-decoration-style:solid;text-decoration-color:#000000;letter-spacing:normal;word-spacing:normal;text-transform:none;writing-mode:lr-tb;direction:ltr;text-orientation:mixed;dominant-baseline:auto;baseline-shift:baseline;text-anchor:start;white-space:normal;shape-padding:0;shape-margin:0;inline-size:0;clip-rule:nonzero;display:inline;overflow:visible;visibility:visible;isolation:auto;mix-blend-mode:normal;color-interpolation:sRGB;color-interpolation-filters:linearRGB;solid-color:#000000;solid-opacity:1;vector-effect:none;fill:#f4504c;fill-opacity:1;fill-rule:nonzero;stroke:none;stroke-width:0.420773;stroke-linecap:round;stroke-linejoin:round;stroke-miterlimit:1.5;stroke-dasharray:none;stroke-dashoffset:0;stroke-opacity:1;color-rendering:auto;image-rendering:auto;shape-rendering:auto;text-rendering:auto;enable-background:accumulate;stop-color:#000000"
         d="m -56.244141,295.15234 a 0.26460996,0.26460996 0 0 0 -0.263671,0.26368 v 0.52929 c -10e-7,0.43522 0.357746,0.79297 0.792968,0.79297 h 6.351563 c 0.435222,0 0.792969,-0.35775 0.792969,-0.79297 v -0.52929 a 0.26460996,0.26460996 0 0 0 -0.263672,-0.26368 z"
         id="path342" />
      <path
         id="path493"
         style="fill:#f01c19;fill-opacity:1;stroke-width:1.59032;stroke-linecap:round;stroke-linejoin:round;stroke-miterlimit:1.5"
         d="m -213.54102,57.767578 a 1.0001006,1.0001006 0 0 0 -0.0312,0.246094 v 2 c 0,0.218584 0.027,0.430961 0.0723,0.636719 l 29.82227,0.103515 c 0.0617,-0.238184 0.10546,-0.483806 0.10546,-0.740234 v -2 a 1.0001006,1.0001006 0 0 0 -0.0332,-0.246094 z"
         transform="matrix(0.26458334,0,0,0.26458334,0,280.06666)" />
      <path
         style="color:#000000;font-style:normal;font-variant:normal;font-weight:normal;font-stretch:normal;font-size:medium;line-height:normal;font-family:sans-serif;font-variant-ligatures:normal;font-variant-position:normal;font-variant-caps:normal;font-variant-numeric:normal;font-variant-alternates:normal;font-variant-east-asian:normal;font-feature-settings:normal;font-variation-settings:normal;text-indent:0;text-align:start;text-decoration:none;text-decoration-line:none;text-decoration-style:solid;text-decoration-color:#000000;letter-spacing:normal;word-spacing:normal;text-transform:none;writing-mode:lr-tb;direction:ltr;text-orientation:mixed;dominant-baseline:auto;baseline-shift:baseline;text-anchor:start;white-space:normal;shape-padding:0;shape-margin:0;inline-size:0;clip-rule:nonzero;display:inline;overflow:visible;visibility:visible;isolation:auto;mix-blend-mode:normal;color-interpolation:sRGB;color-interpolation-filters:linearRGB;solid-color:#000000;solid-opacity:1;vector-effect:none;fill:#f4504c;fill-opacity:1;fill-rule:nonzero;stroke:none;stroke-width:0.420773;stroke-linecap:round;stroke-linejoin:round;stroke-miterlimit:1.5;stroke-dasharray:none;stroke-dashoffset:0;stroke-opacity:1;color-rendering:auto;image-rendering:auto;shape-rendering:auto;text-rendering:auto;enable-background:accumulate;stop-color:#000000"
         d="m -57.830078,288.26562 a 0.26460996,0.26460996 0 0 0 -0.261719,0.30469 l 0.996094,6.36524 v -0.01 c 0.05043,0.42876 0.417909,0.75586 0.849609,0.75586 h 7.414063 c 0.4317,0 0.799169,-0.32711 0.849609,-0.75586 v 0.01 l 0.996094,-6.36524 a 0.26460996,0.26460996 0 0 0 -0.261719,-0.30469 z"
         id="path386" />
      <path
         id="path371"
         style="color:#000000;font-style:normal;font-variant:normal;font-weight:normal;font-stretch:normal;font-size:medium;line-height:normal;font-family:sans-serif;font-variant-ligatures:normal;font-variant-position:normal;font-variant-caps:normal;font-variant-numeric:normal;font-variant-alternates:normal;font-variant-east-asian:normal;font-feature-settings:normal;font-variation-settings:normal;text-indent:0;text-align:start;text-decoration:none;text-decoration-line:none;text-decoration-style:solid;text-decoration-color:#000000;letter-spacing:normal;word-spacing:normal;text-transform:none;writing-mode:lr-tb;direction:ltr;text-orientation:mixed;dominant-baseline:auto;baseline-shift:baseline;text-anchor:start;white-space:normal;shape-padding:0;shape-margin:0;inline-size:0;clip-rule:nonzero;display:inline;overflow:visible;visibility:visible;isolation:auto;mix-blend-mode:normal;color-interpolation:sRGB;color-interpolation-filters:linearRGB;solid-color:#000000;solid-opacity:1;vector-effect:none;fill:#ececec;fill-opacity:1;fill-rule:nonzero;stroke:none;stroke-width:0.420773;stroke-linecap:round;stroke-linejoin:round;stroke-miterlimit:1.5;stroke-dasharray:none;stroke-dashoffset:0;stroke-opacity:1;color-rendering:auto;image-rendering:auto;shape-rendering:auto;text-rendering:auto;enable-background:accumulate;stop-color:#000000"
         d="m -57.767018,290.64638 0.372587,2.38073 h 9.710518 l 0.372589,-2.38073 z" />
      <path
         style="color:#000000;font-style:normal;font-variant:normal;font-weight:normal;font-stretch:normal;font-size:medium;line-height:normal;font-family:sans-serif;font-variant-ligatures:normal;font-variant-position:normal;font-variant-caps:normal;font-variant-numeric:normal;font-variant-alternates:normal;font-variant-east-asian:normal;font-feature-settings:normal;font-variation-settings:normal;text-indent:0;text-align:start;text-decoration:none;text-decoration-line:none;text-decoration-style:solid;text-decoration-color:#000000;letter-spacing:normal;word-spacing:normal;text-transform:none;writing-mode:lr-tb;direction:ltr;text-orientation:mixed;dominant-baseline:auto;baseline-shift:baseline;text-anchor:start;white-space:normal;shape-padding:0;shape-margin:0;inline-size:0;clip-rule:nonzero;display:inline;overflow:visible;visibility:visible;isolation:auto;mix-blend-mode:normal;color-interpolation:sRGB;color-interpolation-filters:linearRGB;solid-color:#000000;solid-opacity:1;vector-effect:none;fill:#ececec;fill-opacity:1;fill-rule:nonzero;stroke:none;stroke-width:0.420774;stroke-linecap:round;stroke-linejoin:round;stroke-miterlimit:1.5;stroke-dasharray:none;stroke-dashoffset:0;stroke-opacity:1;color-rendering:auto;image-rendering:auto;shape-rendering:auto;text-rendering:auto;enable-background:accumulate;stop-color:#000000"
         d="m -49.023438,280.33203 c -0.232451,0 -0.464802,0.0879 -0.640624,0.26367 -0.278744,0.27874 -0.272531,0.67787 -0.109376,1.01563 l -0.798828,0.79883 a 0.26461046,0.26461046 0 0 0 0,0.375 l 0.908204,0.90625 a 0.26461046,0.26461046 0 0 0 0.373046,0 l 0.798828,-0.79688 c 0.337757,0.16316 0.736886,0.16937 1.015626,-0.10937 0.35165,-0.35165 0.35165,-0.93157 0,-1.28321 -0.176929,-0.17693 -0.410622,-0.26283 -0.644532,-0.26172 0.0011,-0.2339 -0.08479,-0.4676 -0.261718,-0.64453 -0.175823,-0.17582 -0.408174,-0.26367 -0.640626,-0.26367 z"
         id="path480" />
      <path
         style="color:#000000;font-style:normal;font-variant:normal;font-weight:normal;font-stretch:normal;font-size:medium;line-height:normal;font-family:sans-serif;font-variant-ligatures:normal;font-variant-position:normal;font-variant-caps:normal;font-variant-numeric:normal;font-variant-alternates:normal;font-variant-east-asian:normal;font-feature-settings:normal;font-variation-settings:normal;text-indent:0;text-align:start;text-decoration:none;text-decoration-line:none;text-decoration-style:solid;text-decoration-color:#000000;letter-spacing:normal;word-spacing:normal;text-transform:none;writing-mode:lr-tb;direction:ltr;text-orientation:mixed;dominant-baseline:auto;baseline-shift:baseline;text-anchor:start;white-space:normal;shape-padding:0;shape-margin:0;inline-size:0;clip-rule:nonzero;display:inline;overflow:visible;visibility:visible;isolation:auto;mix-blend-mode:normal;color-interpolation:sRGB;color-interpolation-filters:linearRGB;solid-color:#000000;solid-opacity:1;vector-effect:none;fill:#fec872;fill-opacity:1;fill-rule:nonzero;stroke:none;stroke-width:0.420774;stroke-linecap:round;stroke-linejoin:round;stroke-miterlimit:1.5;stroke-dasharray:none;stroke-dashoffset:0;stroke-opacity:1;color-rendering:auto;image-rendering:auto;shape-rendering:auto;text-rendering:auto;enable-background:accumulate;stop-color:#000000"
         d="m -50.726562,282.29688 c -0.112733,0.0298 -0.200063,0.11162 -0.246094,0.18359 -0.07808,0.12208 -0.08339,0.21044 -0.0957,0.27344 -0.496862,-0.10192 -1.050161,-0.0485 -1.611329,0.14843 -0.633958,0.22245 -1.251226,0.55168 -1.689453,0.86133 a 0.26461046,0.26461046 0 0 0 -0.0332,0.40625 c 0.649383,0.63962 1.298335,2.33626 1.333985,3.31055 a 0.26461046,0.26461046 0 0 0 0.265625,0.25586 h 0.523437 a 0.26461046,0.26461046 0 0 0 0.265625,-0.26563 c -8.21e-4,-0.4684 0.208051,-1.16593 0.601563,-1.71093 0.393511,-0.54501 0.941961,-0.93759 1.658203,-0.92579 a 0.26461046,0.26461046 0 0 0 0.269531,-0.26562 c -2.64e-4,-0.1315 -0.03692,-0.25126 -0.0625,-0.375 0.0635,-0.0102 0.117266,-0.008 0.212891,-0.0625 0.07365,-0.0417 0.161005,-0.12459 0.195312,-0.23828 0.03431,-0.11369 0.01265,-0.22874 -0.02734,-0.32813 -0.07998,-0.19877 -0.239174,-0.39542 -0.535156,-0.6914 -0.299125,-0.29913 -0.500876,-0.46124 -0.701172,-0.54297 -0.100148,-0.0409 -0.211486,-0.063 -0.324218,-0.0332 z"
         id="path450" />
      <path
         id="path523"
         style="color:#000000;font-style:normal;font-variant:normal;font-weight:normal;font-stretch:normal;font-size:medium;line-height:normal;font-family:sans-serif;font-variant-ligatures:normal;font-variant-position:normal;font-variant-caps:normal;font-variant-numeric:normal;font-variant-alternates:normal;font-variant-east-asian:normal;font-feature-settings:normal;font-variation-settings:normal;text-indent:0;text-align:start;text-decoration:none;text-decoration-line:none;text-decoration-style:solid;text-decoration-color:#000000;letter-spacing:normal;word-spacing:normal;text-transform:none;writing-mode:lr-tb;direction:ltr;text-orientation:mixed;dominant-baseline:auto;baseline-shift:baseline;text-anchor:start;white-space:normal;shape-padding:0;shape-margin:0;inline-size:0;clip-rule:nonzero;display:inline;overflow:visible;visibility:visible;isolation:auto;mix-blend-mode:normal;color-interpolation:sRGB;color-interpolation-filters:linearRGB;solid-color:#000000;solid-opacity:1;vector-effect:none;fill:#fca311;fill-opacity:1;fill-rule:nonzero;stroke:none;stroke-width:0.420773;stroke-linecap:round;stroke-linejoin:round;stroke-miterlimit:1.5;stroke-dasharray:none;stroke-dashoffset:0;stroke-opacity:1;color-rendering:auto;image-rendering:auto;shape-rendering:auto;text-rendering:auto;enable-background:accumulate;stop-color:#000000"
         d="m -52.013878,287.47086 c -8.2e-4,-0.4684 0.208519,-1.166 0.602031,-1.711 0.393512,-0.54501 0.941538,-0.93785 1.657778,-0.92605 0.148538,0.003 0.270343,-0.11705 0.269754,-0.26561 -2.65e-4,-0.1315 -0.03695,-0.25092 -0.06253,-0.37466 0.0635,-0.0102 0.117282,-0.008 0.212907,-0.0625 0.05168,-0.0293 0.109297,-0.08 0.151411,-0.14624 -0.21104,-0.0593 -0.432329,-0.092 -0.663009,-0.092 l -2e-6,-1e-5 c -0.929354,0 -1.712489,0.52917 -2.244307,1.20509 -0.530074,0.67369 -0.857311,1.52351 -0.857311,2.37298 z"
         sodipodi:nodetypes="cscccccccscc" />
      <path
         style="color:#000000;font-style:normal;font-variant:normal;font-weight:normal;font-stretch:normal;font-size:medium;line-height:normal;font-family:sans-serif;font-variant-ligatures:normal;font-variant-position:normal;font-variant-caps:normal;font-variant-numeric:normal;font-variant-alternates:normal;font-variant-east-asian:normal;font-feature-settings:normal;font-variation-settings:normal;text-indent:0;text-align:start;text-decoration:none;text-decoration-line:none;text-decoration-style:solid;text-decoration-color:#000000;letter-spacing:normal;word-spacing:normal;text-transform:none;writing-mode:lr-tb;direction:ltr;text-orientation:mixed;dominant-baseline:auto;baseline-shift:baseline;text-anchor:start;white-space:normal;shape-padding:0;shape-margin:0;inline-size:0;clip-rule:nonzero;display:inline;overflow:visible;visibility:visible;isolation:auto;mix-blend-mode:normal;color-interpolation:sRGB;color-interpolation-filters:linearRGB;solid-color:#000000;solid-opacity:1;vector-effect:none;fill:#fec872;fill-opacity:1;fill-rule:nonzero;stroke:none;stroke-width:0.420773;stroke-linecap:round;stroke-linejoin:round;stroke-miterlimit:1.5;stroke-dasharray:none;stroke-dashoffset:0;stroke-opacity:1;color-rendering:auto;image-rendering:auto;shape-rendering:auto;text-rendering:auto;enable-background:accumulate;stop-color:#000000"
         d="m -47.148438,287.4707 c -1e-6,-0.7434 -0.293081,-1.5175 -0.769531,-2.12304 -0.47645,-0.60555 -1.153013,-1.05078 -1.927734,-1.05078 -0.774721,0 -1.451285,0.44523 -1.927735,1.05078 -0.476449,0.60554 -0.76953,1.37964 -0.769531,2.12304 z"
         id="path434"
         sodipodi:nodetypes="cssscc" />
      <path
         style="color:#000000;font-style:normal;font-variant:normal;font-weight:normal;font-stretch:normal;font-size:medium;line-height:normal;font-family:sans-serif;font-variant-ligatures:normal;font-variant-position:normal;font-variant-caps:normal;font-variant-numeric:normal;font-variant-alternates:normal;font-variant-east-asian:normal;font-feature-settings:normal;font-variation-settings:normal;text-indent:0;text-align:start;text-decoration:none;text-decoration-line:none;text-decoration-style:solid;text-decoration-color:#000000;letter-spacing:normal;word-spacing:normal;text-transform:none;writing-mode:lr-tb;direction:ltr;text-orientation:mixed;dominant-baseline:auto;baseline-shift:baseline;text-anchor:start;white-space:normal;shape-padding:0;shape-margin:0;inline-size:0;clip-rule:nonzero;display:inline;overflow:visible;visibility:visible;isolation:auto;mix-blend-mode:normal;color-interpolation:sRGB;color-interpolation-filters:linearRGB;solid-color:#000000;solid-opacity:1;vector-effect:none;fill:#ececec;fill-opacity:1;fill-rule:nonzero;stroke:none;stroke-width:0.420774;stroke-linecap:round;stroke-linejoin:round;stroke-miterlimit:1.5;stroke-dasharray:none;stroke-dashoffset:0;stroke-opacity:1;color-rendering:auto;image-rendering:auto;shape-rendering:auto;text-rendering:auto;enable-background:accumulate;stop-color:#000000"
         d="m -55.939453,280.32812 c -0.497301,0 -0.906254,0.40895 -0.90625,0.90626 -3e-6,0.39452 0.287919,0.67172 0.642578,0.79492 v 1.1289 a 0.26461046,0.26461046 0 0 0 0.263672,0.26368 h 1.283203 a 0.26461046,0.26461046 0 0 0 0.265625,-0.26368 v -1.1289 c 0.354138,-0.1235 0.640629,-0.40077 0.640625,-0.79492 6e-6,-0.49731 -0.408949,-0.90626 -0.90625,-0.90626 -0.250211,0 -0.476012,0.10336 -0.640625,0.26954 -0.164614,-0.16619 -0.392366,-0.26954 -0.642578,-0.26954 z"
         id="path465" />
      <path
         id="path517"
         style="color:#000000;font-style:normal;font-variant:normal;font-weight:normal;font-stretch:normal;font-size:medium;line-height:normal;font-family:sans-serif;font-variant-ligatures:normal;font-variant-position:normal;font-variant-caps:normal;font-variant-numeric:normal;font-variant-alternates:normal;font-variant-east-asian:normal;font-feature-settings:normal;font-variation-settings:normal;text-indent:0;text-align:start;text-decoration:none;text-decoration-line:none;text-decoration-style:solid;text-decoration-color:#000000;letter-spacing:normal;word-spacing:normal;text-transform:none;writing-mode:lr-tb;direction:ltr;text-orientation:mixed;dominant-baseline:auto;baseline-shift:baseline;text-anchor:start;white-space:normal;shape-padding:0;shape-margin:0;inline-size:0;clip-rule:nonzero;display:inline;overflow:visible;visibility:visible;isolation:auto;mix-blend-mode:normal;color-interpolation:sRGB;color-interpolation-filters:linearRGB;solid-color:#000000;solid-opacity:1;vector-effect:none;fill:#fca311;fill-opacity:1;fill-rule:nonzero;stroke:none;stroke-width:1.59033;stroke-linecap:round;stroke-linejoin:round;stroke-miterlimit:1.5;stroke-dasharray:none;stroke-dashoffset:0;stroke-opacity:1;color-rendering:auto;image-rendering:auto;shape-rendering:auto;text-rendering:auto;enable-background:accumulate;stop-color:#000000"
         d="m -196.63865,27.976562 c -10e-4,-2.377247 -0.77634,-5.464463 -2.0293,-8.585937 -0.92198,-2.296894 -2.31874,-4.241261 -4.00879,-5.852539 0.1288,-0.428214 0.18453,-0.86514 0.1416,-1.334961 h -2e-5 c -1.10436,0.567934 -2.11747,1.177683 -2.95507,1.769531 -0.51359,0.359451 -0.57367,1.097353 -0.125,1.535156 2.45436,2.417462 4.90627,8.831317 5.04101,12.513672 z"
         transform="matrix(0.26458334,0,0,0.26458334,0,280.06666)"
         sodipodi:nodetypes="csccccccc" />
      <path
         id="path529"
         style="fill:#cccccc;fill-opacity:1;stroke-width:1.59032;stroke-linecap:round;stroke-linejoin:round;stroke-miterlimit:1.5"
         d="m -211.42383,0.98828125 c -1.38673,0 -2.58649,0.84493335 -3.12305,2.04101565 9.12872,0.424029 6.21692,6.038667 8.4043,9.5546871 a 1.0001025,1.0001025 0 0 0 0.57227,-0.90039 V 7.4179688 c 1.33847,-0.4667717 2.41993,-1.5142055 2.41992,-3.0039063 2e-5,-1.8795968 -1.54427,-3.42578125 -3.42383,-3.42578125 -0.94568,0 -1.79971,0.39144935 -2.42187,1.01953125 -0.62217,-0.6281197 -1.48205,-1.01953125 -2.42774,-1.01953125 z"
         transform="matrix(0.26458334,0,0,0.26458334,0,280.06666)" />
      <path
         style="color:#000000;font-style:normal;font-variant:normal;font-weight:normal;font-stretch:normal;font-size:medium;line-height:normal;font-family:sans-serif;font-variant-ligatures:normal;font-variant-position:normal;font-variant-caps:normal;font-variant-numeric:normal;font-variant-alternates:normal;font-variant-east-asian:normal;font-feature-settings:normal;font-variation-settings:normal;text-indent:0;text-align:start;text-decoration:none;text-decoration-line:none;text-decoration-style:solid;text-decoration-color:#000000;letter-spacing:normal;word-spacing:normal;text-transform:none;writing-mode:lr-tb;direction:ltr;text-orientation:mixed;dominant-baseline:auto;baseline-shift:baseline;text-anchor:start;white-space:normal;shape-padding:0;shape-margin:0;inline-size:0;clip-rule:nonzero;display:inline;overflow:visible;visibility:visible;isolation:auto;mix-blend-mode:normal;color-interpolation:sRGB;color-interpolation-filters:linearRGB;solid-color:#000000;solid-opacity:1;vector-effect:none;fill:#fec872;fill-opacity:1;fill-rule:nonzero;stroke:none;stroke-width:0.420774;stroke-linecap:round;stroke-linejoin:round;stroke-miterlimit:1.5;stroke-dasharray:none;stroke-dashoffset:0;stroke-opacity:1;color-rendering:auto;image-rendering:auto;shape-rendering:auto;text-rendering:auto;enable-background:accumulate;stop-color:#000000"
         d="m -55.259766,282.86914 c -0.423025,0 -0.681434,0.0275 -0.880859,0.11133 -0.09971,0.0419 -0.193276,0.10628 -0.251953,0.20703 -0.05868,0.10075 -0.06327,0.22125 -0.04492,0.30469 0.03273,0.14891 0.09834,0.22104 0.132812,0.27343 -0.518736,0.34575 -0.918849,0.94988 -1.193359,1.64844 -0.303758,0.773 -0.484374,1.56274 -0.484375,2.05664 a 0.26461046,0.26461046 0 0 0 0.265625,0.26563 h 4.914063 a 0.26461046,0.26461046 0 0 0 0.263672,-0.26563 c -10e-7,-0.50193 -0.18708,-1.30246 -0.5,-2.08203 -0.279699,-0.6968 -0.6897,-1.2887 -1.212891,-1.63086 0.03886,-0.0521 0.09979,-0.1173 0.138672,-0.25781 0.02258,-0.0816 0.02683,-0.20199 -0.0293,-0.30664 -0.05613,-0.10465 -0.151446,-0.17089 -0.25,-0.21289 -0.197108,-0.084 -0.448606,-0.11133 -0.867187,-0.11133 z"
         id="path417" />
      <path
         id="path498"
         style="fill:#f01c19;fill-opacity:1;stroke-width:1.59032;stroke-linecap:round;stroke-linejoin:round;stroke-miterlimit:1.5"
         d="m -218.57031,30.988281 c -0.61295,1.01e-4 -1.08159,0.546537 -0.98828,1.152344 l 0.55664,3.564453 27.09203,-0.08316 a 7.3172642,7.3172642 49.22965 0 1 7.25678,8.415862 l -2.27459,14.977849 h 2.36523 c 1.63162,0 3.0203,-1.234996 3.21094,-2.855469 v 0.03711 l 3.76562,-24.056641 c 0.0934,-0.606586 -0.37649,-1.15344 -0.99023,-1.152344 z"
         transform="matrix(0.26458334,0,0,0.26458334,0,280.06666)" />
      <path
         style="color:#000000;font-style:normal;font-variant:normal;font-weight:normal;font-stretch:normal;font-size:medium;line-height:normal;font-family:sans-serif;font-variant-ligatures:normal;font-variant-position:normal;font-variant-caps:normal;font-variant-numeric:normal;font-variant-alternates:normal;font-variant-east-asian:normal;font-feature-settings:normal;font-variation-settings:normal;text-indent:0;text-align:start;text-decoration:none;text-decoration-line:none;text-decoration-style:solid;text-decoration-color:#000000;letter-spacing:normal;word-spacing:normal;text-transform:none;writing-mode:lr-tb;direction:ltr;text-orientation:mixed;dominant-baseline:auto;baseline-shift:baseline;text-anchor:start;white-space:normal;shape-padding:0;shape-margin:0;inline-size:0;clip-rule:nonzero;display:inline;overflow:visible;visibility:visible;isolation:auto;mix-blend-mode:normal;color-interpolation:sRGB;color-interpolation-filters:linearRGB;solid-color:#000000;solid-opacity:1;vector-effect:none;fill:#fff79c;fill-opacity:1;fill-rule:nonzero;stroke:none;stroke-width:0.420773;stroke-linecap:round;stroke-linejoin:round;stroke-miterlimit:1.5;stroke-dasharray:none;stroke-dashoffset:0;stroke-opacity:1;color-rendering:auto;image-rendering:auto;shape-rendering:auto;text-rendering:auto;enable-background:accumulate;stop-color:#000000"
         d="m -52.912109,289.63477 -1.28125,1.92382 c -0.151269,0.22691 -0.151269,0.5231 0,0.75 l 1.28125,1.92383 c 0.172157,0.25824 0.573936,0.25824 0.746093,0 l 1.28125,-1.92383 c 0.151269,-0.2269 0.151269,-0.52309 0,-0.75 l -1.28125,-1.92382 c -0.172156,-0.25824 -0.573937,-0.25824 -0.746093,0 z"
         id="path357" />
      <path
         style="color:#000000;font-style:normal;font-variant:normal;font-weight:normal;font-stretch:normal;font-size:medium;line-height:normal;font-family:sans-serif;font-variant-ligatures:normal;font-variant-position:normal;font-variant-caps:normal;font-variant-numeric:normal;font-variant-alternates:normal;font-variant-east-asian:normal;font-feature-settings:normal;font-variation-settings:normal;text-indent:0;text-align:start;text-decoration:none;text-decoration-line:none;text-decoration-style:solid;text-decoration-color:#000000;letter-spacing:normal;word-spacing:normal;text-transform:none;writing-mode:lr-tb;direction:ltr;text-orientation:mixed;dominant-baseline:auto;baseline-shift:baseline;text-anchor:start;white-space:normal;shape-padding:0;shape-margin:0;inline-size:0;clip-rule:nonzero;display:inline;overflow:visible;visibility:visible;isolation:auto;mix-blend-mode:normal;color-interpolation:sRGB;color-interpolation-filters:linearRGB;solid-color:#000000;solid-opacity:1;vector-effect:none;fill:#f4504c;fill-opacity:1;fill-rule:nonzero;stroke:none;stroke-width:0.420773;stroke-linecap:round;stroke-linejoin:round;stroke-miterlimit:1.5;stroke-dasharray:none;stroke-dashoffset:0;stroke-opacity:1;color-rendering:auto;image-rendering:auto;shape-rendering:auto;text-rendering:auto;enable-background:accumulate;stop-color:#000000"
         d="m -57.830078,287.20703 c -0.435239,0 -0.794919,0.35773 -0.794922,0.79297 3e-6,0.43524 0.359677,0.79492 0.794922,0.79492 h 10.582031 c 0.435238,0 0.794919,-0.35968 0.794922,-0.79492 -3e-6,-0.43524 -0.359678,-0.79297 -0.794922,-0.79297 z"
         id="path402" />
      <path
         id="path506"
         style="fill:#cccccc;fill-opacity:1;stroke-width:1.59032;stroke-linecap:round;stroke-linejoin:round;stroke-miterlimit:1.5"
         d="m -185.23573,39.986328 c 0.5614,1.271474 0.74906,2.676542 0.54102,4.050781 l -0.75196,4.947266 h 5.26638 l 1.40821,-8.998047 z"
         transform="matrix(0.26458334,0,0,0.26458334,0,280.06666)"
         sodipodi:nodetypes="cccccc" />
      <path
         id="path535"
         style="fill:#cccccc;fill-opacity:1;stroke-width:1.59032;stroke-linecap:round;stroke-linejoin:round;stroke-miterlimit:1.5"
         d="m -185.28516,1.0039062 c -0.87855,0 -1.75735,0.3317662 -2.42187,0.9960938 -0.3378,0.3377943 -0.55325,0.724104 -0.68555,1.1328125 4.7814,1.0553833 1.91372,6.4404057 3.18946,9.4746095 l 1.92578,-1.919922 c 1.27656,0.616668 2.78438,0.641396 3.83789,-0.412109 1.32907,-1.3290712 1.32907,-3.5225298 0,-4.8515629 -0.66871,-0.6687118 -1.55148,-0.9924765 -2.43555,-0.9882812 0.004,-0.8840315 -0.31958,-1.7668351 -0.98828,-2.4355469 -0.66453,-0.6645165 -1.54332,-0.9960938 -2.42188,-0.9960938 z"
         transform="matrix(0.26458334,0,0,0.26458334,0,280.06666)" />
    </g>
  </g>
</svg>
