<?xml version="1.0" encoding="UTF-8" standalone="no"?>
<svg
   sodipodi:docname="13 - Egg And Bacon.svg"
   inkscape:version="1.1.1 (1:1.1+202109281949+c3084ef5ed)"
   id="svg831"
   version="1.1"
   viewBox="0 0 22.577778 22.577778"
   height="64pt"
   width="64pt"
   inkscape:export-filename="/media/taufikramadhan/Data/Tr Design Studio/Project Design/TR Creative Design/Icon Design/Project Hiring/Icon Icons/010 - Food/Send/3 - Flat/13 - Egg And Bacon.png"
   inkscape:export-xdpi="576"
   inkscape:export-ydpi="576"
   xmlns:inkscape="http://www.inkscape.org/namespaces/inkscape"
   xmlns:sodipodi="http://sodipodi.sourceforge.net/DTD/sodipodi-0.dtd"
   xmlns:xlink="http://www.w3.org/1999/xlink"
   xmlns="http://www.w3.org/2000/svg"
   xmlns:svg="http://www.w3.org/2000/svg"
   xmlns:rdf="http://www.w3.org/1999/02/22-rdf-syntax-ns#"
   xmlns:cc="http://creativecommons.org/ns#"
   xmlns:dc="http://purl.org/dc/elements/1.1/">
  <defs
     id="defs825">
    <pattern
       y="0"
       x="0"
       height="6"
       width="6"
       patternUnits="userSpaceOnUse"
       id="EMFhbasepattern" />
    <pattern
       y="0"
       x="0"
       height="6"
       width="6"
       patternUnits="userSpaceOnUse"
       id="EMFhbasepattern-9" />
    <pattern
       y="0"
       x="0"
       height="6"
       width="6"
       patternUnits="userSpaceOnUse"
       id="EMFhbasepattern-0" />
    <pattern
       y="0"
       x="0"
       height="6"
       width="6"
       patternUnits="userSpaceOnUse"
       id="EMFhbasepattern-7" />
    <pattern
       y="0"
       x="0"
       height="6"
       width="6"
       patternUnits="userSpaceOnUse"
       id="EMFhbasepattern-2" />
    <pattern
       y="0"
       x="0"
       height="6"
       width="6"
       patternUnits="userSpaceOnUse"
       id="EMFhbasepattern-98" />
    <pattern
       y="0"
       x="0"
       height="6"
       width="6"
       patternUnits="userSpaceOnUse"
       id="EMFhbasepattern-6" />
    <pattern
       y="0"
       x="0"
       height="6"
       width="6"
       patternUnits="userSpaceOnUse"
       id="EMFhbasepattern-01" />
    <pattern
       y="0"
       x="0"
       height="6"
       width="6"
       patternUnits="userSpaceOnUse"
       id="EMFhbasepattern-07" />
    <pattern
       y="0"
       x="0"
       height="6"
       width="6"
       patternUnits="userSpaceOnUse"
       id="EMFhbasepattern-8" />
    <pattern
       y="0"
       x="0"
       height="6"
       width="6"
       patternUnits="userSpaceOnUse"
       id="EMFhbasepattern-4" />
    <pattern
       y="0"
       x="0"
       height="6"
       width="6"
       patternUnits="userSpaceOnUse"
       id="EMFhbasepattern-40" />
    <pattern
       y="0"
       x="0"
       height="6"
       width="6"
       patternUnits="userSpaceOnUse"
       id="EMFhbasepattern-08" />
    <pattern
       y="0"
       x="0"
       height="6"
       width="6"
       patternUnits="userSpaceOnUse"
       id="EMFhbasepattern-04" />
    <pattern
       y="0"
       x="0"
       height="6"
       width="6"
       patternUnits="userSpaceOnUse"
       id="EMFhbasepattern-014" />
    <pattern
       y="0"
       x="0"
       height="6"
       width="6"
       patternUnits="userSpaceOnUse"
       id="EMFhbasepattern-27" />
    <pattern
       y="0"
       x="0"
       height="6"
       width="6"
       patternUnits="userSpaceOnUse"
       id="EMFhbasepattern-09" />
    <pattern
       y="0"
       x="0"
       height="6"
       width="6"
       patternUnits="userSpaceOnUse"
       id="EMFhbasepattern-5" />
    <pattern
       y="0"
       x="0"
       height="6"
       width="6"
       patternUnits="userSpaceOnUse"
       id="EMFhbasepattern-018" />
  </defs>
  <sodipodi:namedview
     inkscape:document-rotation="0"
     inkscape:snap-global="true"
     inkscape:snap-nodes="false"
     inkscape:bbox-nodes="true"
     inkscape:snap-bbox="true"
     showguides="false"
     inkscape:snap-midpoints="true"
     inkscape:snap-smooth-nodes="true"
     inkscape:snap-intersection-paths="true"
     inkscape:object-paths="true"
     inkscape:showpageshadow="false"
     inkscape:pagecheckerboard="true"
     inkscape:window-maximized="1"
     inkscape:window-y="31"
     inkscape:window-x="0"
     inkscape:window-height="705"
     inkscape:window-width="1366"
     units="pt"
     showgrid="false"
     inkscape:current-layer="layer1"
     inkscape:document-units="pt"
     inkscape:cy="42.732286"
     inkscape:cx="42.628314"
     inkscape:zoom="4.8090103"
     inkscape:pageshadow="2"
     inkscape:pageopacity="0.0"
     borderopacity="1.0"
     bordercolor="#666666"
     pagecolor="#ffffff"
     id="base">
    <inkscape:grid
       id="grid1378"
       type="xygrid" />
    <sodipodi:guide
       inkscape:locked="false"
       id="guide1380"
       orientation="78.000048,0"
       position="0.97013831,21.607643" />
    <sodipodi:guide
       inkscape:locked="false"
       id="guide1382"
       orientation="0,78.000005"
       position="0.97013831,0.97013129" />
    <sodipodi:guide
       inkscape:locked="false"
       id="guide1384"
       orientation="-78.000048,0"
       position="21.607639,0.97013129" />
    <sodipodi:guide
       inkscape:locked="false"
       id="guide1386"
       orientation="0,-78.000005"
       position="21.607639,21.607643" />
  </sodipodi:namedview>
  <metadata
     id="metadata828">
    <rdf:RDF>
      <cc:Work
         rdf:about="">
        <dc:format>image/svg+xml</dc:format>
        <dc:type
           rdf:resource="http://purl.org/dc/dcmitype/StillImage" />
      </cc:Work>
    </rdf:RDF>
  </metadata>
  <g
     transform="translate(0,-274.42223)"
     id="layer1"
     inkscape:groupmode="layer"
     inkscape:label="Icon">
    <g
       id="g72473"
       style="display:inline"
       transform="matrix(1.2580394,0,0,1.2580394,77.385081,-115.64878)">
      <g
         id="g71928">
        <path
           style="color:#000000;fill:#d0e2ee;stroke-width:0.529167;stroke-linecap:round;stroke-linejoin:round;stroke-miterlimit:1.5;-inkscape-stroke:none"
           d="m -44.601568,319.03619 a 7.9374604,7.9374604 0 0 1 -7.93746,7.93746 7.9374604,7.9374604 0 0 1 -7.937461,-7.93746 7.9374604,7.9374604 0 0 1 7.937461,-7.93746 7.9374604,7.9374604 0 0 1 7.93746,7.93746 z"
           id="path2382" />
        <path
           style="color:#000000;fill:#d0e2ee;stroke-linecap:round;stroke-linejoin:round;stroke-miterlimit:1.5;-inkscape-stroke:none"
           d="m -52.539062,311.36328 c 4.240742,0 7.673828,3.43309 7.673828,7.67383 0,4.24074 -3.433086,7.67187 -7.673828,7.67187 -4.240743,0 -7.671875,-3.43113 -7.671875,-7.67187 0,-4.24074 3.431132,-7.67383 7.671875,-7.67383 z"
           id="path3237" />
        <path
           style="color:#000000;fill:#d0e2ee;stroke-linecap:round;stroke-linejoin:round;stroke-miterlimit:1.5;-inkscape-stroke:none"
           d="m -52.539062,310.83398 c -4.526726,0 -8.201172,3.6764 -8.201172,8.20313 0,4.52672 3.674446,8.20117 8.201172,8.20117 4.526725,0 8.201171,-3.67445 8.201171,-8.20117 0,-4.52673 -3.674446,-8.20313 -8.201171,-8.20313 z"
           id="path2384" />
        <path
           id="path63839"
           style="color:#000000;fill:#a8c2e1;fill-opacity:1;stroke-width:1;stroke-linecap:round;stroke-linejoin:round;stroke-miterlimit:1.5;-inkscape-stroke:none"
           d="m -52.538914,310.83378 c -2.532592,0 -4.798155,1.15134 -6.302973,2.95795 1.42208,-1.1853 3.250507,-1.89962 5.24464,-1.89962 4.526727,0 8.201051,3.67638 8.201051,8.20311 0,1.9948 -0.714041,3.82391 -1.899626,5.2462 1.807038,-1.50481 2.95796,-3.77115 2.95796,-6.30453 0,-4.52673 -3.674325,-8.20311 -8.201052,-8.20311 z" />
        <path
           style="color:#000000;fill:#91a9d9;stroke-linecap:round;stroke-linejoin:round;stroke-miterlimit:1.5;-inkscape-stroke:none"
           d="m -46.484375,321.7168 a 0.2645835,0.2645835 0 0 0 -0.355469,0.12109 c -1.034984,2.10154 -3.195667,3.54883 -5.699218,3.54883 a 0.2645835,0.2645835 0 0 0 -0.263672,0.26367 0.2645835,0.2645835 0 0 0 0.263672,0.26563 c 2.707524,0 5.054187,-1.56636 6.175781,-3.84375 a 0.2645835,0.2645835 0 0 0 -0.121094,-0.35547 z"
           id="path3119" />
        <path
           style="color:#000000;fill:#91a9d9;stroke-linecap:round;stroke-linejoin:round;stroke-miterlimit:1.5;-inkscape-stroke:none"
           d="m -58.261719,315.70703 a 0.2645835,0.2645835 0 0 0 -0.357422,0.10938 c -0.509615,0.96063 -0.798829,2.05858 -0.798828,3.2207 2e-6,1.78724 0.682008,3.41744 1.800782,4.64062 a 0.2645835,0.2645835 0 0 0 0.375,0.0176 0.2645835,0.2645835 0 0 0 0.01563,-0.375 c -1.033209,-1.12963 -1.662108,-2.6306 -1.66211,-4.2832 -1e-6,-1.07457 0.266015,-2.08611 0.736328,-2.97266 a 0.2645835,0.2645835 0 0 0 -0.109375,-0.35742 z"
           id="path3117" />
        <path
           style="color:#000000;fill:#91a9d9;stroke-linecap:round;stroke-linejoin:round;stroke-miterlimit:1.5;-inkscape-stroke:none"
           d="m -52.083984,312.17187 a 0.2645835,0.2645835 0 0 0 -0.28125,0.2461 0.2645835,0.2645835 0 0 0 0.246093,0.28125 c 3.146088,0.20564 5.665166,2.70101 5.910157,5.83594 a 0.2645835,0.2645835 0 0 0 0.285156,0.24218 0.2645835,0.2645835 0 0 0 0.242187,-0.28515 c -0.265259,-3.39429 -2.996518,-6.0977 -6.402343,-6.32032 z"
           id="circle24886" />
      </g>
      <g
         id="g71919">
        <path
           style="color:#000000;fill:#f9a19f;stroke-linecap:round;stroke-linejoin:round;stroke-miterlimit:1.5;-inkscape-stroke:none"
           d="m -47.185547,318.94727 -1.193359,0.26562 c -0.628455,0.14013 -1.210337,0.47905 -1.644531,0.95703 l -0.431641,0.47656 c -0.35919,0.39541 -0.848467,0.67927 -1.367188,0.79493 l -0.626953,0.13867 c -0.628455,0.14013 -1.208383,0.47904 -1.642578,0.95703 l -0.826172,0.9082 c -0.208924,0.22998 -0.246221,0.57224 -0.0918,0.8418 l 0.660157,1.15234 c 0.166168,0.2902 0.587421,0.33755 0.8125,0.0898 l 0.826172,-0.91016 c 0.359188,-0.39541 0.848459,-0.67925 1.367187,-0.79492 l 0.625,-0.14063 c 0.628457,-0.14012 1.210336,-0.47709 1.644531,-0.95507 l 0.431641,-0.47657 c 0.359189,-0.39541 0.848466,-0.67927 1.367187,-0.79492 l 1.195313,-0.26758 c 0.327356,-0.073 0.49435,-0.45788 0.328125,-0.74804 l -0.660156,-1.15235 c -0.154413,-0.26955 -0.47006,-0.40944 -0.773438,-0.34179 z"
           id="path2410" />
        <path
           style="color:#000000;fill:#f9a19f;stroke-linecap:round;stroke-linejoin:round;stroke-miterlimit:1.5;-inkscape-stroke:none"
           sodipodi:type="inkscape:offset"
           inkscape:radius="0"
           inkscape:original="M -48.998047 318.31836 L -50.181641 318.58008 C -50.803598 318.71768 -51.378455 319.0497 -51.808594 319.51953 L -52.236328 319.98828 C -52.591088 320.37577 -53.074933 320.6541 -53.587891 320.76758 L -54.207031 320.9043 C -54.828982 321.0419 -55.403843 321.37391 -55.833984 321.84375 L -56.650391 322.73633 C -56.858278 322.96339 -56.896116 323.30175 -56.742188 323.56836 L -56.087891 324.70117 C -55.921743 324.98904 -55.505718 325.03418 -55.28125 324.78906 L -54.464844 323.89648 C -54.110084 323.50899 -53.626239 323.22872 -53.113281 323.11523 L -52.494141 322.97852 C -51.872184 322.84092 -51.297327 322.50889 -50.867188 322.03906 L -50.439453 321.57227 C -50.084693 321.18477 -49.600845 320.90449 -49.087891 320.79102 L -47.90625 320.53125 C -47.581707 320.45945 -47.413877 320.07496 -47.580078 319.78711 L -48.232422 318.65625 C -48.386346 318.38964 -48.697464 318.25186 -48.998047 318.31836 z "
           xlink:href="#path2416"
           id="path46174"
           inkscape:href="#path2416"
           d="m -48.998047,318.31836 -1.183594,0.26172 c -0.621957,0.1376 -1.196814,0.46962 -1.626953,0.93945 l -0.427734,0.46875 c -0.35476,0.38749 -0.838605,0.66582 -1.351563,0.7793 l -0.61914,0.13672 c -0.621951,0.1376 -1.196812,0.46961 -1.626953,0.93945 l -0.816407,0.89258 c -0.207887,0.22706 -0.245725,0.56542 -0.0918,0.83203 l 0.654297,1.13281 c 0.166148,0.28787 0.582173,0.33301 0.806641,0.0879 l 0.816406,-0.89258 c 0.35476,-0.38749 0.838605,-0.66776 1.351563,-0.78125 l 0.61914,-0.13671 c 0.621957,-0.1376 1.196814,-0.46963 1.626953,-0.93946 l 0.427735,-0.46679 c 0.35476,-0.3875 0.838608,-0.66778 1.351562,-0.78125 l 1.181641,-0.25977 c 0.324543,-0.0718 0.492373,-0.45629 0.326172,-0.74414 l -0.652344,-1.13086 c -0.153924,-0.26661 -0.465042,-0.40439 -0.765625,-0.33789 z" />
        <path
           id="path46195"
           style="fill:#f0517a;fill-opacity:1;stroke-width:3.77953;stroke-linecap:round;stroke-linejoin:round;stroke-miterlimit:1.5"
           d="m -178.91016,147.07812 -3.93945,0.87696 c -2.37526,0.52962 -4.57379,1.81065 -6.21484,3.61719 l -1.63282,1.80078 c -1.35756,1.49446 -3.20549,2.56676 -5.16601,3.0039 l -2.36914,0.52344 c -2.37526,0.52963 -4.56793,1.81061 -6.20899,3.61719 l -3.12304,3.43359 c -0.78964,0.86922 -0.92934,2.16283 -0.34571,3.18164 l 1.48243,2.58985 2.28906,-2.50196 c 1.00801,-1.10101 2.44528,-1.93628 3.89844,-2.25781 v 0.006 l 2.33984,-0.51563 a 2.3174388,2.3174388 0 0 0 0,-0.002 2.3174388,2.3174388 0 0 0 0,-0.002 2.3174388,2.3174388 0 0 0 0,-0.002 2.3174388,2.3174388 0 0 0 0,-0.002 c 2.82242,-0.62441 5.39913,-2.11332 7.35156,-4.24414 l 1.61719,-1.76367 a 2.3174388,2.3174388 0 0 0 0.008,0 c 1.00576,-1.0986 2.43894,-1.92895 3.88867,-2.25195 l 4.4668,-0.98243 a 2.3174388,2.3174388 0 0 0 0.008,-0.008 c 2.76567,-0.61187 4.151,-3.78375 2.73828,-6.23047 z"
           transform="matrix(0.26458334,0,0,0.26458334,0,280.06666)" />
        <path
           style="color:#000000;fill:#f9a19f;stroke-linecap:round;stroke-linejoin:round;stroke-miterlimit:1.5;-inkscape-stroke:none"
           d="m -48.998047,318.31836 -1.183594,0.26172 c -0.621957,0.1376 -1.196814,0.46962 -1.626953,0.93945 l -0.427734,0.46875 c -0.35476,0.38749 -0.838605,0.66582 -1.351563,0.7793 l -0.61914,0.13672 c -0.621951,0.1376 -1.196812,0.46961 -1.626953,0.93945 l -0.816407,0.89258 c -0.207887,0.22706 -0.245729,0.56542 -0.0918,0.83203 l 0.654296,1.13281 c 0.166148,0.28787 0.582173,0.33302 0.806641,0.0879 l 0.816406,-0.89258 c 0.35476,-0.38749 0.838605,-0.66776 1.351563,-0.78125 l 0.61914,-0.13671 c 0.621957,-0.1376 1.196814,-0.46963 1.626954,-0.93946 l 0.427734,-0.46679 c 0.35476,-0.3875 0.838608,-0.66778 1.351562,-0.78125 l 1.181641,-0.25977 c 0.324543,-0.0718 0.492373,-0.45629 0.326172,-0.74414 l -0.652344,-1.13086 c -0.153924,-0.26661 -0.465042,-0.40439 -0.765625,-0.33789 z"
           id="path2416" />
        <path
           id="path30531"
           style="color:#000000;fill:#dc1c4b;stroke-width:3.77953;stroke-linecap:round;stroke-linejoin:round;stroke-miterlimit:1.5;-inkscape-stroke:none"
           d="m -181.58984,147.07422 -6.26368,1.70703 c -2.26123,0.61516 -4.46181,1.73984 -6.10546,3.53516 l -1.61719,1.76562 a 1.0001006,1.0001006 0 0 0 -0.0137,0.0137 c -1.8311,2.07024 -4.42734,2.4951 -7.52344,3.47657 -2.31612,0.53192 -4.45559,1.77624 -6.06055,3.52929 l 0.0371,-0.0449 -4.64062,4.54102 1.0332,1.78906 5.00976,-4.89649 a 1.0001006,1.0001006 0 0 0 0.0371,-0.0391 c 1.34082,-1.46453 3.16283,-2.52422 5.10157,-2.95312 a 1.0001006,1.0001006 0 0 0 0.0879,-0.0215 c 2.91455,-0.92394 6.05219,-1.40057 8.40039,-4.04492 l 1.625,-1.76562 c 1.32288,-1.44496 3.17447,-2.42094 5.15234,-2.95899 l 6.77149,-1.8457 z"
           transform="matrix(0.26458334,0,0,0.26458334,0,280.06666)" />
      </g>
      <g
         id="g71912">
        <path
           style="color:#000000;fill:#f6fbfe;stroke-linecap:round;stroke-linejoin:round;stroke-miterlimit:1.5;-inkscape-stroke:none"
           d="m -54.289062,312.61719 c -0.541387,0.0166 -1.079452,0.14575 -1.564454,0.39062 -0.485025,0.24488 -0.916402,0.60674 -1.236328,1.08399 a 0.26460996,0.26460996 0 0 0 -0.0098,0.0156 c -0.550234,0.95266 -0.655439,1.59537 -0.636719,2.13672 0.01872,0.54135 0.132778,0.93963 0.01953,1.5625 -0.101012,0.54103 -0.12965,0.94379 -0.03125,1.3125 0.0984,0.36871 0.322766,0.66664 0.650391,0.99414 a 0.26460996,0.26460996 0 0 0 0.0098,0.01 c 0,0 0.986776,0.85694 2.375,0.38867 0.713084,-0.24053 1.255243,-0.7913 1.796875,-1.26563 0.541633,-0.47432 1.066056,-0.86711 1.701172,-0.92187 0.875619,-0.0755 1.485485,-0.23768 1.902344,-0.5586 0.416859,-0.32091 0.587891,-0.80456 0.587891,-1.35156 0,-0.75167 -0.07184,-1.27518 -0.357422,-1.66992 -0.285577,-0.39473 -0.744784,-0.59082 -1.382813,-0.76172 -0.634574,-0.16996 -1.040932,-0.49922 -1.578125,-0.8125 -0.537192,-0.31327 -1.201894,-0.58504 -2.246093,-0.55273 z"
           id="path2390" />
        <path
           style="color:#000000;fill:#fca311;stroke-linecap:round;stroke-linejoin:round;stroke-miterlimit:1.5;-inkscape-stroke:none"
           d="m -54.314453,313.68555 c -1.247005,0 -2.263672,1.01503 -2.263672,2.26172 0,1.24668 1.016667,2.26367 2.263672,2.26367 1.247005,0 2.263672,-1.01699 2.263672,-2.26367 0,-1.24669 -1.016667,-2.26172 -2.263672,-2.26172 z"
           id="path2400" />
        <path
           style="color:#000000;fill:#ec7523;stroke-linecap:round;stroke-linejoin:round;stroke-miterlimit:1.5;-inkscape-stroke:none"
           d="m -53.164062,315.72461 a 0.2645835,0.2645835 0 0 0 -0.263672,0.26367 c 10e-7,0.46449 -0.371456,0.83594 -0.835938,0.83594 a 0.2645835,0.2645835 0 0 0 -0.263672,0.26562 0.2645835,0.2645835 0 0 0 0.263672,0.26368 c 0.750463,0 1.365237,-0.61477 1.365235,-1.36524 a 0.2645835,0.2645835 0 0 0 -0.265625,-0.26367 z"
           id="circle25186" />
        <path
           style="color:#000000;fill:#e2f0fa;stroke-linecap:round;stroke-linejoin:round;stroke-miterlimit:1.5;-inkscape-stroke:none"
           d="m -49.794922,316.33008 a 0.2645835,0.2645835 0 0 0 -0.164062,0.11914 c -0.22358,0.36599 -0.957032,0.50195 -0.957032,0.50195 a 0.2645835,0.2645835 0 0 0 -0.230468,0.29492 0.2645835,0.2645835 0 0 0 0.294922,0.23047 c 0,0 0.924562,-0.0638 1.34375,-0.75 a 0.2645835,0.2645835 0 0 0 -0.08789,-0.36523 0.2645835,0.2645835 0 0 0 -0.199219,-0.0312 z"
           id="path32808" />
        <path
           id="path8728"
           style="color:#000000;fill:#ec7523;fill-opacity:1;stroke-width:1;stroke-linecap:round;stroke-linejoin:round;stroke-miterlimit:1.5;-inkscape-stroke:none"
           d="m -54.314515,313.6858 c -0.758153,0 -1.43111,0.37496 -1.842264,0.94929 0.370681,-0.26478 0.824243,-0.42013 1.313098,-0.42013 1.247005,0 2.263944,1.01468 2.263944,2.26137 0,0.48883 -0.156461,0.94235 -0.42168,1.31309 0.574755,-0.41123 0.950847,-1.08441 0.950847,-1.84226 0,-1.24669 -1.016939,-2.26136 -2.263945,-2.26136 z" />
        <path
           id="path21794"
           style="color:#000000;fill:#e2f0fa;fill-opacity:1;stroke-width:1;stroke-linecap:round;stroke-linejoin:round;stroke-miterlimit:1.5;-inkscape-stroke:none"
           d="m -55.85344,313.00785 c -0.41684,0.21046 -0.794123,0.50762 -1.095023,0.88987 0.176977,-0.13978 0.366816,-0.26021 0.565857,-0.3607 1.229997,-0.54139 2.63372,-0.51329 3.810619,0.16228 0.537194,0.31328 0.943626,0.64239 1.5782,0.81235 0.638029,0.1709 1.096766,0.36698 1.382344,0.76171 0.285581,0.39474 0.357601,0.91851 0.357601,1.67018 0,0.34522 -0.0682,0.66506 -0.223242,0.93483 0.05791,-0.0351 0.112519,-0.0728 0.16433,-0.11265 0.416859,-0.32091 0.588078,-0.80434 0.588078,-1.35134 0,-0.75167 -0.07202,-1.27545 -0.3576,-1.67019 -0.285578,-0.39473 -0.744315,-0.59081 -1.382345,-0.76171 -0.634574,-0.16996 -1.041005,-0.49907 -1.5782,-0.81235 -1.244597,-0.59422 -2.498979,-0.80996 -3.810619,-0.16228 z"
           sodipodi:nodetypes="ccccssscsssscc" />
      </g>
    </g>
  </g>
</svg>
