<?xml version="1.0" encoding="UTF-8" standalone="no"?>
<svg
   sodipodi:docname="11 - Nachos.svg"
   inkscape:version="1.1.1 (1:1.1+202109281949+c3084ef5ed)"
   id="svg831"
   version="1.1"
   viewBox="0 0 22.577778 22.577778"
   height="64pt"
   width="64pt"
   inkscape:export-filename="/media/taufikramadhan/Data/Tr Design Studio/Project Design/TR Creative Design/Icon Design/Project Hiring/Icon Icons/010 - Food/Send/2 - Solid/11 - Nachos.png"
   inkscape:export-xdpi="576"
   inkscape:export-ydpi="576"
   xmlns:inkscape="http://www.inkscape.org/namespaces/inkscape"
   xmlns:sodipodi="http://sodipodi.sourceforge.net/DTD/sodipodi-0.dtd"
   xmlns="http://www.w3.org/2000/svg"
   xmlns:svg="http://www.w3.org/2000/svg"
   xmlns:rdf="http://www.w3.org/1999/02/22-rdf-syntax-ns#"
   xmlns:cc="http://creativecommons.org/ns#"
   xmlns:dc="http://purl.org/dc/elements/1.1/">
  <defs
     id="defs825">
    <pattern
       y="0"
       x="0"
       height="6"
       width="6"
       patternUnits="userSpaceOnUse"
       id="EMFhbasepattern" />
    <pattern
       y="0"
       x="0"
       height="6"
       width="6"
       patternUnits="userSpaceOnUse"
       id="EMFhbasepattern-9" />
    <pattern
       y="0"
       x="0"
       height="6"
       width="6"
       patternUnits="userSpaceOnUse"
       id="EMFhbasepattern-0" />
    <pattern
       y="0"
       x="0"
       height="6"
       width="6"
       patternUnits="userSpaceOnUse"
       id="EMFhbasepattern-7" />
    <pattern
       y="0"
       x="0"
       height="6"
       width="6"
       patternUnits="userSpaceOnUse"
       id="EMFhbasepattern-2" />
    <pattern
       y="0"
       x="0"
       height="6"
       width="6"
       patternUnits="userSpaceOnUse"
       id="EMFhbasepattern-98" />
    <pattern
       y="0"
       x="0"
       height="6"
       width="6"
       patternUnits="userSpaceOnUse"
       id="EMFhbasepattern-6" />
    <pattern
       y="0"
       x="0"
       height="6"
       width="6"
       patternUnits="userSpaceOnUse"
       id="EMFhbasepattern-01" />
    <pattern
       y="0"
       x="0"
       height="6"
       width="6"
       patternUnits="userSpaceOnUse"
       id="EMFhbasepattern-07" />
    <pattern
       y="0"
       x="0"
       height="6"
       width="6"
       patternUnits="userSpaceOnUse"
       id="EMFhbasepattern-8" />
    <pattern
       y="0"
       x="0"
       height="6"
       width="6"
       patternUnits="userSpaceOnUse"
       id="EMFhbasepattern-4" />
    <pattern
       y="0"
       x="0"
       height="6"
       width="6"
       patternUnits="userSpaceOnUse"
       id="EMFhbasepattern-40" />
    <pattern
       y="0"
       x="0"
       height="6"
       width="6"
       patternUnits="userSpaceOnUse"
       id="EMFhbasepattern-08" />
    <pattern
       y="0"
       x="0"
       height="6"
       width="6"
       patternUnits="userSpaceOnUse"
       id="EMFhbasepattern-04" />
    <pattern
       y="0"
       x="0"
       height="6"
       width="6"
       patternUnits="userSpaceOnUse"
       id="EMFhbasepattern-014" />
    <pattern
       y="0"
       x="0"
       height="6"
       width="6"
       patternUnits="userSpaceOnUse"
       id="EMFhbasepattern-27" />
    <pattern
       y="0"
       x="0"
       height="6"
       width="6"
       patternUnits="userSpaceOnUse"
       id="EMFhbasepattern-09" />
    <pattern
       y="0"
       x="0"
       height="6"
       width="6"
       patternUnits="userSpaceOnUse"
       id="EMFhbasepattern-5" />
    <pattern
       y="0"
       x="0"
       height="6"
       width="6"
       patternUnits="userSpaceOnUse"
       id="EMFhbasepattern-018" />
  </defs>
  <sodipodi:namedview
     inkscape:document-rotation="0"
     inkscape:snap-global="true"
     inkscape:snap-nodes="false"
     inkscape:bbox-nodes="true"
     inkscape:snap-bbox="true"
     showguides="true"
     inkscape:snap-midpoints="true"
     inkscape:snap-smooth-nodes="true"
     inkscape:snap-intersection-paths="true"
     inkscape:object-paths="true"
     inkscape:showpageshadow="false"
     inkscape:pagecheckerboard="true"
     inkscape:window-maximized="1"
     inkscape:window-y="31"
     inkscape:window-x="0"
     inkscape:window-height="705"
     inkscape:window-width="1366"
     units="pt"
     showgrid="false"
     inkscape:current-layer="layer1"
     inkscape:document-units="pt"
     inkscape:cy="42.666666"
     inkscape:cx="33.309188"
     inkscape:zoom="5.8242188"
     inkscape:pageshadow="2"
     inkscape:pageopacity="0.0"
     borderopacity="1.0"
     bordercolor="#666666"
     pagecolor="#ffffff"
     id="base">
    <inkscape:grid
       id="grid1378"
       type="xygrid" />
    <sodipodi:guide
       inkscape:locked="false"
       id="guide1380"
       orientation="78.000048,0"
       position="0.97013831,21.607643" />
    <sodipodi:guide
       inkscape:locked="false"
       id="guide1382"
       orientation="0,78.000005"
       position="0.97013831,0.97013129" />
    <sodipodi:guide
       inkscape:locked="false"
       id="guide1384"
       orientation="-78.000048,0"
       position="21.607639,0.97013129" />
    <sodipodi:guide
       inkscape:locked="false"
       id="guide1386"
       orientation="0,-78.000005"
       position="21.607639,21.607643" />
  </sodipodi:namedview>
  <metadata
     id="metadata828">
    <rdf:RDF>
      <cc:Work
         rdf:about="">
        <dc:format>image/svg+xml</dc:format>
        <dc:type
           rdf:resource="http://purl.org/dc/dcmitype/StillImage" />
      </cc:Work>
    </rdf:RDF>
  </metadata>
  <g
     transform="translate(0,-274.42223)"
     id="layer1"
     inkscape:groupmode="layer"
     inkscape:label="Icon">
    <g
       id="g175690"
       style="display:inline"
       transform="matrix(1.2429902,0,0,1.2429902,-75.063984,-72.933207)">
      <g
         id="g173625">
        <g
           id="g149364"
           transform="translate(0,10.583333)">
          <path
             style="color:#000000;fill:#fed883;stroke-linecap:round;stroke-linejoin:round;-inkscape-stroke:none"
             d="m 77.73828,273.16475 c 0.126112,-0.48676 -0.335581,-0.94873 -0.822265,-0.82422 l -3.507812,0.8984 c -0.143953,0.0359 -0.230315,0.18301 -0.191406,0.32617 l 0.349609,1.29883 c 0.01337,0.0515 0.04195,0.0978 0.08203,0.13281 l 0.824219,0.70898 c 0.09849,0.0851 0.244276,0.086 0.34375,0.002 l 0.46875,-0.39844 0.460938,0.10937 0.478515,2.04102 c 0.06537,0.26819 0.446219,0.26967 0.513672,0.002 z"
             id="path110829"
             sodipodi:nodetypes="ccccccccccccc" />
          <path
             id="path131244"
             style="fill:#ec7523;fill-opacity:1;stroke-width:3.77953;stroke-linecap:round;stroke-linejoin:round"
             d="m 280.5625,-26.603516 -3.11328,0.798828 a 1.0001006,1.0001006 0 0 0 -0.72461,1.232422 l 1.32227,4.908204 a 1.0001006,1.0001006 0 0 0 0.30859,0.501953 l 2.33984,2.013671 c 1.21129,-0.719046 1.84706,-2.295903 1.47071,-3.654296 z"
             transform="matrix(0.26458334,0,0,0.26458334,0,280.06666)" />
          <path
             id="path133947"
             style="fill:#ec7523;fill-opacity:1;stroke-width:3.77953;stroke-linecap:round;stroke-linejoin:round"
             d="m 280.45703,-23.728516 c -0.75776,4.77e-4 -1.5263,0.190677 -2.24805,0.59961 l -0.95117,0.537109 0.78907,2.927735 a 1.0001006,1.0001006 0 0 0 0.30859,0.501953 l 3.11523,2.679687 a 1.0001006,1.0001006 0 0 0 1.30078,0.0078 l 1.77149,-1.50586 0.76562,0.181641 -0.0137,-1.240234 v -0.0078 c -0.0265,-2.652057 -2.27026,-4.605344 -4.6875,-4.679687 -0.0504,-0.0017 -0.0999,-0.002 -0.15039,-0.002 z"
             transform="matrix(0.26458334,0,0,0.26458334,0,280.06666)" />
          <path
             style="color:#000000;fill:#fed883;stroke-linecap:round;stroke-linejoin:round;-inkscape-stroke:none"
             d="m 68.796875,270.17252 c -0.227685,0 -0.456319,0.10719 -0.583984,0.32422 l -1.779297,3.02539 a 0.26460996,0.26460996 0 0 0 0.09766,0.36523 l 2.070312,1.16602 a 0.26460996,0.26460996 0 0 0 0.169922,0.0312 l 1.136715,-0.16792 a 0.26460996,0.26460996 0 0 0 0.146484,-0.0723 l 1.046875,-1.01953 a 0.26460996,0.26460996 0 0 0 0.04297,-0.32422 l -1.765625,-3.0039 c -0.127665,-0.21703 -0.354346,-0.32422 -0.582031,-0.32422 z"
             id="path110805" />
          <path
             id="path127134"
             style="fill:#ec7523;fill-opacity:1;stroke-width:1;stroke-linecap:round;stroke-linejoin:round"
             d="m 70.672692,272.6976 -1.387515,1.35909 c -0.250846,0.24652 -0.314987,0.66124 -0.158647,0.97514 l 0.781865,-0.11524 a 0.26460996,0.26460996 0 0 0 0.146246,-0.0723 l 1.046964,-1.01958 a 0.26460996,0.26460996 0 0 0 0.04289,-0.32401 z" />
          <path
             style="color:#000000;fill:#fed883;stroke-linecap:round;stroke-linejoin:round;-inkscape-stroke:none"
             d="m 72.271484,271.93228 -2.585937,2.53321 c -0.08641,0.0849 -0.104107,0.21767 -0.04297,0.32226 l 1.048828,1.78711 c 0.07333,0.12374 0.232073,0.16625 0.357422,0.0957 l 2.914063,-1.64844 c 0.105002,-0.0603 0.155679,-0.18418 0.123046,-0.30078 l -0.6875,-2.48633 c -0.135389,-0.48849 -0.736834,-0.67059 -1.126952,-0.30273 z"
             id="path110811"
             sodipodi:nodetypes="ccccccccc" />
          <path
             id="path134068"
             style="color:#000000;fill:#ec7523;fill-opacity:1;stroke-width:1;stroke-linecap:round;stroke-linejoin:round;-inkscape-stroke:none"
             d="m 73.843557,273.84482 c -0.07936,0.0253 -0.157711,0.059 -0.234096,0.10232 l -3.105753,1.75803 c -0.0833,0.0473 -0.154998,0.11026 -0.214974,0.18345 l 0.402561,0.68627 a 0.26460996,0.26460996 0 0 0 0.3576,0.0956 l 2.914034,-1.64848 a 0.26460996,0.26460996 0 0 0 0.122991,-0.30076 z" />
          <path
             id="path124504"
             style="fill:#ec7523;fill-opacity:1;stroke-width:3.77953;stroke-linecap:round;stroke-linejoin:round"
             d="m 252.62109,-27.341797 -1.5332,2.607422 a 1.0001006,1.0001006 0 0 0 0.36914,1.378906 l 7.82422,4.408203 a 1.0001006,1.0001006 0 0 0 0.64258,0.117188 l 2.82226,-0.417969 c 0.19613,-1.237835 -0.38564,-2.614149 -1.49414,-3.230469 z"
             transform="matrix(0.26458334,0,0,0.26458334,0,280.06666)" />
          <path
             style="color:#000000;fill:#fed883;stroke-linecap:round;stroke-linejoin:round;-inkscape-stroke:none"
             d="m 66.085986,275.1354 c 0.085,-0.14722 0.205056,-0.0812 0.251954,0 l 1.019531,1.76758 c 0.101361,0.17538 0.354139,0.17649 0.457031,0.002 l 1.146484,-1.94726 c 0.07522,-0.12812 0.03024,-0.29305 -0.09961,-0.36524 l -4.166064,-2.3457 c -0.438132,-0.24822 -1.050581,0.0785 -1.054685,0.58203 v 5.49023 c -0.0018,0.26998 0.354447,0.36892 0.492187,0.13672 z"
             id="path110799"
             sodipodi:nodetypes="ccccccccccc" />
          <path
             id="path140371"
             style="fill:#ec7523;fill-opacity:1;stroke-width:3.77953;stroke-linecap:round;stroke-linejoin:round"
             d="m 282.87305,-21.511721 -2.56055,2.16211 c -0.36498,0.314618 -0.63862,0.729417 -0.79883,1.183593 l 1.95703,1.683594 c 0.37245,0.322743 0.92449,0.326053 1.30078,0.0078 l 1.77149,-1.50586 1.74219,0.414063 1.80859,7.7128904 c 0.24697,1.0135876 1.6863,1.0193778 1.94141,0.00781 0.33429,-1.3985224 0.64961,-2.7932834 0.95898,-4.1855474 l -1.17383,-5.007812 c -0.405,-1.533695 -1.51573,-2.634025 -2.71679,-3.115235 -1.59116,-0.541321 -3.12061,-0.393655 -4.23047,0.642594 z"
             transform="matrix(0.26458334,0,0,0.26458334,0,280.06666)"
             sodipodi:nodetypes="ccccccccccccc" />
          <path
             style="color:#000000;fill:#fed883;stroke-linecap:round;stroke-linejoin:round;-inkscape-stroke:none"
             d="m 74.472616,275.30352 c -0.05954,0.0513 -0.09318,0.12648 -0.0918,0.20508 l 0.03906,3.60156 c 0.0016,0.14465 0.119019,0.26122 0.263672,0.26172 h 2.199218 c 0.170215,0 0.296158,-0.15838 0.257813,-0.32422 -0.302116,-1.28117 -0.621817,-2.66939 -0.914016,-3.89456 -0.139646,-0.47349 -0.667365,-0.73748 -1.089844,-0.41218 z"
             id="path110835"
             sodipodi:nodetypes="ccccccccc" />
          <path
             id="path137417"
             style="fill:#ec7523;fill-opacity:1;stroke-width:1;stroke-linecap:round;stroke-linejoin:round"
             d="m 74.472444,275.30351 c -0.05944,0.0514 -0.09296,0.12658 -0.09147,0.20516 l 0.03876,3.60133 c 0.0014,0.14471 0.118837,0.26143 0.263551,0.262 h 0.797367 c 0.03219,-0.0875 0.04963,-0.18005 0.04857,-0.2744 l -0.04496,-4.06849 v -0.002 c -0.0016,-0.14757 -0.02918,-0.28664 -0.07752,-0.41496 l 2.6e-5,6e-5 c -0.09504,0.0205 -0.187706,0.0623 -0.270267,0.12868 z"
             sodipodi:nodetypes="cccccccccccc" />
          <path
             style="color:#000000;fill:#fed883;stroke-linecap:round;stroke-linejoin:round;-inkscape-stroke:none"
             d="m 73.894531,274.45182 -3.105469,1.75781 a 0.26460996,0.26460996 0 0 0 -0.09766,0.36523 l 1.56836,2.66797 a 0.26460996,0.26460996 0 0 0 0.228515,0.12891 h 2.195313 a 0.26460996,0.26460996 0 0 0 0.265625,-0.26758 l -0.04492,-4.07031 c -0.0042,-0.50353 -0.571641,-0.83026 -1.009766,-0.58203 z"
             id="path110823" />
          <path
             id="path113304"
             style="fill:#ec7523;fill-opacity:1;stroke-width:3.77953;stroke-linecap:round;stroke-linejoin:round"
             d="m 270.26172,-16.113281 -2.71289,1.535156 a 1.0001006,1.0001006 0 0 0 -0.36914,1.380859 l 5.92773,10.0839848 a 1.0001006,1.0001006 0 0 0 0.86328,0.4863281 h 2.9668 c 0.27646,-0.8465851 0.18789,-1.8137129 -0.26367,-2.5839844 a 2.1347551,2.1347551 0 0 0 0,-0.00195 2.1347551,2.1347551 0 0 0 0,-0.00195 2.1347551,2.1347551 0 0 0 0,-0.00195 z"
             transform="matrix(0.26458334,0,0,0.26458334,0,280.06666)" />
          <path
             id="path122286"
             style="fill:#ec7523;fill-opacity:1;stroke-width:3.77953;stroke-linecap:round;stroke-linejoin:round"
             d="m 240.5315,-21.435547 -2.5e-4,14.8300782 c 0.002,0.045223 0.007,0.090249 0.0156,0.1347657 0.4446,0.3905748 1.13458,0.2818271 1.4375,-0.2265625 l 2.58593,-4.4003904 0.0527,-6.654297 c 0.0219,-1.492989 -1.06965,-2.928714 -2.51367,-3.308594 z"
             transform="matrix(0.26458334,0,0,0.26458334,0,280.06666)"
             sodipodi:nodetypes="cccccccc" />
          <path
             style="color:#000000;fill:#fed883;stroke-linecap:round;stroke-linejoin:round;-inkscape-stroke:none"
             d="m 62.015625,274.58463 c -0.487453,-0.12635 -0.950595,0.33675 -0.824219,0.82422 l 0.976563,3.76562 a 0.26460996,0.26460996 0 0 0 0.261718,0.19727 l 1.029297,-0.0195 a 0.26460996,0.26460996 0 0 0 0.222657,-0.13086 l 0.451171,-0.76563 a 0.26460996,0.26460996 0 0 0 0.03711,-0.13281 l 0.02344,-2.9668 a 0.26460996,0.26460996 0 0 0 -0.197265,-0.25976 z"
             id="path110793" />
          <path
             id="path120478"
             style="color:#000000;fill:#ec7523;fill-opacity:1;stroke-width:1;stroke-linecap:round;stroke-linejoin:round;-inkscape-stroke:none"
             d="m 66.085941,275.13525 c 0.08377,-0.1451 0.23386,-0.0684 0.252179,0 l 1.019577,1.76785 c 0.101406,0.17514 0.353883,0.17624 0.456819,0.002 l 0.40566,-0.68885 -0.944645,-1.63039 c -0.233569,-0.39705 -0.658958,-0.59945 -1.064558,-0.59945 -0.405601,0 -0.830183,0.20454 -1.062493,0.59945 l -1.4981,2.54816 -0.0098,1.18494 c -0.0025,0.27066 0.354895,0.37005 0.492477,0.13695 z"
             sodipodi:nodetypes="cccccccccccc" />
          <path
             id="path117839"
             style="fill:#ec7523;fill-opacity:1;stroke-width:3.77953;stroke-linecap:round;stroke-linejoin:round"
             d="m 262.10938,-25.376953 c -1.54267,0 -3.15526,0.778774 -4.03907,2.28125 l -1.53125,2.603515 2.74219,1.544922 a 1.0001006,1.0001006 0 0 0 0.64258,0.117188 l 4.29687,-0.634766 a 1.0001006,1.0001006 0 0 0 0.55274,-0.273437 l 2.13281,-2.078125 -0.75195,-1.279297 c -0.88863,-1.510677 -2.50226,-2.28125 -4.04492,-2.28125 z"
             transform="matrix(0.26458334,0,0,0.26458334,0,280.06666)" />
          <path
             id="path121694"
             style="fill:#ec7523;fill-opacity:1;stroke-width:1;stroke-linecap:round;stroke-linejoin:round"
             d="m 64.186781,276.22193 -1.440738,2.44998 c -0.121738,0.20764 -0.142643,0.469 -0.06253,0.69505 l 0.775663,-0.0145 a 0.26460996,0.26460996 0 0 0 0.22221,-0.13126 l 0.451652,-0.76532 a 0.26460996,0.26460996 0 0 0 0.03669,-0.13281 z" />
          <path
             id="path117844"
             style="fill:#ec7523;fill-opacity:1;stroke-width:3.77953;stroke-linecap:round;stroke-linejoin:round"
             d="m 257.55273,-22.216797 -4.48828,7.630859 1.51563,2.628907 a 1.0001006,1.0001006 0 0 0 1.72656,0.0078 l 4.33398,-7.359375 a 1.0001006,1.0001006 0 0 0 -0.37695,-1.380859 z"
             transform="matrix(0.26458334,0,0,0.26458334,0,280.06666)" />
          <path
             style="color:#000000;fill:#fed883;stroke-linecap:round;stroke-linejoin:round;-inkscape-stroke:none"
             d="m 66.794969,274.86971 c -0.127666,-0.21702 -0.356299,-0.32617 -0.584008,-0.32614 -0.227709,4e-5 -0.454389,0.10919 -0.582055,0.32621 l -2.402344,4.08399 c -0.103041,0.17575 0.02284,0.39713 0.226563,0.39844 l 2.755859,0.0195 c 0.09431,10e-4 0.182109,-0.0479 0.230469,-0.12891 l 1.376953,-2.3418 c 0.04904,-0.0823 0.0498,-0.18459 0.002,-0.26757 z"
             id="path110787"
             sodipodi:nodetypes="cccccccccc" />
          <path
             id="path117849"
             style="fill:#ec7523;fill-opacity:1;stroke-width:3.77953;stroke-linecap:round;stroke-linejoin:round"
             d="m 254.23242,-16.572266 -6.68164,11.3554691 a 2.1347551,2.1347551 0 0 0 0,0.00586 c -0.44836,0.7647272 -0.53841,1.7214906 -0.26953,2.5625 l 2.95703,0.021484 a 1.0001006,1.0001006 0 0 0 0.8711,-0.4863281 l 5.20507,-8.851563 a 1.0001006,1.0001006 0 0 0 0.008,-1.011718 z"
             transform="matrix(0.26458334,0,0,0.26458334,0,280.06666)" />
          <path
             id="path117854"
             style="fill:#ec7523;fill-opacity:1;stroke-width:3.77953;stroke-linecap:round;stroke-linejoin:round"
             d="m 265.83203,-23.572266 -2.45312,2.402344 a 1.0001006,1.0001006 0 0 0 -0.16211,1.21875 l 3.96289,6.753906 a 1.0001006,1.0001006 0 0 0 1.35156,0.361328 l 2.74609,-1.552734 -5.12304,-8.707031 c -0.0987,-0.167724 -0.20682,-0.327132 -0.32227,-0.476563 z"
             transform="matrix(0.26458334,0,0,0.26458334,0,280.06666)" />
          <path
             style="color:#000000;fill:#fed883;stroke-linecap:round;stroke-linejoin:round;-inkscape-stroke:none"
             d="m 69.349609,273.91666 c -0.227687,0 -0.454368,0.10914 -0.582031,0.32617 l -2.783203,4.73047 a 0.26460996,0.26460996 0 0 0 0.226562,0.39844 h 6.277344 a 0.26460996,0.26460996 0 0 0 0.228516,-0.39844 l -2.783203,-4.73047 c -0.127663,-0.21703 -0.356297,-0.32617 -0.583985,-0.32617 z"
             id="path110817" />
          <path
             id="path110886"
             style="color:#000000;fill:#fca311;fill-opacity:1;stroke-width:1;stroke-linecap:round;stroke-linejoin:round;-inkscape-stroke:none"
             d="m 68.743094,271.83822 a 0.31383931,0.31383931 0 0 0 -0.315228,0.31522 0.31383931,0.31383931 0 0 0 0.315228,0.31265 0.31383931,0.31383931 0 0 0 0.312642,-0.31265 0.31383931,0.31383931 0 0 0 -0.312642,-0.31522 z m 0.653706,0.90485 a 0.31383931,0.31383931 0 0 0 -0.315228,0.31523 0.31383931,0.31383931 0 0 0 0.315228,0.31264 0.31383931,0.31383931 0 0 0 0.312642,-0.31264 0.31383931,0.31383931 0 0 0 -0.312642,-0.31523 z m 3.10937,0.80771 a 0.31383931,0.31383931 0 0 0 -0.312642,0.31264 0.31383931,0.31383931 0 0 0 0.312642,0.31522 0.31383931,0.31383931 0 0 0 0.315227,-0.31522 0.31383931,0.31383931 0 0 0 -0.315227,-0.31264 z m 3.373437,0.0563 a 0.31383931,0.31383931 0 0 0 -0.314708,0.31471 0.31383931,0.31383931 0 0 0 0.314708,0.31316 0.31383931,0.31383931 0 0 0 0.312643,-0.31316 0.31383931,0.31383931 0 0 0 -0.312643,-0.31471 z M 64.956244,273.774 a 0.31383931,0.31383931 0 0 0 -0.314711,0.31264 0.31383931,0.31383931 0 0 0 0.314711,0.31264 0.31383931,0.31383931 0 0 0 0.312643,-0.31264 0.31383931,0.31383931 0 0 0 -0.312643,-0.31264 z m 6.59133,0.62528 a 0.31383931,0.31383931 0 0 0 -0.315227,0.31523 0.31383931,0.31383931 0 0 0 0.315227,0.31264 0.31383931,0.31383931 0 0 0 0.312642,-0.31264 0.31383931,0.31383931 0 0 0 -0.312642,-0.31523 z m -8.695079,1.4888 a 0.31383931,0.31383931 0 0 0 -0.315225,0.31471 0.31383931,0.31383931 0 0 0 0.315225,0.31316 0.31383931,0.31383931 0 0 0 0.312645,-0.31316 0.31383931,0.31383931 0 0 0 -0.312645,-0.31471 z m 10.779704,0.11886 a 0.31383931,0.31383931 0 0 0 -0.312642,0.31264 0.31383931,0.31383931 0 0 0 0.312642,0.31522 0.31383931,0.31383931 0 0 0 0.315228,-0.31522 0.31383931,0.31383931 0 0 0 -0.315228,-0.31264 z m -4.438488,0.0832 a 0.31383931,0.31383931 0 0 0 -0.315228,0.31522 0.31383931,0.31383931 0 0 0 0.315228,0.31264 0.31383931,0.31383931 0 0 0 0.312642,-0.31264 0.31383931,0.31383931 0 0 0 -0.312642,-0.31522 z m 0.637169,0.97875 a 0.31383931,0.31383931 0 0 0 -0.315224,0.31522 0.31383931,0.31383931 0 0 0 0.315224,0.31265 0.31383931,0.31383931 0 0 0 0.312645,-0.31265 0.31383931,0.31383931 0 0 0 -0.312645,-0.31522 z m 5.772775,0.25114 a 0.31383931,0.31383931 0 0 0 -0.313158,0.31316 0.31383931,0.31383931 0 0 0 0.313158,0.31471 0.31383931,0.31383931 0 0 0 0.314711,-0.31471 0.31383931,0.31383931 0 0 0 -0.314711,-0.31316 z m -2.402435,0.0925 a 0.31383931,0.31383931 0 0 0 -0.313161,0.31264 0.31383931,0.31383931 0 0 0 0.313161,0.31522 0.31383931,0.31383931 0 0 0 0.314708,-0.31522 0.31383931,0.31383931 0 0 0 -0.314708,-0.31264 z m -7.617109,0.12609 a 0.31383931,0.31383931 0 0 0 -0.315224,0.31471 0.31383931,0.31383931 0 0 0 0.315224,0.31315 0.31383931,0.31383931 0 0 0 0.312643,-0.31315 0.31383931,0.31383931 0 0 0 -0.312643,-0.31471 z m 3.139345,0.31471 a 0.31383931,0.31383931 0 0 0 -0.315227,0.31315 0.31383931,0.31383931 0 0 0 0.315227,0.31471 0.31383931,0.31383931 0 0 0 0.312642,-0.31471 0.31383931,0.31383931 0 0 0 -0.312642,-0.31315 z" />
        </g>
        <path
           style="color:#000000;fill:#dc1c4b;stroke-linecap:round;stroke-linejoin:round;-inkscape-stroke:none"
           d="m 63.071315,289.42578 c -0.652738,0 -1.160108,0.59064 -1.064454,1.23633 a 0.26461097,0.26461097 0 0 0 0.0039,0.0176 l 0.978515,4.49218 c 0.137989,0.63296 0.665599,1.13868 1.337891,1.13868 3.556835,1e-5 7.115039,-10e-6 10.671875,0 0.672292,0 1.199902,-0.50572 1.337891,-1.13868 l 0.978515,-4.49218 a 0.26461097,0.26461097 0 0 0 0.0039,-0.0176 c 0.09565,-0.64569 -0.413669,-1.23633 -1.066406,-1.23633 -4.393739,-10e-6 -8.7879,1e-5 -13.18164,0 z"
           id="path110841" />
        <path
           id="path163819"
           style="color:#000000;fill:#801231;fill-opacity:1;stroke-width:3.77953;stroke-linecap:round;stroke-linejoin:round;-inkscape-stroke:none"
           d="m 274.80664,35.826172 c -9.54658,-0.134918 -11.01863,6.697461 -11.01863,13.209202 0,4.119719 0,8.239438 0,12.359157 0,0 13.71591,-1.6e-5 19.67293,0 2.54094,0 4.5351,-1.912398 5.05664,-4.304687 l 3.69922,-16.976563 c 0.005,-0.02262 0.01,-0.04542 0.0137,-0.06836 0.20794,-1.403727 -0.34137,-2.736381 -1.31445,-3.617188 z"
           transform="matrix(0.26458334,0,0,0.26458334,0,280.06666)"
           sodipodi:nodetypes="cccsccccc" />
        <path
           style="color:#000000;fill:#801231;stroke-linecap:round;stroke-linejoin:round;-inkscape-stroke:none"
           d="m 61.818359,289.42578 a 0.2645835,0.2645835 0 0 0 -0.265625,0.26563 0.2645835,0.2645835 0 0 0 0.265625,0.26367 h 7.845703 7.845704 a 0.2645835,0.2645835 0 0 0 0.263671,-0.26367 0.2645835,0.2645835 0 0 0 -0.263671,-0.26563 h -7.845704 z"
           id="path110784" />
        <path
           id="rect12857"
           style="color:#000000;fill:#801231;stroke-width:3.77953;stroke-linecap:round;stroke-linejoin:round;-inkscape-stroke:none"
           d="m 263.29492,35.378906 a 1.0000006,1.0000006 0 0 0 -0.70898,0.294922 l -7.29492,7.294922 -7.29883,-7.298828 a 1.0001006,1.0001006 0 0 0 -1.41992,0 l -7.29883,7.298828 -4.75977,-4.761719 c -0.18746,0.574834 -0.25105,1.197939 -0.15625,1.837891 a 1.0001044,1.0001044 0 0 0 0.0137,0.06836 l 0.2168,0.994141 3.3125,3.3125 -2.08594,2.314453 0.52539,2.412109 2.97657,-3.308593 6.55273,6.550781 -6.8457,6.845703 c 0.39478,0.547771 0.88426,1.019997 1.44726,1.380859 l 6.8125,-6.8125 6.5918,6.591797 -1,1 c 1.60877,0 3.21734,2e-6 4.82617,0 l -0.99609,-0.996093 6.58984,-6.595704 6.5918,6.591797 -1,1 c 1.61143,-10e-7 3.22261,1e-6 4.83398,0 l -1,-1 6.58594,-6.591797 6.81055,6.810547 c 0.5629,-0.361111 1.05265,-0.832881 1.44726,-1.380859 l -6.84179,-6.841797 6.55468,-6.552734 2.97266,3.298828 0.52539,-2.40625 -2.08008,-2.310547 3.30274,-3.300781 0.21875,-1.00586 a 1.0001044,1.0001044 0 0 0 0.0137,-0.06836 c 0.0948,-0.639734 0.0318,-1.263218 -0.15625,-1.837891 l -4.75781,4.757813 -7.29493,-7.294922 a 1.0001006,1.0001006 0 0 0 -1.41992,0 l -7.29883,7.296875 -7.29882,-7.292969 a 1.0000006,1.0000006 0 0 0 -0.70899,-0.294922 z m -16.01172,2.410156 6.5918,6.591797 -6.5918,6.59375 -6.59375,-6.59375 z m 32.02735,0 6.59375,6.591797 -6.59375,6.59375 -6.5918,-6.59375 z m -16.01563,0.0039 6.5918,6.591797 -6.5918,6.589843 -6.5918,-6.589843 z m -8.00586,8.003906 6.5918,6.591797 -6.5918,6.591797 -6.59179,-6.591797 z m 16.01758,0.002 6.5918,6.591797 -6.59375,6.587891 -6.59571,-6.589844 z"
           transform="matrix(0.26458334,0,0,0.26458334,0,280.06666)" />
      </g>
      <g
         id="g161745"
         transform="translate(0,-10.583333)">
        <path
           style="color:#000000;fill:#9ccc65;stroke-linecap:round;stroke-linejoin:round;-inkscape-stroke:none"
           d="m 76.70744,301.95538 c -0.335133,-0.54544 -0.932409,-0.8832 -1.5785,-0.88311 -0.670221,4.4e-4 -1.232544,0.31684 -1.554687,0.33007 -0.145837,0.006 -0.331469,-0.0558 -0.556641,-0.14062 -0.225172,-0.0848 -0.488137,-0.1895 -0.798828,-0.18945 h -3.4e-5 c -0.727491,0 -1.324219,0.59672 -1.324219,1.32421 1.98e-4,0.0451 0.005,0.0899 0.0098,0.13477 -0.27868,0.24814 -0.539083,0.54027 -0.539063,0.92187 -5.68e-4,0.14694 0.118689,0.26619 0.265625,0.26563 h 6.615235 c 0.146173,-5.2e-4 0.264236,-0.11946 0.263672,-0.26563 v -0.26367 c -5.3e-5,-0.49983 -0.283022,-0.95224 -0.719148,-1.17615 l -0.06871,-0.0327 z"
           id="path152226"
           sodipodi:nodetypes="ccscsscccccccccc" />
        <path
           style="color:#000000;fill:#9a605c;stroke-linecap:round;stroke-linejoin:round;-inkscape-stroke:none"
           d="m 70.630859,303.18945 a 0.26460996,0.26460996 0 0 0 -0.261718,0.3086 l 0.357421,2.14453 c 0.120005,0.72 0.746622,1.25195 1.476563,1.25195 h 3.46875 c 0.729941,0 1.356563,-0.53194 1.476562,-1.25195 l 0.357422,-2.14453 a 0.26460996,0.26460996 0 0 0 -0.259765,-0.3086 z"
           id="path152232" />
        <path
           id="path156660"
           style="color:#000000;fill:#66342d;fill-opacity:1;stroke-width:1;stroke-linecap:round;stroke-linejoin:round;-inkscape-stroke:none"
           d="m 70.630832,303.18928 a 0.26460996,0.26460996 0 0 0 -0.261482,0.30903 l 0.124539,0.7493 h 5.693709 a 0.26460996,0.26460996 0 0 1 0.259935,0.30903 l -0.357603,2.14405 c -0.0081,0.0484 -0.01849,0.096 -0.031,0.14263 0.55476,-0.14945 0.991259,-0.61247 1.089337,-1.20096 l 0.357603,-2.14405 a 0.26460996,0.26460996 0 0 0 -0.259934,-0.30903 z" />
        <path
           style="color:#000000;fill:#311a12;stroke-linecap:round;stroke-linejoin:round;-inkscape-stroke:none"
           d="m 70.365234,303.18945 a 0.2645835,0.2645835 0 0 0 -0.263672,0.26367 0.2645835,0.2645835 0 0 0 0.263672,0.26563 h 7.144532 a 0.2645835,0.2645835 0 0 0 0.263671,-0.26563 0.2645835,0.2645835 0 0 0 -0.263671,-0.26367 z"
           id="path15799" />
        <path
           style="color:#000000;fill:#311a12;stroke-linecap:round;stroke-linejoin:round;-inkscape-stroke:none"
           d="m 76.085937,304.58789 a 0.2645835,0.2645835 0 0 0 -0.304687,0.2168 l -0.119141,0.72265 a 0.2645835,0.2645835 0 0 0 0.216797,0.30469 0.2645835,0.2645835 0 0 0 0.304688,-0.21875 l 0.11914,-0.7207 a 0.2645835,0.2645835 0 0 0 -0.216797,-0.30469 z"
           id="path16487" />
        <path
           id="path17565"
           style="color:#000000;fill:#5f8a2e;stroke-width:3.77953;stroke-linecap:round;stroke-linejoin:round;-inkscape-stroke:none"
           d="m 272.99609,79.392578 c 1.33583,1.156907 2.97513,2.576539 3.32227,2.871094 0.88824,0.60223 1.54944,1.43638 2.06836,2.310547 0.14222,0.534425 0.69046,0.852228 1.22461,0.708984 0.53442,-0.14211 0.85224,-0.692402 0.70898,-1.226562 -0.67966,-1.547851 -1.83386,-2.593836 -2.89843,-3.486329 -0.42193,-0.08954 -0.90467,-0.257763 -1.44922,-0.46289 -0.84059,-0.316567 -1.8211,-0.705494 -2.97657,-0.714844 z"
           transform="matrix(0.26458334,0,0,0.26458334,0,280.06666)"
           sodipodi:nodetypes="cccccccc" />
        <path
           id="path17855"
           style="color:#000000;fill:#5f8a2e;stroke-width:3.77953;stroke-linecap:round;stroke-linejoin:round;-inkscape-stroke:none"
           d="m 284.74219,83.953123 c -0.34678,0.433556 -0.274,1.0666 0.16211,1.410156 0.4323,0.341453 1.05934,0.268968 1.40234,-0.162109 1.80771,-1.201204 4.00336,-0.397903 6.11137,-0.04885 -0.51304,-1.019262 -1.36938,-1.851868 -2.44531,-2.328125 -0.0224,-0.03772 -0.0434,-0.07607 -0.0664,-0.113281 -1.83213,-0.361052 -4.04161,-0.111713 -5.16411,1.242209 z"
           transform="matrix(0.26458334,0,0,0.26458334,0,280.06666)"
           sodipodi:nodetypes="ccccccc" />
        <path
           id="path152618"
           style="color:#000000;fill:#5f8a2e;stroke-width:3.77953;stroke-linecap:round;stroke-linejoin:round;-inkscape-stroke:none"
           d="m 267.95898,84.089891 c -0.0351,0.275883 0.0145,0.563014 0.0254,0.816406 -0.50383,0.448616 -0.99124,0.935 -1.36329,1.478516 1.96974,-0.379174 3.62959,-0.922061 5.46094,-0.498042 0.45445,0.310203 1.07413,0.194995 1.38672,-0.257813 0.31153,-0.454822 0.19621,-1.075977 -0.25781,-1.388672 -1.81179,-0.965324 -3.29404,-0.531675 -5.25196,-0.150395 z"
           transform="matrix(0.26458334,0,0,0.26458334,0,280.06666)"
           sodipodi:nodetypes="ccccccc" />
      </g>
    </g>
  </g>
</svg>
