<?xml version="1.0" encoding="UTF-8" standalone="no"?>
<svg
   xmlns:dc="http://purl.org/dc/elements/1.1/"
   xmlns:cc="http://creativecommons.org/ns#"
   xmlns:rdf="http://www.w3.org/1999/02/22-rdf-syntax-ns#"
   xmlns:svg="http://www.w3.org/2000/svg"
   xmlns="http://www.w3.org/2000/svg"
   xmlns:sodipodi="http://sodipodi.sourceforge.net/DTD/sodipodi-0.dtd"
   xmlns:inkscape="http://www.inkscape.org/namespaces/inkscape"
   inkscape:export-ydpi="576"
   inkscape:export-xdpi="576"
   inkscape:export-filename="E:\Filedline\3 - Slice Cake.png"
   width="64pt"
   height="64pt"
   viewBox="0 0 22.577778 22.577778"
   version="1.1"
   id="svg831"
   inkscape:version="1.0 (4035a4fb49, 2020-05-01)"
   sodipodi:docname="EXPORT 64px.svg">
  <defs
     id="defs825">
    <pattern
       id="EMFhbasepattern"
       patternUnits="userSpaceOnUse"
       width="6"
       height="6"
       x="0"
       y="0" />
    <pattern
       id="EMFhbasepattern-9"
       patternUnits="userSpaceOnUse"
       width="6"
       height="6"
       x="0"
       y="0" />
    <pattern
       id="EMFhbasepattern-0"
       patternUnits="userSpaceOnUse"
       width="6"
       height="6"
       x="0"
       y="0" />
    <pattern
       id="EMFhbasepattern-7"
       patternUnits="userSpaceOnUse"
       width="6"
       height="6"
       x="0"
       y="0" />
    <pattern
       id="EMFhbasepattern-2"
       patternUnits="userSpaceOnUse"
       width="6"
       height="6"
       x="0"
       y="0" />
    <pattern
       id="EMFhbasepattern-98"
       patternUnits="userSpaceOnUse"
       width="6"
       height="6"
       x="0"
       y="0" />
    <pattern
       id="EMFhbasepattern-6"
       patternUnits="userSpaceOnUse"
       width="6"
       height="6"
       x="0"
       y="0" />
    <pattern
       id="EMFhbasepattern-01"
       patternUnits="userSpaceOnUse"
       width="6"
       height="6"
       x="0"
       y="0" />
    <pattern
       id="EMFhbasepattern-07"
       patternUnits="userSpaceOnUse"
       width="6"
       height="6"
       x="0"
       y="0" />
    <pattern
       id="EMFhbasepattern-8"
       patternUnits="userSpaceOnUse"
       width="6"
       height="6"
       x="0"
       y="0" />
    <pattern
       id="EMFhbasepattern-4"
       patternUnits="userSpaceOnUse"
       width="6"
       height="6"
       x="0"
       y="0" />
    <pattern
       id="EMFhbasepattern-40"
       patternUnits="userSpaceOnUse"
       width="6"
       height="6"
       x="0"
       y="0" />
    <pattern
       id="EMFhbasepattern-08"
       patternUnits="userSpaceOnUse"
       width="6"
       height="6"
       x="0"
       y="0" />
    <pattern
       id="EMFhbasepattern-04"
       patternUnits="userSpaceOnUse"
       width="6"
       height="6"
       x="0"
       y="0" />
    <pattern
       id="EMFhbasepattern-014"
       patternUnits="userSpaceOnUse"
       width="6"
       height="6"
       x="0"
       y="0" />
    <pattern
       id="EMFhbasepattern-27"
       patternUnits="userSpaceOnUse"
       width="6"
       height="6"
       x="0"
       y="0" />
    <pattern
       id="EMFhbasepattern-09"
       patternUnits="userSpaceOnUse"
       width="6"
       height="6"
       x="0"
       y="0" />
    <pattern
       id="EMFhbasepattern-5"
       patternUnits="userSpaceOnUse"
       width="6"
       height="6"
       x="0"
       y="0" />
    <pattern
       id="EMFhbasepattern-018"
       patternUnits="userSpaceOnUse"
       width="6"
       height="6"
       x="0"
       y="0" />
  </defs>
  <sodipodi:namedview
     id="base"
     pagecolor="#ffffff"
     bordercolor="#666666"
     borderopacity="1.0"
     inkscape:pageopacity="0.0"
     inkscape:pageshadow="2"
     inkscape:zoom="3.3909162"
     inkscape:cx="9.805947"
     inkscape:cy="23.142722"
     inkscape:document-units="pt"
     inkscape:current-layer="layer1"
     showgrid="false"
     units="pt"
     inkscape:window-width="1366"
     inkscape:window-height="715"
     inkscape:window-x="-8"
     inkscape:window-y="-8"
     inkscape:window-maximized="1"
     inkscape:pagecheckerboard="true"
     inkscape:showpageshadow="false"
     inkscape:object-paths="true"
     inkscape:snap-intersection-paths="true"
     inkscape:snap-smooth-nodes="true"
     inkscape:snap-midpoints="true"
     showguides="true"
     inkscape:snap-bbox="true"
     inkscape:bbox-nodes="true"
     inkscape:snap-nodes="false"
     inkscape:snap-global="true"
     inkscape:document-rotation="0">
    <inkscape:grid
       type="xygrid"
       id="grid1378" />
    <sodipodi:guide
       position="0.97013831,21.607643"
       orientation="78.000048,0"
       id="guide1380"
       inkscape:locked="false" />
    <sodipodi:guide
       position="0.97013831,0.97013129"
       orientation="0,78.000005"
       id="guide1382"
       inkscape:locked="false" />
    <sodipodi:guide
       position="21.607639,0.97013129"
       orientation="-78.000048,0"
       id="guide1384"
       inkscape:locked="false" />
    <sodipodi:guide
       position="21.607639,21.607643"
       orientation="0,-78.000005"
       id="guide1386"
       inkscape:locked="false" />
  </sodipodi:namedview>
  <metadata
     id="metadata828">
    <rdf:RDF>
      <cc:Work
         rdf:about="">
        <dc:format>image/svg+xml</dc:format>
        <dc:type
           rdf:resource="http://purl.org/dc/dcmitype/StillImage" />
        <dc:title></dc:title>
      </cc:Work>
    </rdf:RDF>
  </metadata>
  <g
     inkscape:label="Icon"
     inkscape:groupmode="layer"
     id="layer1"
     transform="translate(0,-274.42223)">
    <g
       transform="matrix(1.2584923,0,0,1.2584923,0.63339356,-39.018942)"
       style="display:inline"
       id="g1767">
      <path
         style="color:#000000;font-style:normal;font-variant:normal;font-weight:normal;font-stretch:normal;font-size:medium;line-height:normal;font-family:sans-serif;font-variant-ligatures:normal;font-variant-position:normal;font-variant-caps:normal;font-variant-numeric:normal;font-variant-alternates:normal;font-variant-east-asian:normal;font-feature-settings:normal;font-variation-settings:normal;text-indent:0;text-align:start;text-decoration:none;text-decoration-line:none;text-decoration-style:solid;text-decoration-color:#000000;letter-spacing:normal;word-spacing:normal;text-transform:none;writing-mode:lr-tb;direction:ltr;text-orientation:mixed;dominant-baseline:auto;baseline-shift:baseline;text-anchor:start;white-space:normal;shape-padding:0;shape-margin:0;inline-size:0;clip-rule:nonzero;display:inline;overflow:visible;visibility:visible;isolation:auto;mix-blend-mode:normal;color-interpolation:sRGB;color-interpolation-filters:linearRGB;solid-color:#000000;solid-opacity:1;vector-effect:none;fill:#ffccbc;fill-opacity:1;fill-rule:nonzero;stroke:none;stroke-width:0.529167;stroke-linecap:round;stroke-linejoin:round;stroke-miterlimit:4;stroke-dasharray:none;stroke-dashoffset:0;stroke-opacity:1;color-rendering:auto;image-rendering:auto;shape-rendering:auto;text-rendering:auto;enable-background:accumulate;stop-color:#000000"
         d="m 1.1308594,260.17186 c -0.45075183,-0.0644 -0.86327668,0.29468 -0.86328128,0.75 v 1.13282 c 9.73e-6,0.61746 0.45711881,1.14507 1.06835938,1.23242 l 14.1855465,2.02539 c 0.598812,0.0856 1.144537,-0.38534 1.144532,-0.99024 v -1.13476 c -3e-6,-0.45487 -0.338663,-0.84398 -0.789063,-0.9082 z"
         id="path528" />
      <path
         sodipodi:nodetypes="cccccccsccccccc"
         transform="matrix(0.26458334,0,0,0.26458334,0,280.06666)"
         d="m 3.6445312,-75.212891 v 0.002 c -1.4397294,0.120189 -2.6327973,1.347752 -2.6328124,2.853516 v 1.164063 c 15.4116612,1.83308 31.8438732,4.099503 47.7185822,6.354845 3.075602,0.436956 5.568527,3.31199 5.568527,6.418592 v 2.033203 l 4.365234,0.623047 c 2.26322,0.323528 4.326191,-1.463801 4.326172,-3.75 0,-1.427083 0,-2.854167 0,-4.28125 -7e-6,-1.719194 -1.280119,-3.190872 -2.982422,-3.433594 l -5.708984,-0.816406 -50.0253905,-7.148437 c -0.2129537,-0.03024 -0.4232306,-0.03465 -0.6289063,-0.01953 z"
         style="color:#000000;font-style:normal;font-variant:normal;font-weight:normal;font-stretch:normal;font-size:medium;line-height:normal;font-family:sans-serif;font-variant-ligatures:normal;font-variant-position:normal;font-variant-caps:normal;font-variant-numeric:normal;font-variant-alternates:normal;font-variant-east-asian:normal;font-feature-settings:normal;font-variation-settings:normal;text-indent:0;text-align:start;text-decoration:none;text-decoration-line:none;text-decoration-style:solid;text-decoration-color:#000000;letter-spacing:normal;word-spacing:normal;text-transform:none;writing-mode:lr-tb;direction:ltr;text-orientation:mixed;dominant-baseline:auto;baseline-shift:baseline;text-anchor:start;white-space:normal;shape-padding:0;shape-margin:0;inline-size:0;clip-rule:nonzero;display:inline;overflow:visible;visibility:visible;isolation:auto;mix-blend-mode:normal;color-interpolation:sRGB;color-interpolation-filters:linearRGB;solid-color:#000000;solid-opacity:1;vector-effect:none;fill:#e6af99;fill-opacity:1;fill-rule:nonzero;stroke:none;stroke-width:2;stroke-linecap:round;stroke-linejoin:round;stroke-miterlimit:4;stroke-dasharray:none;stroke-dashoffset:0;stroke-opacity:1;color-rendering:auto;image-rendering:auto;shape-rendering:auto;text-rendering:auto;enable-background:accumulate;stop-color:#000000"
         id="path1745" />
      <path
         id="path1719"
         d="m 1.1308594,257.62109 c -0.45075183,-0.0644 -0.86327668,0.29468 -0.86328128,0.75 v 1.13282 c 9.73e-6,0.61746 0.45711881,1.14507 1.06835938,1.23242 l 14.1855465,2.02539 c 0.598812,0.0856 1.144537,-0.38534 1.144532,-0.99024 v -1.13476 c -3e-6,-0.45487 -0.338663,-0.84398 -0.789063,-0.9082 z"
         style="color:#000000;font-style:normal;font-variant:normal;font-weight:normal;font-stretch:normal;font-size:medium;line-height:normal;font-family:sans-serif;font-variant-ligatures:normal;font-variant-position:normal;font-variant-caps:normal;font-variant-numeric:normal;font-variant-alternates:normal;font-variant-east-asian:normal;font-feature-settings:normal;font-variation-settings:normal;text-indent:0;text-align:start;text-decoration:none;text-decoration-line:none;text-decoration-style:solid;text-decoration-color:#000000;letter-spacing:normal;word-spacing:normal;text-transform:none;writing-mode:lr-tb;direction:ltr;text-orientation:mixed;dominant-baseline:auto;baseline-shift:baseline;text-anchor:start;white-space:normal;shape-padding:0;shape-margin:0;inline-size:0;clip-rule:nonzero;display:inline;overflow:visible;visibility:visible;isolation:auto;mix-blend-mode:normal;color-interpolation:sRGB;color-interpolation-filters:linearRGB;solid-color:#000000;solid-opacity:1;vector-effect:none;fill:#ffa185;fill-opacity:1;fill-rule:nonzero;stroke:none;stroke-width:0.529167;stroke-linecap:round;stroke-linejoin:round;stroke-miterlimit:4;stroke-dasharray:none;stroke-dashoffset:0;stroke-opacity:1;color-rendering:auto;image-rendering:auto;shape-rendering:auto;text-rendering:auto;enable-background:accumulate;stop-color:#000000" />
      <path
         sodipodi:nodetypes="ccsccccsccccccc"
         transform="matrix(0.26458334,0,0,0.26458334,0,280.06666)"
         d="m 3.6445312,-84.853516 v 0.002 c -1.4397289,0.120188 -2.6327973,1.347751 -2.6328124,2.853515 v 0.746094 c 14.7247762,2.127117 32.2519932,4.525664 48.5672372,6.867728 2.606991,0.374236 4.719872,2.816226 4.719872,5.450037 v 2.906844 l 4.365234,0.623047 c 2.263228,0.323528 4.326191,-1.455951 4.326172,-3.742187 0,-1.429688 0,-2.859375 0,-4.289063 -1.1e-5,-1.719194 -1.280121,-3.190872 -2.982422,-3.433594 l -5.708984,-0.816406 -50.0253905,-7.148437 c -0.2129537,-0.03024 -0.4232303,-0.03465 -0.6289063,-0.01953 z"
         style="color:#000000;font-style:normal;font-variant:normal;font-weight:normal;font-stretch:normal;font-size:medium;line-height:normal;font-family:sans-serif;font-variant-ligatures:normal;font-variant-position:normal;font-variant-caps:normal;font-variant-numeric:normal;font-variant-alternates:normal;font-variant-east-asian:normal;font-feature-settings:normal;font-variation-settings:normal;text-indent:0;text-align:start;text-decoration:none;text-decoration-line:none;text-decoration-style:solid;text-decoration-color:#000000;letter-spacing:normal;word-spacing:normal;text-transform:none;writing-mode:lr-tb;direction:ltr;text-orientation:mixed;dominant-baseline:auto;baseline-shift:baseline;text-anchor:start;white-space:normal;shape-padding:0;shape-margin:0;inline-size:0;clip-rule:nonzero;display:inline;overflow:visible;visibility:visible;isolation:auto;mix-blend-mode:normal;color-interpolation:sRGB;color-interpolation-filters:linearRGB;solid-color:#000000;solid-opacity:1;vector-effect:none;fill:#e59079;fill-opacity:1;fill-rule:nonzero;stroke:none;stroke-width:2;stroke-linecap:round;stroke-linejoin:round;stroke-miterlimit:4;stroke-dasharray:none;stroke-dashoffset:0;stroke-opacity:1;color-rendering:auto;image-rendering:auto;shape-rendering:auto;text-rendering:auto;enable-background:accumulate;stop-color:#000000"
         id="path1848" />
      <path
         id="path1703"
         d="m 1.1308594,255.07227 c -0.45075352,-0.0644 -0.86328493,0.29271 -0.86328128,0.74804 v 1.13281 c 9.75e-6,0.61747 0.45711882,1.14508 1.06835938,1.23243 4.7282674,0.67537 9.4572745,1.3519 14.1855465,2.02734 0.59881,0.0856 1.144537,-0.3873 1.144532,-0.99219 v -1.13476 c -3e-6,-0.45487 -0.338876,-0.84373 -0.789063,-0.90821 -4.915268,-0.70218 -9.8308138,-1.40333 -14.7460936,-2.10546 z"
         style="color:#000000;font-style:normal;font-variant:normal;font-weight:normal;font-stretch:normal;font-size:medium;line-height:normal;font-family:sans-serif;font-variant-ligatures:normal;font-variant-position:normal;font-variant-caps:normal;font-variant-numeric:normal;font-variant-alternates:normal;font-variant-east-asian:normal;font-feature-settings:normal;font-variation-settings:normal;text-indent:0;text-align:start;text-decoration:none;text-decoration-line:none;text-decoration-style:solid;text-decoration-color:#000000;letter-spacing:normal;word-spacing:normal;text-transform:none;writing-mode:lr-tb;direction:ltr;text-orientation:mixed;dominant-baseline:auto;baseline-shift:baseline;text-anchor:start;white-space:normal;shape-padding:0;shape-margin:0;inline-size:0;clip-rule:nonzero;display:inline;overflow:visible;visibility:visible;isolation:auto;mix-blend-mode:normal;color-interpolation:sRGB;color-interpolation-filters:linearRGB;solid-color:#000000;solid-opacity:1;vector-effect:none;fill:#ffccbc;fill-opacity:1;fill-rule:nonzero;stroke:none;stroke-width:0.529167;stroke-linecap:round;stroke-linejoin:round;stroke-miterlimit:4;stroke-dasharray:none;stroke-dashoffset:0;stroke-opacity:1;color-rendering:auto;image-rendering:auto;shape-rendering:auto;text-rendering:auto;enable-background:accumulate;stop-color:#000000" />
      <path
         sodipodi:nodetypes="ccscccscc"
         id="path1651"
         d="m 4.9570312,250.91992 c -0.045707,0.1386 0.029447,0.28804 0.1679688,0.33399 0.3497266,0.11657 0.4885069,0.31317 0.5761719,0.57617 0.087665,0.263 0.091797,0.58969 0.091797,0.87304 4.98e-4,0.14618 0.1194454,0.26426 0.265625,0.26368 0.1454174,-5e-4 0.2631761,-0.11826 0.2636718,-0.26368 0,-0.28335 0.00571,-0.6645 -0.1191406,-1.03906 -0.1248506,-0.37455 -0.4117738,-0.74534 -0.9121094,-0.91211 -0.1680946,-0.0444 -0.2838345,0.034 -0.3339845,0.16797 z"
         style="color:#000000;font-style:normal;font-variant:normal;font-weight:normal;font-stretch:normal;font-size:medium;line-height:normal;font-family:sans-serif;font-variant-ligatures:normal;font-variant-position:normal;font-variant-caps:normal;font-variant-numeric:normal;font-variant-alternates:normal;font-variant-east-asian:normal;font-feature-settings:normal;font-variation-settings:normal;text-indent:0;text-align:start;text-decoration:none;text-decoration-line:none;text-decoration-style:solid;text-decoration-color:#000000;letter-spacing:normal;word-spacing:normal;text-transform:none;writing-mode:lr-tb;direction:ltr;text-orientation:mixed;dominant-baseline:auto;baseline-shift:baseline;text-anchor:start;white-space:normal;shape-padding:0;shape-margin:0;inline-size:0;clip-rule:nonzero;display:inline;overflow:visible;visibility:visible;opacity:1;isolation:auto;mix-blend-mode:normal;color-interpolation:sRGB;color-interpolation-filters:linearRGB;solid-color:#000000;solid-opacity:1;vector-effect:none;fill:#349951;fill-opacity:1;fill-rule:nonzero;stroke:none;stroke-width:0.529167;stroke-linecap:round;stroke-linejoin:round;stroke-miterlimit:4;stroke-dasharray:none;stroke-dashoffset:0;stroke-opacity:1;color-rendering:auto;image-rendering:auto;shape-rendering:auto;text-rendering:auto;enable-background:accumulate;stop-color:#000000;stop-opacity:1" />
      <path
         sodipodi:nodetypes="ccccsccccccc"
         transform="matrix(0.26458334,0,0,0.26458334,0,280.06666)"
         d="m 3.6445312,-94.486328 c -1.4397369,0.118677 -2.6328238,1.339864 -2.6328124,2.845703 v 1.173828 c 16.1188362,1.961131 33.5963792,4.331031 47.5721572,6.326506 3.156286,0.450667 5.714952,3.400698 5.714952,6.588995 v 1.89114 c 1.454978,0.20789 2.910291,0.415206 4.365234,0.623047 2.26322,0.323527 4.326191,-1.463802 4.326181,-2.751432 l -9e-6,-5.287631 c -1.1e-5,-1.719194 -1.280926,-3.18989 -2.982422,-3.433594 -0.817009,-0.116715 -1.634158,-0.232908 -2.451171,-0.349609 -18.815832,-2.711888 -37.761505,-5.397845 -53.9121098,-7.626953 z"
         style="color:#000000;font-style:normal;font-variant:normal;font-weight:normal;font-stretch:normal;font-size:medium;line-height:normal;font-family:sans-serif;font-variant-ligatures:normal;font-variant-position:normal;font-variant-caps:normal;font-variant-numeric:normal;font-variant-alternates:normal;font-variant-east-asian:normal;font-feature-settings:normal;font-variation-settings:normal;text-indent:0;text-align:start;text-decoration:none;text-decoration-line:none;text-decoration-style:solid;text-decoration-color:#000000;letter-spacing:normal;word-spacing:normal;text-transform:none;writing-mode:lr-tb;direction:ltr;text-orientation:mixed;dominant-baseline:auto;baseline-shift:baseline;text-anchor:start;white-space:normal;shape-padding:0;shape-margin:0;inline-size:0;clip-rule:nonzero;display:inline;overflow:visible;visibility:visible;isolation:auto;mix-blend-mode:normal;color-interpolation:sRGB;color-interpolation-filters:linearRGB;solid-color:#000000;solid-opacity:1;vector-effect:none;fill:#e6af99;fill-opacity:1;fill-rule:nonzero;stroke:none;stroke-width:2;stroke-linecap:round;stroke-linejoin:round;stroke-miterlimit:4;stroke-dasharray:none;stroke-dashoffset:0;stroke-opacity:1;color-rendering:auto;image-rendering:auto;shape-rendering:auto;text-rendering:auto;enable-background:accumulate;stop-color:#000000"
         id="path1840" />
      <path
         sodipodi:nodetypes="cccccsscssccssscccccccc"
         id="path1689"
         d="m 4.4198745,252.87444 c -0.7598133,0.20252 -2.2054721,0.89363 -3.58003005,1.83664 -0.084921,0.0583 -0.15525121,0.1212 -0.20898437,0.20703 -0.16260994,0.32612 -0.0189723,0.5863 0.41992182,0.67578 l 1.2011719,0.17187 v 1.1875 c 0,0.61248 0.502765,1.11524 1.1152344,1.11524 0.2696856,0 0.4979455,-0.12779 0.6914063,-0.28906 0.1293612,0.47227 0.4962913,0.85547 1.0078124,0.85547 0.6124657,0 1.1152344,-0.50276 1.1152344,-1.11524 v -1.19141 l 4.8535157,0.69141 v 1.20899 c 0,0.61247 0.502766,1.11523 1.115235,1.11523 0.612473,0 1.115234,-0.50276 1.115234,-1.11523 v -0.88868 l 2.542969,0.36328 c 0.191043,0.0273 0.372757,-0.0946 0.4375,-0.24804 0.06474,-0.15346 0.02398,-0.36855 -0.128906,-0.48633 l -5.816407,-4.48437 c -0.03489,-0.0265 -0.07583,-0.044 -0.11914,-0.0508 -1.0916781,-0.18032 -2.1409149,-0.20708 -2.6661611,-0.15241 z"
         style="color:#000000;font-style:normal;font-variant:normal;font-weight:normal;font-stretch:normal;font-size:medium;line-height:normal;font-family:sans-serif;font-variant-ligatures:normal;font-variant-position:normal;font-variant-caps:normal;font-variant-numeric:normal;font-variant-alternates:normal;font-variant-east-asian:normal;font-feature-settings:normal;font-variation-settings:normal;text-indent:0;text-align:start;text-decoration:none;text-decoration-line:none;text-decoration-style:solid;text-decoration-color:#000000;letter-spacing:normal;word-spacing:normal;text-transform:none;writing-mode:lr-tb;direction:ltr;text-orientation:mixed;dominant-baseline:auto;baseline-shift:baseline;text-anchor:start;white-space:normal;shape-padding:0;shape-margin:0;inline-size:0;clip-rule:nonzero;display:inline;overflow:visible;visibility:visible;isolation:auto;mix-blend-mode:normal;color-interpolation:sRGB;color-interpolation-filters:linearRGB;solid-color:#000000;solid-opacity:1;vector-effect:none;fill:#df2a72;fill-opacity:1;fill-rule:nonzero;stroke:none;stroke-width:0.529167;stroke-linecap:round;stroke-linejoin:round;stroke-miterlimit:4;stroke-dasharray:none;stroke-dashoffset:0;stroke-opacity:1;color-rendering:auto;image-rendering:auto;shape-rendering:auto;text-rendering:auto;enable-background:accumulate;stop-color:#000000" />
      <path
         sodipodi:nodetypes="ccccccccccccc"
         d="m 8.178829,252.27094 c -2.8488552,-0.12108 -5.3972851,1.13771 -7.33908668,2.43985 -0.26140614,0.1618 -0.30765724,0.42698 -0.2609636,0.54834 1.79968268,-1.23312 3.78924228,-1.52751 5.87851728,-1.91961 0.5253558,-0.0547 1.5745028,-0.0279 2.6661806,0.15244 0.04319,0.007 0.084026,0.0242 0.1188558,0.0506 l 5.1304356,3.95531 1.435572,0.20516 c 0.191043,0.0273 0.372956,-0.0946 0.437699,-0.24805 0.06474,-0.15346 0.02421,-0.36849 -0.128674,-0.48627 l -5.816702,-4.48439 c -0.03483,-0.0264 -0.07566,-0.0438 -0.118855,-0.0506 -0.6822987,-0.1127 -1.3484142,-0.16533 -2.002979,-0.16278 z"
         style="color:#000000;font-style:normal;font-variant:normal;font-weight:normal;font-stretch:normal;font-size:medium;line-height:normal;font-family:sans-serif;font-variant-ligatures:normal;font-variant-position:normal;font-variant-caps:normal;font-variant-numeric:normal;font-variant-alternates:normal;font-variant-east-asian:normal;font-feature-settings:normal;font-variation-settings:normal;text-indent:0;text-align:start;text-decoration:none;text-decoration-line:none;text-decoration-style:solid;text-decoration-color:#000000;letter-spacing:normal;word-spacing:normal;text-transform:none;writing-mode:lr-tb;direction:ltr;text-orientation:mixed;dominant-baseline:auto;baseline-shift:baseline;text-anchor:start;white-space:normal;shape-padding:0;shape-margin:0;inline-size:0;clip-rule:nonzero;display:inline;overflow:visible;visibility:visible;isolation:auto;mix-blend-mode:normal;color-interpolation:sRGB;color-interpolation-filters:linearRGB;solid-color:#000000;solid-opacity:1;vector-effect:none;fill:#c42566;fill-opacity:1;fill-rule:nonzero;stroke:none;stroke-width:0.529167;stroke-linecap:round;stroke-linejoin:round;stroke-miterlimit:4;stroke-dasharray:none;stroke-dashoffset:0;stroke-opacity:1;color-rendering:auto;image-rendering:auto;shape-rendering:auto;text-rendering:auto;enable-background:accumulate;stop-color:#000000"
         id="path1803" />
      <path
         id="path1733"
         d="m 2.5234375,259.4862 -0.8554687,0.002 a 0.2645835,0.2645835 0 0 0 -0.2636719,0.26563 0.2645835,0.2645835 0 0 0 0.265625,0.26367 l 0.8535156,-0.002 c 0.1396079,-2.7e-4 0.2774614,0.0313 0.4023437,0.0937 l 0.6425782,0.32226 c 0.2151739,0.10753 0.4619574,0.13454 0.6953125,0.0762 l 0.5996093,-0.1504 c 0.1111257,-0.0278 0.2275269,-0.0159 0.3300782,0.0352 l 0.6464844,0.32227 c 0.2154117,0.10718 0.4640004,0.13319 0.6972656,0.0742 L 7.125,260.6405 c 0.111115,-0.0281 0.2273195,-0.0156 0.3300781,0.0351 l 0.6542969,0.32422 c 0.2154786,0.10643 0.4622653,0.13098 0.6953125,0.0723 l 0.5898437,-0.14844 c 0.1109865,-0.028 0.2295159,-0.0157 0.3320313,0.0352 L 10.375,261.28112 c 0.215544,0.10702 0.462091,0.13355 0.695312,0.0742 l 0.580079,-0.14648 c 0.110661,-0.0281 0.227824,-0.0157 0.330078,0.0351 l 0.648437,0.32032 c 0.215157,0.10692 0.462135,0.13408 0.695313,0.0762 l 0.605469,-0.15039 c 0.113974,-0.0283 0.235358,-0.0164 0.341796,0.0332 l 0.88086,0.41016 a 0.2645835,0.2645835 0 0 0 0.351562,-0.12696 0.2645835,0.2645835 0 0 0 -0.128906,-0.35156 l -0.880859,-0.41211 c -0.216088,-0.10075 -0.460019,-0.1239 -0.691407,-0.0664 l -0.607422,0.15039 c -0.111402,0.0277 -0.227284,0.0159 -0.330078,-0.0352 l -0.648437,-0.32227 c -0.215528,-0.1071 -0.462064,-0.13354 -0.695313,-0.0742 l -0.582031,0.14843 c -0.110691,0.0282 -0.227777,0.0156 -0.330078,-0.0352 L 9.9609375,260.48608 C 9.7455413,260.37913 9.4988207,260.3531 9.265625,260.41188 l -0.5898438,0.14844 c -0.1112115,0.028 -0.2292031,0.0156 -0.3320312,-0.0352 L 7.6894531,260.20105 C 7.4739255,260.0946 7.227196,260.06793 6.9941406,260.12683 L 6.40625,260.27722 c -0.110792,0.028 -0.2277655,0.0138 -0.3300781,-0.0371 L 5.4296875,259.9198 C 5.2144463,259.81269 4.9676132,259.7853 4.734375,259.8436 l -0.5996094,0.15039 c -0.1109534,0.0278 -0.227769,0.014 -0.3300781,-0.0371 l -0.640625,-0.32031 c -0.1986257,-0.0993 -0.4185778,-0.15081 -0.640625,-0.15039 z"
         style="color:#000000;font-style:normal;font-variant:normal;font-weight:normal;font-stretch:normal;font-size:medium;line-height:normal;font-family:sans-serif;font-variant-ligatures:normal;font-variant-position:normal;font-variant-caps:normal;font-variant-numeric:normal;font-variant-alternates:normal;font-variant-east-asian:normal;font-feature-settings:normal;font-variation-settings:normal;text-indent:0;text-align:start;text-decoration:none;text-decoration-line:none;text-decoration-style:solid;text-decoration-color:#000000;letter-spacing:normal;word-spacing:normal;text-transform:none;writing-mode:lr-tb;direction:ltr;text-orientation:mixed;dominant-baseline:auto;baseline-shift:baseline;text-anchor:start;white-space:normal;shape-padding:0;shape-margin:0;inline-size:0;clip-rule:nonzero;display:inline;overflow:visible;visibility:visible;isolation:auto;mix-blend-mode:normal;color-interpolation:sRGB;color-interpolation-filters:linearRGB;solid-color:#000000;solid-opacity:1;vector-effect:none;fill:#ffefeb;fill-opacity:1;fill-rule:nonzero;stroke:none;stroke-width:0.529167;stroke-linecap:round;stroke-linejoin:round;stroke-miterlimit:4;stroke-dasharray:none;stroke-dashoffset:0;stroke-opacity:1;color-rendering:auto;image-rendering:auto;shape-rendering:auto;text-rendering:auto;enable-background:accumulate;stop-color:#000000" />
      <path
         sodipodi:nodetypes="ccccccccccccccccccccccccccccccccccccccccccc"
         transform="matrix(0.26458334,0,0,0.26458334,0,280.06666)"
         d="m 33.779297,-100.65234 -1.070313,2.140621 c -0.247857,0.495558 -0.04552,1.09818 0.451172,1.34375 0.495558,0.247857 1.09818,0.04552 1.34375,-0.451172 l 1.070313,-2.140625 c 0.24786,-0.495564 0.04553,-1.098184 -0.451172,-1.343754 -0.61654,-0.27296 -1.116853,-0.0493 -1.34375,0.45118 z m 4.732422,1.689449 c -0.493749,0.248418 -0.692328,0.850278 -0.44336,1.34375 l 1.070313,2.140625 c 0.24557,0.496695 0.848192,0.699029 1.34375,0.451172 0.493749,-0.248418 0.692328,-0.850278 0.443359,-1.34375 l -1.070312,-2.140625 c -0.464465,-0.568338 -0.76146,-0.538378 -1.34375,-0.451172 z m -12.933594,3.039063 c -0.594785,-0.0029 -1.077992,0.479424 -1.076172,1.074219 0.0014,0.592504 0.483679,1.071253 1.076172,1.068359 0.588682,-0.0025 1.064984,-0.479668 1.066406,-1.068359 0.0018,-0.590977 -0.475437,-1.071717 -1.066406,-1.074219 z m -12.681641,1.162109 c -0.24286,0.493093 -0.04223,1.089761 0.449219,1.335938 l 2.140625,1.070312 c 0.493472,0.248969 1.095332,0.05039 1.34375,-0.443359 0.248133,-0.495036 0.04674,-1.097465 -0.449219,-1.34375 l -2.140625,-1.070313 c -0.622054,-0.250866 -1.118432,-0.0011 -1.34375,0.451172 z m 19.28125,0.53125 c -0.248968,0.493472 -0.05039,1.095332 0.44336,1.34375 l 2.148437,1.070313 c 0.493612,0.242581 1.09047,0.04101 1.335938,-0.451172 0.243707,-0.491537 0.04588,-1.087644 -0.44336,-1.335938 l -2.140625,-1.070312 c -0.619068,-0.267364 -1.088581,0.0057 -1.34375,0.443359 z m 9.464844,0.447266 c -0.594022,-0.0018 -1.076032,0.480191 -1.074219,1.074219 0.0014,0.591738 0.482487,1.07017 1.074219,1.068359 0.588682,-0.0025 1.064984,-0.479668 1.066406,-1.068359 0.0018,-0.590977 -0.475437,-1.071717 -1.066406,-1.074219 z m 5.355469,1.066406 c -0.595552,-0.0029 -1.07908,0.480614 -1.076172,1.076172 0.0025,0.59174 0.484439,1.069299 1.076172,1.066406 0.587923,-0.0025 1.063914,-0.478478 1.066406,-1.066406 0.0029,-0.591739 -0.474671,-1.073671 -1.066406,-1.076172 z"
         style="color:#000000;font-style:normal;font-variant:normal;font-weight:normal;font-stretch:normal;font-size:medium;line-height:normal;font-family:sans-serif;font-variant-ligatures:normal;font-variant-position:normal;font-variant-caps:normal;font-variant-numeric:normal;font-variant-alternates:normal;font-variant-east-asian:normal;font-feature-settings:normal;font-variation-settings:normal;text-indent:0;text-align:start;text-decoration:none;text-decoration-line:none;text-decoration-style:solid;text-decoration-color:#000000;letter-spacing:normal;word-spacing:normal;text-transform:none;writing-mode:lr-tb;direction:ltr;text-orientation:mixed;dominant-baseline:auto;baseline-shift:baseline;text-anchor:start;white-space:normal;shape-padding:0;shape-margin:0;inline-size:0;clip-rule:nonzero;display:inline;overflow:visible;visibility:visible;opacity:1;isolation:auto;mix-blend-mode:normal;color-interpolation:sRGB;color-interpolation-filters:linearRGB;solid-color:#000000;solid-opacity:1;vector-effect:none;fill:#ffefeb;fill-opacity:1;fill-rule:nonzero;stroke:none;stroke-width:2;stroke-linecap:round;stroke-linejoin:round;stroke-miterlimit:4;stroke-dasharray:none;stroke-dashoffset:0;stroke-opacity:1;color-rendering:auto;image-rendering:auto;shape-rendering:auto;text-rendering:auto;enable-background:accumulate;stop-color:#000000;stop-opacity:1"
         id="path1673" />
      <path
         id="path1657"
         d="m 6.2167969,251.94531 c -0.6975644,0 -1.2851574,0.53844 -1.2851563,1.21875 -1.1e-6,0.68032 0.5875951,1.22071 1.2851563,1.22071 0.6975613,0 1.2851575,-0.54039 1.2851562,-1.22071 1.3e-6,-0.68031 -0.5875918,-1.21875 -1.2851562,-1.21875 z"
         style="color:#000000;font-style:normal;font-variant:normal;font-weight:normal;font-stretch:normal;font-size:medium;line-height:normal;font-family:sans-serif;font-variant-ligatures:normal;font-variant-position:normal;font-variant-caps:normal;font-variant-numeric:normal;font-variant-alternates:normal;font-variant-east-asian:normal;font-feature-settings:normal;font-variation-settings:normal;text-indent:0;text-align:start;text-decoration:none;text-decoration-line:none;text-decoration-style:solid;text-decoration-color:#000000;letter-spacing:normal;word-spacing:normal;text-transform:none;writing-mode:lr-tb;direction:ltr;text-orientation:mixed;dominant-baseline:auto;baseline-shift:baseline;text-anchor:start;white-space:normal;shape-padding:0;shape-margin:0;inline-size:0;clip-rule:nonzero;display:inline;overflow:visible;visibility:visible;isolation:auto;mix-blend-mode:normal;color-interpolation:sRGB;color-interpolation-filters:linearRGB;solid-color:#000000;solid-opacity:1;vector-effect:none;fill:#a60f0c;fill-opacity:1;fill-rule:nonzero;stroke:none;stroke-width:0.529167;stroke-linecap:round;stroke-linejoin:round;stroke-miterlimit:4;stroke-dasharray:none;stroke-dashoffset:0;stroke-opacity:1;color-rendering:auto;image-rendering:auto;shape-rendering:auto;text-rendering:auto;enable-background:accumulate;stop-color:#000000" />
      <path
         d="m 6.2166749,251.94538 c -0.5013744,0 -0.9419777,0.28029 -1.1523845,0.68936 0.1864613,-0.0992 0.3975787,-0.1602 0.6232178,-0.1602 0.6975644,0 1.2851942,0.53822 1.2851929,1.21854 4e-7,0.19196 -0.051008,0.37055 -0.133842,0.53123 0.3904886,-0.20803 0.6630096,-0.59978 0.6630087,-1.0604 1.3e-6,-0.68031 -0.5876285,-1.21853 -1.2851929,-1.21853 z"
         style="color:#000000;font-style:normal;font-variant:normal;font-weight:normal;font-stretch:normal;font-size:medium;line-height:normal;font-family:sans-serif;font-variant-ligatures:normal;font-variant-position:normal;font-variant-caps:normal;font-variant-numeric:normal;font-variant-alternates:normal;font-variant-east-asian:normal;font-feature-settings:normal;font-variation-settings:normal;text-indent:0;text-align:start;text-decoration:none;text-decoration-line:none;text-decoration-style:solid;text-decoration-color:#000000;letter-spacing:normal;word-spacing:normal;text-transform:none;writing-mode:lr-tb;direction:ltr;text-orientation:mixed;dominant-baseline:auto;baseline-shift:baseline;text-anchor:start;white-space:normal;shape-padding:0;shape-margin:0;inline-size:0;clip-rule:nonzero;display:inline;overflow:visible;visibility:visible;isolation:auto;mix-blend-mode:normal;color-interpolation:sRGB;color-interpolation-filters:linearRGB;solid-color:#000000;solid-opacity:1;vector-effect:none;fill:#940f0c;fill-opacity:1;fill-rule:nonzero;stroke:none;stroke-width:0.529167;stroke-linecap:round;stroke-linejoin:round;stroke-miterlimit:4;stroke-dasharray:none;stroke-dashoffset:0;stroke-opacity:1;color-rendering:auto;image-rendering:auto;shape-rendering:auto;text-rendering:auto;enable-background:accumulate;stop-color:#000000"
         id="path1797" />
      <path
         sodipodi:nodetypes="cccccccccccccccccccc"
         transform="matrix(0.26458334,0,0,0.26458334,0,280.06666)"
         d="m 33.779297,-100.65234 -0.05078,0.10156 c 0.251425,0.0374 0.501295,0.0696 0.753906,0.11133 0.163238,0.0264 0.317578,0.0916 0.449219,0.1914 l 0.640625,0.494144 0.002,-0.0059 c 0.24786,-0.495564 0.04553,-1.098184 -0.451172,-1.343754 -0.61654,-0.28953 -1.10028,-0.0548 -1.34375,0.45118 z m 4.732422,1.689449 c -0.392541,0.197173 -0.610444,0.627433 -0.53711,1.060547 l 3,2.314453 c 0.09112,-0.256816 0.07348,-0.539693 -0.04883,-0.783203 l -1.070312,-2.140625 c -0.340351,-0.57742 -0.8209,-0.662593 -1.343748,-0.451172 z m 8.486328,6.246094 c -0.546107,-0.0033 -1.00725,0.404796 -1.070313,0.947266 l 1.455078,1.121093 c 0.409174,-0.159658 0.679382,-0.55297 0.681641,-0.992187 0.0029,-0.591739 -0.474671,-1.073671 -1.066406,-1.076172 z"
         style="color:#000000;font-style:normal;font-variant:normal;font-weight:normal;font-stretch:normal;font-size:medium;line-height:normal;font-family:sans-serif;font-variant-ligatures:normal;font-variant-position:normal;font-variant-caps:normal;font-variant-numeric:normal;font-variant-alternates:normal;font-variant-east-asian:normal;font-feature-settings:normal;font-variation-settings:normal;text-indent:0;text-align:start;text-decoration:none;text-decoration-line:none;text-decoration-style:solid;text-decoration-color:#000000;letter-spacing:normal;word-spacing:normal;text-transform:none;writing-mode:lr-tb;direction:ltr;text-orientation:mixed;dominant-baseline:auto;baseline-shift:baseline;text-anchor:start;white-space:normal;shape-padding:0;shape-margin:0;inline-size:0;clip-rule:nonzero;display:inline;overflow:visible;visibility:visible;isolation:auto;mix-blend-mode:normal;color-interpolation:sRGB;color-interpolation-filters:linearRGB;solid-color:#000000;solid-opacity:1;vector-effect:none;fill:#e5d8d4;fill-opacity:1;fill-rule:nonzero;stroke:none;stroke-width:2;stroke-linecap:round;stroke-linejoin:round;stroke-miterlimit:4;stroke-dasharray:none;stroke-dashoffset:0;stroke-opacity:1;color-rendering:auto;image-rendering:auto;shape-rendering:auto;text-rendering:auto;enable-background:accumulate;stop-color:#000000"
         id="path1808" />
      <path
         transform="matrix(0.26458334,0,0,0.26458334,0,280.06666)"
         d="m 8.4453125,-68.925781 a 1.0000006,1.0000006 0 0 0 -1.0039063,0.996093 l -0.011719,4.84375 1.9980469,0.285157 0.013672,-5.121094 a 1.0000006,1.0000006 0 0 0 -0.9960936,-1.003906 z m 6.4218755,0.916015 a 1.0000006,1.0000006 0 0 0 -1.003907,0.996094 l -0.0059,4.845703 1.99414,0.285157 0.01172,-5.123047 a 1.0000006,1.0000006 0 0 0 -0.996093,-1.003907 z m 6.429687,0.921875 a 1.0000006,1.0000006 0 0 0 -0.996094,0.996094 l -0.01172,4.84375 1.998047,0.285156 0.0059,-5.128906 a 1.0000006,1.0000006 0 0 0 -0.996094,-0.996094 z m 6.429687,0.916016 a 1.0000006,1.0000006 0 0 0 -1.003906,0.996094 l -0.01172,4.845703 2,0.285156 0.01172,-5.123047 a 1.0000006,1.0000006 0 0 0 -0.996094,-1.003906 z m 6.421876,0.914063 a 1.0000006,1.0000006 0 0 0 -1.003907,1.005859 l -0.0059,4.839844 2,0.287109 0.0059,-5.126953 a 1.0000006,1.0000006 0 0 0 -0.996093,-1.005859 z m 6.421874,0.923828 a 1.0000006,1.0000006 0 0 0 -1.003906,0.996093 l -0.01172,4.84375 2,0.285157 0.01367,-5.128907 a 1.0000006,1.0000006 0 0 0 -0.998047,-0.996093 z M 47,-63.417969 a 1.0000006,1.0000006 0 0 0 -1.003906,0.996094 l -0.0059,4.847656 2,0.285157 0.0059,-5.125 A 1.0000006,1.0000006 0 0 0 47,-63.417969 Z m 6.429688,0.914063 A 1.0000006,1.0000006 0 0 0 52.425781,-61.5 l -0.01172,4.84375 2,0.285156 0.01172,-5.128906 a 1.0000006,1.0000006 0 0 0 -0.996093,-1.003906 z"
         style="color:#000000;font-style:normal;font-variant:normal;font-weight:normal;font-stretch:normal;font-size:medium;line-height:normal;font-family:sans-serif;font-variant-ligatures:normal;font-variant-position:normal;font-variant-caps:normal;font-variant-numeric:normal;font-variant-alternates:normal;font-variant-east-asian:normal;font-feature-settings:normal;font-variation-settings:normal;text-indent:0;text-align:start;text-decoration:none;text-decoration-line:none;text-decoration-style:solid;text-decoration-color:#000000;letter-spacing:normal;word-spacing:normal;text-transform:none;writing-mode:lr-tb;direction:ltr;text-orientation:mixed;dominant-baseline:auto;baseline-shift:baseline;text-anchor:start;white-space:normal;shape-padding:0;shape-margin:0;inline-size:0;clip-rule:nonzero;display:inline;overflow:visible;visibility:visible;opacity:1;isolation:auto;mix-blend-mode:normal;color-interpolation:sRGB;color-interpolation-filters:linearRGB;solid-color:#000000;solid-opacity:1;vector-effect:none;fill:#e6af99;fill-opacity:1;fill-rule:nonzero;stroke:none;stroke-width:2;stroke-linecap:round;stroke-linejoin:round;stroke-miterlimit:4;stroke-dasharray:none;stroke-dashoffset:0;stroke-opacity:1;color-rendering:auto;image-rendering:auto;shape-rendering:auto;text-rendering:auto;enable-background:accumulate;stop-color:#000000;stop-opacity:1"
         id="path1757" />
      <path
         transform="matrix(0.26458334,0,0,0.26458334,0,280.06666)"
         d="m 53.099609,-72.253906 c 0.522908,0.672603 0.909058,1.449029 1.083985,2.28125 l 3.085937,1.4375 a 1.0000006,1.0000006 0 0 0 1.328125,-0.480469 1.0000006,1.0000006 0 0 0 -0.488281,-1.328125 l -3.328125,-1.556641 c -0.529901,-0.247064 -1.10483,-0.356535 -1.681641,-0.353515 z"
         style="color:#000000;font-style:normal;font-variant:normal;font-weight:normal;font-stretch:normal;font-size:medium;line-height:normal;font-family:sans-serif;font-variant-ligatures:normal;font-variant-position:normal;font-variant-caps:normal;font-variant-numeric:normal;font-variant-alternates:normal;font-variant-east-asian:normal;font-feature-settings:normal;font-variation-settings:normal;text-indent:0;text-align:start;text-decoration:none;text-decoration-line:none;text-decoration-style:solid;text-decoration-color:#000000;letter-spacing:normal;word-spacing:normal;text-transform:none;writing-mode:lr-tb;direction:ltr;text-orientation:mixed;dominant-baseline:auto;baseline-shift:baseline;text-anchor:start;white-space:normal;shape-padding:0;shape-margin:0;inline-size:0;clip-rule:nonzero;display:inline;overflow:visible;visibility:visible;isolation:auto;mix-blend-mode:normal;color-interpolation:sRGB;color-interpolation-filters:linearRGB;solid-color:#000000;solid-opacity:1;vector-effect:none;fill:#ebddd9;fill-opacity:1;fill-rule:nonzero;stroke:none;stroke-width:2;stroke-linecap:round;stroke-linejoin:round;stroke-miterlimit:4;stroke-dasharray:none;stroke-dashoffset:0;stroke-opacity:1;color-rendering:auto;image-rendering:auto;shape-rendering:auto;text-rendering:auto;enable-background:accumulate;stop-color:#000000"
         id="path539" />
      <path
         transform="matrix(0.26458334,0,0,0.26458334,0,280.06666)"
         d="m 53.429688,-62.503906 a 1.0000006,1.0000006 0 0 0 -0.550782,0.162109 c 0.872987,1.117744 1.419922,2.489235 1.419922,3.921875 v 2.033203 l 0.115234,0.01563 0.01172,-5.128906 a 1.0000006,1.0000006 0 0 0 -0.996093,-1.003906 z"
         style="color:#000000;font-style:normal;font-variant:normal;font-weight:normal;font-stretch:normal;font-size:medium;line-height:normal;font-family:sans-serif;font-variant-ligatures:normal;font-variant-position:normal;font-variant-caps:normal;font-variant-numeric:normal;font-variant-alternates:normal;font-variant-east-asian:normal;font-feature-settings:normal;font-variation-settings:normal;text-indent:0;text-align:start;text-decoration:none;text-decoration-line:none;text-decoration-style:solid;text-decoration-color:#000000;letter-spacing:normal;word-spacing:normal;text-transform:none;writing-mode:lr-tb;direction:ltr;text-orientation:mixed;dominant-baseline:auto;baseline-shift:baseline;text-anchor:start;white-space:normal;shape-padding:0;shape-margin:0;inline-size:0;clip-rule:nonzero;display:inline;overflow:visible;visibility:visible;isolation:auto;mix-blend-mode:normal;color-interpolation:sRGB;color-interpolation-filters:linearRGB;solid-color:#000000;solid-opacity:1;vector-effect:none;fill:#cc9b86;fill-opacity:1;fill-rule:nonzero;stroke:none;stroke-width:2;stroke-linecap:round;stroke-linejoin:round;stroke-miterlimit:4;stroke-dasharray:none;stroke-dashoffset:0;stroke-opacity:1;color-rendering:auto;image-rendering:auto;shape-rendering:auto;text-rendering:auto;enable-background:accumulate;stop-color:#000000"
         id="path1373" />
    </g>
  </g>
</svg>
