<?xml version="1.0" encoding="UTF-8" standalone="no"?>
<svg
   sodipodi:docname="14 - Fries French.svg"
   inkscape:version="1.1.1 (1:1.1+202109281949+c3084ef5ed)"
   id="svg831"
   version="1.1"
   viewBox="0 0 22.577778 22.577778"
   height="64pt"
   width="64pt"
   inkscape:export-filename="/media/taufikramadhan/Data/Tr Design Studio/Project Design/TR Creative Design/Icon Design/Project Hiring/Icon Icons/010 - Food/Send/3 - Flat/14 - Fries French.png"
   inkscape:export-xdpi="576"
   inkscape:export-ydpi="576"
   xmlns:inkscape="http://www.inkscape.org/namespaces/inkscape"
   xmlns:sodipodi="http://sodipodi.sourceforge.net/DTD/sodipodi-0.dtd"
   xmlns:xlink="http://www.w3.org/1999/xlink"
   xmlns="http://www.w3.org/2000/svg"
   xmlns:svg="http://www.w3.org/2000/svg"
   xmlns:rdf="http://www.w3.org/1999/02/22-rdf-syntax-ns#"
   xmlns:cc="http://creativecommons.org/ns#"
   xmlns:dc="http://purl.org/dc/elements/1.1/">
  <defs
     id="defs825">
    <pattern
       y="0"
       x="0"
       height="6"
       width="6"
       patternUnits="userSpaceOnUse"
       id="EMFhbasepattern" />
    <pattern
       y="0"
       x="0"
       height="6"
       width="6"
       patternUnits="userSpaceOnUse"
       id="EMFhbasepattern-9" />
    <pattern
       y="0"
       x="0"
       height="6"
       width="6"
       patternUnits="userSpaceOnUse"
       id="EMFhbasepattern-0" />
    <pattern
       y="0"
       x="0"
       height="6"
       width="6"
       patternUnits="userSpaceOnUse"
       id="EMFhbasepattern-7" />
    <pattern
       y="0"
       x="0"
       height="6"
       width="6"
       patternUnits="userSpaceOnUse"
       id="EMFhbasepattern-2" />
    <pattern
       y="0"
       x="0"
       height="6"
       width="6"
       patternUnits="userSpaceOnUse"
       id="EMFhbasepattern-98" />
    <pattern
       y="0"
       x="0"
       height="6"
       width="6"
       patternUnits="userSpaceOnUse"
       id="EMFhbasepattern-6" />
    <pattern
       y="0"
       x="0"
       height="6"
       width="6"
       patternUnits="userSpaceOnUse"
       id="EMFhbasepattern-01" />
    <pattern
       y="0"
       x="0"
       height="6"
       width="6"
       patternUnits="userSpaceOnUse"
       id="EMFhbasepattern-07" />
    <pattern
       y="0"
       x="0"
       height="6"
       width="6"
       patternUnits="userSpaceOnUse"
       id="EMFhbasepattern-8" />
    <pattern
       y="0"
       x="0"
       height="6"
       width="6"
       patternUnits="userSpaceOnUse"
       id="EMFhbasepattern-4" />
    <pattern
       y="0"
       x="0"
       height="6"
       width="6"
       patternUnits="userSpaceOnUse"
       id="EMFhbasepattern-40" />
    <pattern
       y="0"
       x="0"
       height="6"
       width="6"
       patternUnits="userSpaceOnUse"
       id="EMFhbasepattern-08" />
    <pattern
       y="0"
       x="0"
       height="6"
       width="6"
       patternUnits="userSpaceOnUse"
       id="EMFhbasepattern-04" />
    <pattern
       y="0"
       x="0"
       height="6"
       width="6"
       patternUnits="userSpaceOnUse"
       id="EMFhbasepattern-014" />
    <pattern
       y="0"
       x="0"
       height="6"
       width="6"
       patternUnits="userSpaceOnUse"
       id="EMFhbasepattern-27" />
    <pattern
       y="0"
       x="0"
       height="6"
       width="6"
       patternUnits="userSpaceOnUse"
       id="EMFhbasepattern-09" />
    <pattern
       y="0"
       x="0"
       height="6"
       width="6"
       patternUnits="userSpaceOnUse"
       id="EMFhbasepattern-5" />
    <pattern
       y="0"
       x="0"
       height="6"
       width="6"
       patternUnits="userSpaceOnUse"
       id="EMFhbasepattern-018" />
  </defs>
  <sodipodi:namedview
     inkscape:document-rotation="0"
     inkscape:snap-global="true"
     inkscape:snap-nodes="false"
     inkscape:bbox-nodes="true"
     inkscape:snap-bbox="true"
     showguides="true"
     inkscape:snap-midpoints="true"
     inkscape:snap-smooth-nodes="true"
     inkscape:snap-intersection-paths="true"
     inkscape:object-paths="true"
     inkscape:showpageshadow="false"
     inkscape:pagecheckerboard="true"
     inkscape:window-maximized="1"
     inkscape:window-y="31"
     inkscape:window-x="0"
     inkscape:window-height="705"
     inkscape:window-width="1366"
     units="pt"
     showgrid="false"
     inkscape:current-layer="layer1"
     inkscape:document-units="pt"
     inkscape:cy="42.732286"
     inkscape:cx="42.628314"
     inkscape:zoom="4.8090103"
     inkscape:pageshadow="2"
     inkscape:pageopacity="0.0"
     borderopacity="1.0"
     bordercolor="#666666"
     pagecolor="#ffffff"
     id="base">
    <inkscape:grid
       id="grid1378"
       type="xygrid" />
    <sodipodi:guide
       inkscape:locked="false"
       id="guide1380"
       orientation="78.000048,0"
       position="0.97013831,21.607643" />
    <sodipodi:guide
       inkscape:locked="false"
       id="guide1382"
       orientation="0,78.000005"
       position="0.97013831,0.97013129" />
    <sodipodi:guide
       inkscape:locked="false"
       id="guide1384"
       orientation="-78.000048,0"
       position="21.607639,0.97013129" />
    <sodipodi:guide
       inkscape:locked="false"
       id="guide1386"
       orientation="0,-78.000005"
       position="21.607639,21.607643" />
  </sodipodi:namedview>
  <metadata
     id="metadata828">
    <rdf:RDF>
      <cc:Work
         rdf:about="">
        <dc:format>image/svg+xml</dc:format>
        <dc:type
           rdf:resource="http://purl.org/dc/dcmitype/StillImage" />
      </cc:Work>
    </rdf:RDF>
  </metadata>
  <g
     transform="translate(0,-274.42223)"
     id="layer1"
     inkscape:groupmode="layer"
     inkscape:label="Icon">
    <g
       id="g118325"
       style="display:inline"
       transform="matrix(1.258069,0,0,1.258069,39.011893,-115.65869)">
      <g
         id="g98955"
         transform="translate(0,10.583333)">
        <path
           style="color:#000000;fill:#fed883;stroke-linecap:round;stroke-linejoin:round;stroke-miterlimit:1.5;-inkscape-stroke:none"
           d="m -16.552734,303.45572 a 0.26460996,0.26460996 0 0 0 -0.263672,0.2461 l -0.191406,2.88086 a 0.26460996,0.26460996 0 0 0 -0.002,0.0176 v 0.53321 a 0.26460996,0.26460996 0 0 0 0.267579,0.26562 l 0.724609,-0.01 a 0.26460996,0.26460996 0 0 0 0.257812,-0.22071 l 0.488282,-2.91211 c 0.06954,-0.41453 -0.259365,-0.80078 -0.679688,-0.80078 z"
           id="path2440" />
        <path
           id="path97092"
           style="fill:#ec7523;fill-opacity:1;stroke-width:3.77953;stroke-linecap:round;stroke-linejoin:round;stroke-miterlimit:1.5"
           d="m -60.287109,88.398438 -2.273438,0.002 a 1.0001006,1.0001006 0 0 0 -0.998047,0.929687 L -64.28125,100.2188 a 1.0001006,1.0001006 0 0 0 -0.0078,0.0664 v 2.01562 a 1.0001006,1.0001006 0 0 0 1.011718,1.00391 l 2.160156,-0.0312 c 0.147985,-0.30606 0.233745,-0.63975 0.232422,-0.98242 v -1.92774 l 0.792969,-11.957033 c -0.06489,-0.005 -0.12914,-0.0078 -0.195312,-0.0078 z"
           transform="matrix(0.26458334,0,0,0.26458334,0,280.06666)" />
        <path
           style="color:#000000;fill:#fed883;stroke-linecap:round;stroke-linejoin:round;stroke-miterlimit:1.5;-inkscape-stroke:none"
           d="m -18.052734,302.36783 a 0.26460996,0.26460996 0 0 0 -0.265625,0.26367 v 4.50196 a 0.26460996,0.26460996 0 0 0 0.265625,0.26562 h 1.308593 a 0.26460996,0.26460996 0 0 0 0.263672,-0.26562 v -0.52344 l 0.263672,-3.96094 a 0.26460996,0.26460996 0 0 0 -0.263672,-0.28125 z"
           id="path2488" />
        <g
           id="g97090">
          <path
             id="path92536"
             style="fill:#ec7523;fill-opacity:1;stroke-width:3.77953;stroke-linecap:round;stroke-linejoin:round;stroke-miterlimit:1.5"
             d="m -68.230469,84.287109 a 1.0001006,1.0001006 0 0 0 -1.003906,0.998047 v 17.013674 a 1.0001006,1.0001006 0 0 0 1.003906,1.0039 h 4.121094 c 0.131571,-0.32037 0.20643,-0.66349 0.205078,-1.01367 V 84.287109 Z"
             transform="matrix(0.26458334,0,0,0.26458334,0,280.06666)" />
          <path
             style="color:#000000;fill:#fed883;stroke-linecap:round;stroke-linejoin:round;stroke-miterlimit:1.5;-inkscape-stroke:none"
             d="m -19.242187,301.11588 a 0.26460996,0.26460996 0 0 0 -0.265625,0.26562 v 5.75196 a 0.26460996,0.26460996 0 0 0 0.265625,0.26562 h 1.572265 a 0.26460996,0.26460996 0 0 0 0.265625,-0.26562 v -5.75196 a 0.26460996,0.26460996 0 0 0 -0.265625,-0.26562 z"
             id="path2482" />
          <path
             id="path95674"
             style="fill:#ec7523;fill-opacity:1;stroke-width:3.77953;stroke-linecap:round;stroke-linejoin:round;stroke-miterlimit:1.5"
             d="m -73.730469,81.587891 v 20.710939 a 1.0001006,1.0001006 0 0 0 1.003907,1.0039 h 2.40039 v -3.02148 -15.996094 c -6.4e-5,-1.075351 -0.813548,-2.097916 -1.861328,-2.339844 z"
             transform="matrix(0.26458334,0,0,0.26458334,0,280.06666)" />
        </g>
        <path
           style="color:#000000;fill:#fed883;stroke-linecap:round;stroke-linejoin:round;stroke-miterlimit:1.5;-inkscape-stroke:none"
           d="m -21.089844,301.66861 a 0.26460996,0.26460996 0 0 0 -0.324218,0.25782 v 1.04101 6.67188 a 0.26460996,0.26460996 0 0 0 0.265625,0.26367 h 1.90625 a 0.26460996,0.26460996 0 0 0 0.263671,-0.26367 v -3.03907 -4.23242 a 0.26460996,0.26460996 0 0 0 -0.205078,-0.25781 z"
           id="path2476" />
        <path
           style="color:#000000;fill:#fed883;stroke-linecap:round;stroke-linejoin:round;stroke-miterlimit:1.5;-inkscape-stroke:none"
           d="m -26.351562,300.26432 -1.607422,0.52929 a 0.26460996,0.26460996 0 0 0 -0.179688,0.28516 l 0.746094,5.55664 a 0.26460996,0.26460996 0 0 0 0.261719,0.23047 h 1.542968 a 0.26460996,0.26460996 0 0 0 0.261719,-0.29492 l -0.679687,-6.08594 a 0.26460996,0.26460996 0 0 0 -0.345703,-0.2207 z"
           id="path2446" />
        <path
           id="path79970"
           style="fill:#ec7523;fill-opacity:1;stroke-width:3.77953;stroke-linecap:round;stroke-linejoin:round;stroke-miterlimit:1.5"
           d="m -80.935547,83.851562 v 2.703126 25.216792 a 1.0001006,1.0001006 0 0 0 1.003906,0.9961 h 4.296875 V 86.546875 c -0.0049,-1.411049 -1.282325,-2.690324 -2.693359,-2.695313 z"
           transform="matrix(0.26458334,0,0,0.26458334,0,280.06666)" />
        <path
           style="color:#000000;fill:#fed883;stroke-linecap:round;stroke-linejoin:round;stroke-miterlimit:1.5;-inkscape-stroke:none"
           d="m -22.367187,300.61197 -2.023438,0.5293 a 0.26460996,0.26460996 0 0 0 -0.197266,0.25976 l 0.02734,3.15625 a 0.26460996,0.26460996 0 0 0 0.05273,0.15821 l 0.986328,1.30859 v 3.92969 a 0.26460996,0.26460996 0 0 0 0.265625,0.26367 h 0.955078 a 0.26460996,0.26460996 0 0 0 0.263672,-0.26367 v -9.08594 a 0.26460996,0.26460996 0 0 0 -0.330078,-0.25586 z"
           id="path2464" />
        <path
           id="path87660"
           style="fill:#ec7523;fill-opacity:1;stroke-width:1;stroke-linecap:round;stroke-linejoin:round;stroke-miterlimit:1.5"
           d="m -26.077995,301.55269 c -0.376722,7e-5 -0.710084,0.37183 -0.668176,0.74621 l 0.490409,4.37492 c 0.0074,0.067 0.02627,0.13164 0.05426,0.19224 h 0.613399 a 0.26460996,0.26460996 0 0 0 0.262,-0.29507 l -0.560173,-5.0183 z" />
        <path
           id="path89208"
           style="fill:#ec7523;fill-opacity:1;stroke-width:1;stroke-linecap:round;stroke-linejoin:round;stroke-miterlimit:1.5"
           d="m -24.586613,301.55269 0.02584,3.00447 a 0.26460996,0.26460996 0 0 0 0.05271,0.15813 l 0.349849,0.46405 v -0.0134 c 0.288723,-0.076 0.536697,-0.31468 0.533301,-0.61701 l -0.0217,-2.33216 c -0.0038,-0.34848 -0.319163,-0.66282 -0.667659,-0.66404 z" />
        <path
           style="color:#000000;fill:#fed883;stroke-linecap:round;stroke-linejoin:round;stroke-miterlimit:1.5;-inkscape-stroke:none"
           d="m -26.078125,301.95963 a 0.26460996,0.26460996 0 0 0 -0.263672,0.29492 l 0.490235,4.375 a 0.26460996,0.26460996 0 0 0 0.263671,0.23633 h 0.757813 a 0.26460996,0.26460996 0 0 0 0.265625,-0.26563 v -1.77929 h 0.267578 a 0.26460996,0.26460996 0 0 0 0.265625,-0.26758 l -0.02148,-2.33203 a 0.26460996,0.26460996 0 0 0 -0.263672,-0.26172 z"
           id="path2452" />
        <path
           id="path82540"
           style="color:#000000;fill:#ec7523;fill-opacity:1;stroke-width:3.77953;stroke-linecap:round;stroke-linejoin:round;stroke-miterlimit:1.5;-inkscape-stroke:none"
           d="m -92.849609,89.984375 0.02148,2.578125 a 1.0001006,1.0001006 0 0 0 0.199219,0.597656 l 3.728515,4.947266 v 14.851558 a 1.0001006,1.0001006 0 0 0 1.003907,0.9961 h 2.34375 c 0.142723,-0.30975 0.225353,-0.64552 0.226562,-0.99024 V 92.544922 c -0.0049,-1.341317 -1.221161,-2.555785 -2.5625,-2.560547 z"
           transform="matrix(0.26458334,0,0,0.26458334,0,280.06666)" />
        <path
           id="path81795"
           style="fill:#ec7523;fill-opacity:1;stroke-width:3.77953;stroke-linecap:round;stroke-linejoin:round;stroke-miterlimit:1.5"
           d="m -93.853516,89.984375 c -1.341346,0.0038 -2.555788,1.21923 -2.560546,2.560547 v 8.744138 h 2.568359 a 1.0001006,1.0001006 0 0 0 1.003906,-1.0039 v -6.726566 h 1.011719 a 1.0001006,1.0001006 0 0 0 1.003906,-1.009766 l -0.02344,-2.564453 z"
           transform="matrix(0.26458334,0,0,0.26458334,0,280.06666)" />
        <path
           style="color:#000000;fill:#fed883;stroke-linecap:round;stroke-linejoin:round;stroke-miterlimit:1.5;-inkscape-stroke:none"
           d="m -24.830078,304.29166 a 0.26460996,0.26460996 0 0 0 -0.263672,0.26367 v 5.39844 a 0.26460996,0.26460996 0 0 0 0.263672,0.26367 h 1.574219 a 0.26460996,0.26460996 0 0 0 0.263672,-0.26367 v -5.39844 a 0.26460996,0.26460996 0 0 0 -0.263672,-0.26367 z"
           id="path2458" />
        <path
           id="path79972"
           style="color:#000000;fill:#ec7523;fill-opacity:1;stroke-width:3.77953;stroke-linecap:round;stroke-linejoin:round;stroke-miterlimit:1.5;-inkscape-stroke:none"
           d="m -84.292969,83.851562 c -1.411037,0.0038 -2.690308,1.284264 -2.695312,2.695313 v 27.408205 h 2.701172 a 1.0001006,1.0001006 0 0 0 0.998047,-0.9961 V 83.851562 Z"
           transform="matrix(0.26458334,0,0,0.26458334,0,280.06666)" />
        <path
           style="color:#000000;fill:#fed883;stroke-linecap:round;stroke-linejoin:round;stroke-miterlimit:1.5;-inkscape-stroke:none"
           sodipodi:type="inkscape:offset"
           inkscape:radius="0"
           inkscape:original="M -22.300781 313.28711 A 0.26460996 0.26460996 0 0 0 -22.564453 313.55078 L -22.564453 320.9668 A 0.26460996 0.26460996 0 0 0 -22.300781 321.23242 L -20.726562 321.23242 A 0.26460996 0.26460996 0 0 0 -20.462891 320.9668 L -20.462891 313.55078 A 0.26460996 0.26460996 0 0 0 -20.726562 313.28711 L -22.300781 313.28711 z "
           xlink:href="#path2470"
           id="path74102"
           transform="translate(0,-10.583333)"
           inkscape:href="#path2470"
           d="m -22.300781,313.28711 a 0.26460996,0.26460996 0 0 0 -0.263672,0.26367 v 7.41602 a 0.26460996,0.26460996 0 0 0 0.263672,0.26562 h 1.574219 a 0.26460996,0.26460996 0 0 0 0.263671,-0.26562 v -7.41602 a 0.26460996,0.26460996 0 0 0 -0.263671,-0.26367 z" />
        <path
           id="path90281"
           style="fill:#ec7523;fill-opacity:1;stroke-width:3.77953;stroke-linecap:round;stroke-linejoin:round;stroke-miterlimit:1.5"
           d="m -105.35938,86.802734 1.82813,13.615236 a 1.0001006,1.0001006 0 0 0 0.99023,0.87109 h 2.39649 c 0.176133,-0.42509 0.241894,-0.89651 0.179686,-1.353513 l -1.462886,-10.888672 a 1.596735,1.596735 0 0 0 0,-0.002 1.596735,1.596735 0 0 0 0,-0.002 1.596735,1.596735 0 0 0 0,-0.002 1.596735,1.596735 0 0 0 0,-0.002 c -0.16967,-1.232201 -1.33264,-2.239691 -2.57618,-2.236328 z"
           transform="matrix(0.26458334,0,0,0.26458334,0,280.06666)" />
        <path
           style="color:#000000;fill:#fed883;stroke-linecap:round;stroke-linejoin:round;stroke-miterlimit:1.5;-inkscape-stroke:none"
           d="m -28.121094,303.45572 c -0.420322,0 -0.749228,0.38625 -0.679687,0.80078 0.19037,1.13484 0.399643,2.26335 0.554687,3.39258 a 0.26460996,0.26460996 0 0 0 0.462891,0.13477 l 0.855469,-1.01172 a 0.26460996,0.26460996 0 0 0 0.06055,-0.20703 l -0.386719,-2.88086 a 0.26460996,0.26460996 0 0 0 -0.263672,-0.22852 z"
           id="path2434" />
      </g>
      <path
         style="color:#000000;fill:#dc1c4b;stroke-linecap:round;stroke-linejoin:round;stroke-miterlimit:1.5;-inkscape-stroke:none"
         d="m -27.591797,316.91992 c -0.435548,0 -0.77903,0.3926 -0.720703,0.82422 l 1.144531,8.47852 c 0.07834,0.57973 0.577104,1.01562 1.16211,1.01562 h 2.419922 a 0.26460996,0.26460996 0 0 0 0.248046,-0.17187 c 0.197673,-0.5257 0.702732,-0.90039 1.300782,-0.90039 0.59805,0 1.108101,0.3764 1.324218,0.9082 a 0.26460996,0.26460996 0 0 0 0.246094,0.16406 h 2.398438 c 0.585005,0 1.08572,-0.43589 1.164062,-1.01562 l 1.144531,-8.47852 c 0.05833,-0.43162 -0.285155,-0.82422 -0.720703,-0.82422 h -2.761718 a 0.26460996,0.26460996 0 0 0 -0.263672,0.23438 c -0.07148,0.6403 -0.238366,1.39463 -0.615235,1.96289 -0.376869,0.56826 -0.9345,0.96875 -1.916015,0.96875 -0.981517,0 -1.537194,-0.40049 -1.914063,-0.96875 -0.376869,-0.56826 -0.543752,-1.32259 -0.615234,-1.96289 a 0.26460996,0.26460996 0 0 0 -0.263672,-0.23438 z"
         id="path2494" />
      <path
         id="path108694"
         style="color:#000000;fill:#8e1335;fill-opacity:1;stroke-width:1;stroke-linecap:round;stroke-linejoin:round;stroke-miterlimit:1.5;-inkscape-stroke:none"
         d="m -17.538981,316.91971 c 0.435547,0 0.779216,0.39261 0.720886,0.82423 l -1.144633,8.47856 c -0.07834,0.57973 -0.578749,1.01596 -1.163753,1.01596 h 1.058333 c 0.585005,0 1.085411,-0.43623 1.163753,-1.01596 l 1.144633,-8.47856 c 0.05833,-0.43162 -0.285338,-0.82423 -0.720886,-0.82423 z"
         sodipodi:nodetypes="ccccsccsc" />
      <path
         style="color:#000000;fill:#801231;stroke-linecap:round;stroke-linejoin:round;stroke-miterlimit:1.5;-inkscape-stroke:none"
         d="m -26.058594,324.62109 a 0.2645835,0.2645835 0 0 0 -0.226562,0.29883 l 0.08398,0.62695 c 0.04865,0.3608 0.360552,0.63282 0.72461,0.63282 h 0.265625 a 0.2645835,0.2645835 0 0 0 0.263671,-0.26367 0.2645835,0.2645835 0 0 0 -0.263671,-0.26563 h -0.265625 c -0.103181,0 -0.185431,-0.0716 -0.199219,-0.17383 l -0.08398,-0.6289 a 0.2645835,0.2645835 0 0 0 -0.298829,-0.22657 z"
         id="path3131" />
      <path
         style="color:#000000;fill:#801231;stroke-linecap:round;stroke-linejoin:round;stroke-miterlimit:1.5;-inkscape-stroke:none"
         d="m -26.921875,318.23047 a 0.2645835,0.2645835 0 0 0 -0.226562,0.29883 l 0.449218,3.32031 a 0.2645835,0.2645835 0 0 0 0.296875,0.22656 0.2645835,0.2645835 0 0 0 0.226563,-0.29687 L -26.625,318.45898 a 0.2645835,0.2645835 0 0 0 -0.296875,-0.22851 z"
         id="path48427" />
      <path
         id="path2504"
         style="color:#000000;fill:#d0e2ee;stroke-width:3.77953;stroke-linecap:round;stroke-linejoin:round;stroke-miterlimit:1.5;-inkscape-stroke:none"
         d="m -104.59375,160.28906 0.87695,6.4961 h 12.431644 a 1.0001006,1.0001006 0 0 0 0.998047,-0.9961 v -4.5039 a 1.0001006,1.0001006 0 0 0 -0.998047,-0.9961 z m 29.306641,0 a 1.0001006,1.0001006 0 0 0 -0.998047,0.9961 v 4.5039 a 1.0001006,1.0001006 0 0 0 0.998047,0.9961 h 12.43164 l 0.876953,-6.4961 z"
         transform="matrix(0.26458334,0,0,0.26458334,0,280.06666)" />
      <path
         id="path112397"
         style="color:#000000;fill:#a8c2e1;fill-opacity:1;stroke-width:1;stroke-linecap:round;stroke-linejoin:round;stroke-miterlimit:1.5;-inkscape-stroke:none"
         d="m -27.673764,322.47647 0.07131,0.52917 h 3.44992 a 0.26460996,0.26460996 0 0 1 0.264066,0.26355 v -0.52916 a 0.26460996,0.26460996 0 0 0 -0.264066,-0.26356 z m 7.754049,0 a 0.26460996,0.26460996 0 0 0 -0.264066,0.26356 v 0.52916 a 0.26460996,0.26460996 0 0 1 0.264066,-0.26355 h 3.449919 l 0.07131,-0.52917 z" />
      <path
         style="color:#000000;fill:#fca311;stroke-width:3.77953;stroke-linecap:round;stroke-linejoin:round;stroke-miterlimit:1.5;-inkscape-stroke:none"
         d="m -83.289062,155.28516 c -1.801671,0.001 -3.496561,0.81503 -4.628907,2.19531 -1.501959,0.15399 -2.468781,0.38222 -3.197265,0.80859 -0.793433,0.46436 -1.173828,1.37449 -1.173828,2 v 5.99414 c 0,1.6447 1.361145,3.00391 3.005859,3.00391 h 11.994141 c 1.644718,0 3.005859,-1.35921 3.005859,-3.00391 v -5.99414 c 0,-0.62456 -0.381862,-1.52677 -1.173828,-1.99218 -0.727465,-0.42751 -1.694279,-0.6644 -3.19336,-0.81836 -1.133549,-1.37952 -2.831308,-2.19302 -4.632812,-2.19336 a 1.0001006,1.0001006 0 0 0 -0.0059,0 z"
         transform="matrix(0.26458334,0,0,0.26458334,0,280.06666)"
         id="path4925" />
      <path
         id="path100091"
         style="color:#000000;fill:#e05e10;fill-opacity:1;stroke-width:1;stroke-linecap:round;stroke-linejoin:round;stroke-miterlimit:1.5;-inkscape-stroke:none"
         d="m -22.036898,321.15252 c -0.476692,2.7e-4 -0.925132,0.21565 -1.224732,0.58085 -0.397393,0.0407 -0.653198,0.10112 -0.845943,0.21394 -0.209929,0.12286 -0.310576,0.36366 -0.310575,0.52916 v 0.32608 c 1.32497,-0.35503 2.377535,-0.259 3.395152,0.20516 0.209541,0.12314 0.310576,0.36185 0.310576,0.5271 v 1.3224 h 0.263033 c 0.435165,0 0.7953,-0.35963 0.7953,-0.79479 v -1.58595 c 0,-0.16524 -0.101034,-0.40395 -0.310575,-0.52709 -0.192476,-0.11312 -0.448278,-0.1758 -0.84491,-0.21653 -0.299918,-0.365 -0.749117,-0.58023 -1.225765,-0.58032 -5.29e-4,-1e-5 -0.001,-1e-5 -0.0016,0 z"
         sodipodi:nodetypes="scssccscsssscsss" />
      <path
         id="path115462"
         style="color:#000000;fill:#a8c2e1;fill-opacity:1;stroke-width:3.77953;stroke-linecap:round;stroke-linejoin:round;stroke-miterlimit:1.5;-inkscape-stroke:none"
         d="m -65.978516,160.28906 -0.876953,6.4961 h 4 l 0.876953,-6.4961 z"
         transform="matrix(0.26458334,0,0,0.26458334,0,280.06666)" />
    </g>
  </g>
</svg>
