<?xml version="1.0" encoding="UTF-8" standalone="no"?>
<svg
   sodipodi:docname="12 - Salad.svg"
   inkscape:version="1.1.1 (1:1.1+202109281949+c3084ef5ed)"
   id="svg831"
   version="1.1"
   viewBox="0 0 22.577778 22.577778"
   height="64pt"
   width="64pt"
   inkscape:export-filename="/media/taufikramadhan/Data/Tr Design Studio/Project Design/TR Creative Design/Icon Design/Project Hiring/Icon Icons/010 - Food/Send/3 - Flat/12 - Salad.png"
   inkscape:export-xdpi="576"
   inkscape:export-ydpi="576"
   xmlns:inkscape="http://www.inkscape.org/namespaces/inkscape"
   xmlns:sodipodi="http://sodipodi.sourceforge.net/DTD/sodipodi-0.dtd"
   xmlns="http://www.w3.org/2000/svg"
   xmlns:svg="http://www.w3.org/2000/svg"
   xmlns:rdf="http://www.w3.org/1999/02/22-rdf-syntax-ns#"
   xmlns:cc="http://creativecommons.org/ns#"
   xmlns:dc="http://purl.org/dc/elements/1.1/">
  <defs
     id="defs825">
    <pattern
       y="0"
       x="0"
       height="6"
       width="6"
       patternUnits="userSpaceOnUse"
       id="EMFhbasepattern" />
    <pattern
       y="0"
       x="0"
       height="6"
       width="6"
       patternUnits="userSpaceOnUse"
       id="EMFhbasepattern-9" />
    <pattern
       y="0"
       x="0"
       height="6"
       width="6"
       patternUnits="userSpaceOnUse"
       id="EMFhbasepattern-0" />
    <pattern
       y="0"
       x="0"
       height="6"
       width="6"
       patternUnits="userSpaceOnUse"
       id="EMFhbasepattern-7" />
    <pattern
       y="0"
       x="0"
       height="6"
       width="6"
       patternUnits="userSpaceOnUse"
       id="EMFhbasepattern-2" />
    <pattern
       y="0"
       x="0"
       height="6"
       width="6"
       patternUnits="userSpaceOnUse"
       id="EMFhbasepattern-98" />
    <pattern
       y="0"
       x="0"
       height="6"
       width="6"
       patternUnits="userSpaceOnUse"
       id="EMFhbasepattern-6" />
    <pattern
       y="0"
       x="0"
       height="6"
       width="6"
       patternUnits="userSpaceOnUse"
       id="EMFhbasepattern-01" />
    <pattern
       y="0"
       x="0"
       height="6"
       width="6"
       patternUnits="userSpaceOnUse"
       id="EMFhbasepattern-07" />
    <pattern
       y="0"
       x="0"
       height="6"
       width="6"
       patternUnits="userSpaceOnUse"
       id="EMFhbasepattern-8" />
    <pattern
       y="0"
       x="0"
       height="6"
       width="6"
       patternUnits="userSpaceOnUse"
       id="EMFhbasepattern-4" />
    <pattern
       y="0"
       x="0"
       height="6"
       width="6"
       patternUnits="userSpaceOnUse"
       id="EMFhbasepattern-40" />
    <pattern
       y="0"
       x="0"
       height="6"
       width="6"
       patternUnits="userSpaceOnUse"
       id="EMFhbasepattern-08" />
    <pattern
       y="0"
       x="0"
       height="6"
       width="6"
       patternUnits="userSpaceOnUse"
       id="EMFhbasepattern-04" />
    <pattern
       y="0"
       x="0"
       height="6"
       width="6"
       patternUnits="userSpaceOnUse"
       id="EMFhbasepattern-014" />
    <pattern
       y="0"
       x="0"
       height="6"
       width="6"
       patternUnits="userSpaceOnUse"
       id="EMFhbasepattern-27" />
    <pattern
       y="0"
       x="0"
       height="6"
       width="6"
       patternUnits="userSpaceOnUse"
       id="EMFhbasepattern-09" />
    <pattern
       y="0"
       x="0"
       height="6"
       width="6"
       patternUnits="userSpaceOnUse"
       id="EMFhbasepattern-5" />
    <pattern
       y="0"
       x="0"
       height="6"
       width="6"
       patternUnits="userSpaceOnUse"
       id="EMFhbasepattern-018" />
  </defs>
  <sodipodi:namedview
     inkscape:document-rotation="0"
     inkscape:snap-global="true"
     inkscape:snap-nodes="false"
     inkscape:bbox-nodes="true"
     inkscape:snap-bbox="true"
     showguides="false"
     inkscape:snap-midpoints="true"
     inkscape:snap-smooth-nodes="true"
     inkscape:snap-intersection-paths="true"
     inkscape:object-paths="true"
     inkscape:showpageshadow="false"
     inkscape:pagecheckerboard="true"
     inkscape:window-maximized="1"
     inkscape:window-y="31"
     inkscape:window-x="0"
     inkscape:window-height="705"
     inkscape:window-width="1366"
     units="pt"
     showgrid="false"
     inkscape:current-layer="layer1"
     inkscape:document-units="pt"
     inkscape:cy="42.732286"
     inkscape:cx="42.628314"
     inkscape:zoom="4.8090103"
     inkscape:pageshadow="2"
     inkscape:pageopacity="0.0"
     borderopacity="1.0"
     bordercolor="#666666"
     pagecolor="#ffffff"
     id="base">
    <inkscape:grid
       id="grid1378"
       type="xygrid" />
    <sodipodi:guide
       inkscape:locked="false"
       id="guide1380"
       orientation="78.000048,0"
       position="0.97013831,21.607643" />
    <sodipodi:guide
       inkscape:locked="false"
       id="guide1382"
       orientation="0,78.000005"
       position="0.97013831,0.97013129" />
    <sodipodi:guide
       inkscape:locked="false"
       id="guide1384"
       orientation="-78.000048,0"
       position="21.607639,0.97013129" />
    <sodipodi:guide
       inkscape:locked="false"
       id="guide1386"
       orientation="0,-78.000005"
       position="21.607639,21.607643" />
  </sodipodi:namedview>
  <metadata
     id="metadata828">
    <rdf:RDF>
      <cc:Work
         rdf:about="">
        <dc:format>image/svg+xml</dc:format>
        <dc:type
           rdf:resource="http://purl.org/dc/dcmitype/StillImage" />
      </cc:Work>
    </rdf:RDF>
  </metadata>
  <g
     transform="translate(0,-274.42223)"
     id="layer1"
     inkscape:groupmode="layer"
     inkscape:label="Icon">
    <g
       id="g434671"
       style="display:inline"
       transform="matrix(1.2527575,0,0,1.2527575,-113.95627,-75.750386)">
      <g
         id="g434140">
        <path
           style="color:#000000;fill:#d0e2ee;stroke-linecap:round;stroke-linejoin:round;stroke-miterlimit:1.5;-inkscape-stroke:none"
           d="m 99.101562,283.29297 c -0.705828,-0.23697 -1.477664,-0.1721 -2.132812,0.18164 -0.655148,0.35374 -1.135171,0.96344 -1.324219,1.68359 a 0.24292728,0.24292728 0 0 0 0.115235,0.27344 l 2.859375,1.62695 a 0.24292728,0.24292728 0 0 0 0.361328,-0.18945 l 0.287109,-3.32617 a 0.24292728,0.24292728 0 0 0 -0.166016,-0.25 z"
           id="path373483" />
        <path
           style="color:#000000;fill:#fca311;stroke-linecap:round;stroke-linejoin:round;stroke-miterlimit:1.5;-inkscape-stroke:none"
           d="m 104.70508,283.90234 -0.64258,0.14844 a 0.26460996,0.26460996 0 0 0 -0.19922,0.20313 l -0.27344,1.30859 a 0.26460996,0.26460996 0 0 0 0.14844,0.29492 l 1.35742,0.61914 a 0.26460996,0.26460996 0 0 0 0.0723,0.0215 l 1.54492,0.22656 a 0.26460996,0.26460996 0 0 0 0.28516,-0.16406 c 0.27482,-0.68509 0.14419,-1.46835 -0.33789,-2.02735 -0.48165,-0.55848 -1.23568,-0.80111 -1.95313,-0.63086 z"
           id="path373489" />
        <path
           id="path428257"
           style="color:#000000;fill:#ec7523;fill-opacity:1;stroke-width:3.77952;stroke-linecap:round;stroke-linejoin:round;stroke-miterlimit:1.5;-inkscape-stroke:none"
           d="m 396.19922,20.613281 c -0.007,-5.2e-5 -0.0143,-5.2e-5 -0.0215,0 l -2.82812,0.816407 c -0.35403,0.101772 -0.65712,0.332405 -0.8496,0.646484 l 4.71289,2.15039 c 0.0861,0.0401 0.17756,0.06772 0.27149,0.08203 l 5.83984,0.855468 c 0.46009,0.06893 0.90695,-0.188503 1.07812,-0.621093 0.33883,-0.844641 0.51342,-1.728071 0.53321,-2.609375 -2.99448,-1.530555 -5.67279,-2.127296 -8.73633,-1.320311 z"
           transform="matrix(0.26458334,0,0,0.26458334,0,280.06666)"
           sodipodi:nodetypes="cccccccccc" />
        <path
           id="path410354"
           style="fill:#ec7523;fill-opacity:1;stroke-width:3.77953;stroke-linecap:round;stroke-linejoin:round;stroke-miterlimit:1.5"
           d="m 397.53125,14.294922 c -0.59418,-0.0047 -1.19394,0.06237 -1.78711,0.203125 l -0.008,-0.002 -2.42969,0.5625 a 1.0001006,1.0001006 0 0 0 -0.75195,0.767578 l -1.03321,4.945312 a 1.0001006,1.0001006 0 0 0 0.56055,1.115235 l 3.34766,1.527343 c 0.0588,-0.260724 0.10735,-0.526572 0.14453,-0.796874 0.86445,-0.773443 1.73119,-1.567282 2.36914,-2.597657 0.91043,-1.47038 1.60107,-3.43747 1.14258,-5.546875 -0.50842,-0.112418 -1.02903,-0.173534 -1.55469,-0.177734 z"
           transform="matrix(0.26458334,0,0,0.26458334,0,280.06666)" />
        <path
           style="color:#000000;fill:#50b86b;stroke-linecap:round;stroke-linejoin:round;stroke-miterlimit:1.5;-inkscape-stroke:none"
           d="m 105.24023,285.95117 -0.50781,0.14649 a 0.26460996,0.26460996 0 0 0 -0.17578,0.34765 l 0.46875,1.22071 a 0.26460996,0.26460996 0 0 0 0.24805,0.16992 h 2.16797 a 0.26460996,0.26460996 0 0 0 0.25976,-0.3125 c -0.0982,-0.54291 -0.41547,-1.03544 -0.88672,-1.33399 -0.46695,-0.29584 -1.03647,-0.38172 -1.57031,-0.23828 a 0.26460996,0.26460996 0 0 0 -0.004,0 z"
           id="path373495" />
        <path
           id="path430077"
           style="color:#000000;fill:#26783f;fill-opacity:1;stroke-width:3.77952;stroke-linecap:round;stroke-linejoin:round;stroke-miterlimit:1.5;-inkscape-stroke:none"
           d="m 399.6875,21.984375 c -0.64091,0.0024 -1.28354,0.08644 -1.91406,0.255859 a 1.0001006,1.0001006 0 0 0 -0.0156,0 l -1.91797,0.554688 a 1.0001006,1.0001006 0 0 0 -0.66601,1.3125 l 1.77344,4.615234 a 1.0001006,1.0001006 0 0 0 0.9375,0.640625 h 5.10156 c -0.19925,-2.763954 -1.27161,-5.32661 -2.94531,-7.373047 -0.11743,-0.0051 -0.23581,-0.0063 -0.35352,-0.0059 z"
           transform="matrix(0.26458334,0,0,0.26458334,0,280.06666)" />
        <path
           style="color:#000000;fill:#d4e157;stroke-linecap:round;stroke-linejoin:round;stroke-miterlimit:1.5;-inkscape-stroke:none"
           d="m 103.16211,285.35156 a 0.26460996,0.26460996 0 0 0 -0.23633,0.14649 l -0.97265,1.95507 a 0.26460996,0.26460996 0 0 0 0.23828,0.38282 h 3.57226 a 0.26460996,0.26460996 0 0 0 0.26367,-0.27344 c -0.0379,-1.18006 -0.98265,-2.174 -2.16992,-2.21094 a 0.26460996,0.26460996 0 0 0 -0.01,0 z"
           id="path373501" />
        <path
           style="color:#000000;fill:#ee8eb4;stroke-linecap:round;stroke-linejoin:round;stroke-miterlimit:1.5;-inkscape-stroke:none"
           d="m 96.625,282.19727 c -0.983919,0.43777 -1.750662,1.25514 -2.123047,2.26562 -0.04028,0.11031 0.0041,0.23364 0.105469,0.29297 l 1.148437,0.67383 c 0.138702,0.0828 0.318083,0.01 0.359375,-0.14649 0.154954,-0.59027 0.546992,-1.09091 1.083985,-1.38086 0.536397,-0.28962 1.168081,-0.34385 1.746093,-0.15039 h 0.002 l 0.152343,0.0586 c 0.100008,0.0371 0.212505,0.005 0.277344,-0.0801 l 0.820321,-1.06641 c 0.0979,-0.12677 0.0485,-0.31194 -0.0996,-0.37304 l -0.367195,-0.15235 c -1.016957,-0.42721 -2.377093,-0.32014 -3.105525,0.0586 z"
           id="path373507"
           sodipodi:nodetypes="cccccscccccccc" />
        <path
           id="path423889"
           style="fill:#e75f96;fill-opacity:1;stroke-width:3.77953;stroke-linecap:round;stroke-linejoin:round;stroke-miterlimit:1.5"
           d="m 370.29102,9.7656252 c -1.63473,0.1387087 -3.24206,0.6138848 -4.7168,1.4101558 -2.94765,1.591559 -5.10796,4.332367 -5.95899,7.574219 -0.0134,0.05068 -0.0249,0.101097 -0.0351,0.152344 l 2.33203,1.367187 c 0.52376,0.312196 1.20073,0.03654 1.35742,-0.552734 0.58565,-2.230942 2.06808,-4.124829 4.09766,-5.220703 2.02732,-1.094627 4.41499,-1.299547 6.59961,-0.56836 h 0.008 l 0.57617,0.222657 c 0.37759,0.139483 0.80201,0.01675 1.04688,-0.302735 l 1.34375,-1.746094 c -1.34213,-2.3845648 -4.21936,-2.4656725 -6.65063,-2.3359368 z"
           transform="matrix(0.26458334,0,0,0.26458334,0,280.06666)"
           sodipodi:nodetypes="csccccscccccc" />
        <path
           style="color:#000000;fill:#dc1c4b;stroke-linecap:round;stroke-linejoin:round;stroke-miterlimit:1.5;-inkscape-stroke:none"
           d="m 94.013672,283.83208 c -0.256148,-0.14791 -0.560193,-0.17707 -0.826172,-0.0957 v -5e-5 c -0.265979,0.0814 -0.493607,0.2722 -0.597656,0.5625 -0.305632,0.85276 -0.516915,2.12546 0.257812,3.4082 0.04765,0.0798 0.133647,0.1287 0.226563,0.12891 h 6.24414 c 0.274598,-0.002 0.365308,-0.36876 0.123047,-0.49805 -0.256393,-0.13684 -0.455078,-0.58203 -0.455078,-0.58203 -0.02138,-0.0576 -0.06212,-0.1059 -0.115234,-0.13672 z"
           id="path373565"
           sodipodi:nodetypes="cccscccsccc" />
        <path
           style="color:#000000;fill:#801231;stroke-linecap:round;stroke-linejoin:round;stroke-miterlimit:1.5;-inkscape-stroke:none"
           d="m 94.358005,284.33096 c -0.195616,0.33882 -0.407039,0.86487 -0.367771,1.48545 0.03927,0.62057 0.340827,1.32454 1.097657,1.96093 0.04753,0.0402 0.107694,0.0623 0.169921,0.0625 l 4.060547,-0.004 c 0.220946,-0.001 0.342925,-0.25701 0.205078,-0.42969 l -0.578125,-0.72461 c -0.02125,-0.0254 -0.04709,-0.0466 -0.07617,-0.0625 l -4.35273,-2.50029 z"
           id="path373571"
           sodipodi:nodetypes="cscccccccc" />
        <path
           id="path405465"
           style="fill:#a8c2e1;fill-opacity:1;stroke-width:3.77953;stroke-linecap:round;stroke-linejoin:round;stroke-miterlimit:1.5"
           d="m 371.48633,11.664062 c -2.05864,2.614754 -2.93296,5.884729 -2.84961,8.916016 0.0359,1.305407 0.20732,2.586093 0.50781,3.804688 l 3.58985,2.041015 a 0.91815034,0.91815034 0 0 0 1.36523,-0.714843 l 1.08398,-12.572266 a 0.91815034,0.91815034 0 0 0 -0.62695,-0.945313 c -1.00039,-0.335863 -2.03617,-0.511702 -3.07031,-0.529297 z"
           transform="matrix(0.26458334,0,0,0.26458334,0,280.06666)" />
        <path
           style="color:#000000;fill:#fca311;stroke-linecap:round;stroke-linejoin:round;stroke-miterlimit:1.5;-inkscape-stroke:none"
           d="m 96.912109,286.50195 a 0.2645835,0.2645835 0 0 0 -0.361328,0.0977 l -0.144531,0.25 a 0.2645835,0.2645835 0 0 0 0.09766,0.36133 0.2645835,0.2645835 0 0 0 0.361328,-0.0977 l 0.144532,-0.25 a 0.2645835,0.2645835 0 0 0 -0.09766,-0.36133 z"
           id="path17515" />
        <path
           style="color:#000000;fill:#fca311;stroke-linecap:round;stroke-linejoin:round;stroke-miterlimit:1.5;-inkscape-stroke:none"
           d="m 95.9375,285.93945 a 0.2645835,0.2645835 0 0 0 -0.361328,0.0977 l -0.144531,0.24805 a 0.2645835,0.2645835 0 0 0 0.09766,0.36328 0.2645835,0.2645835 0 0 0 0.361328,-0.0977 l 0.142578,-0.25 a 0.2645835,0.2645835 0 0 0 -0.0957,-0.36133 z"
           id="path17818" />
        <path
           id="path416282"
           style="fill:#bfd025;fill-opacity:1;stroke-width:3.77953;stroke-linecap:round;stroke-linejoin:round;stroke-miterlimit:1.5"
           d="m 389.9043,19.974609 a 1.0001006,1.0001006 0 0 0 -0.89258,0.552735 l -3.67774,7.390625 a 1.0001006,1.0001006 0 0 0 0.9004,1.445312 h 5.27148 c 0.59782,-0.487801 1.15725,-1.026667 1.67578,-1.601562 1.18103,-1.309418 2.11085,-3.09633 2.39258,-5.144531 0.44443,-0.397639 0.88839,-0.802246 1.30273,-1.240235 -1.25489,-0.840767 -2.7421,-1.35245 -4.3457,-1.402344 a 1.0001006,1.0001006 0 0 0 -0.0371,0 z"
           transform="matrix(0.26458334,0,0,0.26458334,0,280.06666)" />
        <path
           id="path407539"
           style="fill:#e75f96;fill-opacity:1;stroke-width:3.77953;stroke-linecap:round;stroke-linejoin:round;stroke-miterlimit:1.5"
           d="m 375.59785,13.847656 3.10156,-4.0312498 c 0.37018,-0.4793868 0.18292,-1.179557 -0.37714,-1.4101562 l -1.38868,-0.5742188 c -0.005,-3.41e-5 -0.009,-3.41e-5 -0.0137,0 -1.01069,-0.4042149 -2.05348,-0.6955936 -3.10937,-0.8730468 l -0.87107,3.1542966 c -1.13018,1.013197 -2.02001,2.189103 -2.6914,3.453125 z"
           transform="matrix(0.26458334,0,0,0.26458334,0,280.06666)"
           sodipodi:nodetypes="ccccccccc" />
        <path
           id="path393491"
           style="fill:#611125;fill-opacity:1;stroke-width:3.77953;stroke-linecap:round;stroke-linejoin:round;stroke-miterlimit:1.5"
           d="m 368.72266,21.917969 c 0.16575,1.661632 0.55324,3.259705 1.15429,4.714843 0.39282,0.951019 0.88886,1.894108 1.54297,2.734376 l 3.95703,-0.0039 c 0.83507,-0.0038 1.29639,-0.970398 0.77539,-1.623047 L 373.9668,25.00196 c -0.0803,-0.096 -0.17916,-0.176234 -0.28907,-0.236328 z"
           transform="matrix(0.26458334,0,0,0.26458334,0,280.06666)" />
        <path
           style="color:#000000;fill:#50b86b;stroke-width:1;stroke-linecap:round;stroke-linejoin:round;stroke-miterlimit:1.5;-inkscape-stroke:none"
           d="m 103.29757,280.2961 c -0.83532,-2e-5 -1.62476,0.45567 -1.9792,1.20148 -0.29757,-0.16915 -0.62949,-0.25626 -0.9648,-0.1664 -0.36253,0.0971 -0.621375,0.37792 -0.794786,0.70125 -0.154651,0.28835 -0.250933,0.62032 -0.295073,0.95188 -0.820045,0.54904 -1.109988,1.56986 -1.08417,2.50889 0.01352,0.49124 0.112334,0.96817 0.279569,1.37304 0.167232,0.40487 0.399336,0.74486 0.72657,0.93379 a 0.26460996,0.26460996 0 0 0 0.132807,0.0351 h 2.872693 a 0.26460996,0.26460996 0 0 0 0.0687,-0.008 c 0.45484,-0.12186 0.92709,-0.4426 1.29088,-0.84594 0.32138,-0.35632 0.57257,-0.79474 0.53847,-1.24902 0.25448,-0.19995 0.48487,-0.44101 0.65112,-0.70952 0.19295,-0.31162 0.30591,-0.67703 0.20877,-1.03921 -0.0899,-0.33521 -0.33095,-0.5792 -0.6258,-0.75241 0.57846,-0.8397 0.4416,-2.03317 -0.31368,-2.78846 a 0.26460996,0.26460996 0 0 0 -0.11885,-0.0687 c -0.1968,-0.0527 -0.39642,-0.078 -0.59325,-0.078 z"
           id="path373513" />
        <path
           id="path11775"
           style="color:#000000;fill:#26783f;stroke-width:1;stroke-linecap:round;stroke-linejoin:round;stroke-miterlimit:1.5;-inkscape-stroke:none"
           d="m 102.41029,282.7776 a 0.2645835,0.2645835 0 0 0 -0.21084,0.13384 c -0.19134,0.33677 -0.38547,0.67258 -0.58033,1.00821 l -0.16381,-0.61185 a 0.2645835,0.2645835 0 0 0 -0.32453,-0.18758 0.2645835,0.2645835 0 0 0 -0.18758,0.32452 l 0.30127,1.1188 c -0.23389,0.40151 -0.46745,0.80372 -0.69918,1.20768 l -0.16227,-0.60565 a 0.2645835,0.2645835 0 0 0 -0.32452,-0.18552 0.2645835,0.2645835 0 0 0 -0.187592,0.32195 l 0.302312,1.12344 c -0.190248,0.33834 -0.377956,0.67827 -0.561725,1.02113 a 0.2645835,0.2645835 0 0 0 0.107484,0.3576 0.2645835,0.2645835 0 0 0 0.357081,-0.10749 c 0.18128,-0.33821 0.36745,-0.67421 0.55604,-1.00924 l 1.11777,-0.29921 a 0.2645835,0.2645835 0 0 0 0.18758,-0.32452 0.2645835,0.2645835 0 0 0 -0.32401,-0.18759 l -0.61443,0.16537 c 0.23222,-0.40429 0.46784,-0.80756 0.70331,-1.2113 l 1.11983,-0.30179 a 0.2645835,0.2645835 0 0 0 0.18758,-0.32194 0.2645835,0.2645835 0 0 0 -0.324,-0.18759 l -0.60617,0.16226 c 0.19465,-0.33502 0.3891,-0.67073 0.58084,-1.0082 a 0.2645835,0.2645835 0 0 0 -0.0997,-0.36122 0.2645835,0.2645835 0 0 0 -0.15038,-0.0341 z" />
        <path
           id="path13607"
           style="color:#000000;fill:#26783f;stroke-width:1;stroke-linecap:round;stroke-linejoin:round;stroke-miterlimit:1.5;-inkscape-stroke:none"
           d="m 101.48786,281.20871 c -0.0638,0.0908 -0.12098,0.18679 -0.16949,0.28887 -0.1098,-0.0624 -0.2245,-0.11353 -0.3421,-0.14883 l 0.42995,1.18184 c 0.0523,0.13646 0.20513,0.20477 0.34158,0.15244 0.13646,-0.0523 0.20477,-0.20564 0.15244,-0.34209 z m -2.091858,1.20406 c -0.06248,0.18496 -0.10654,0.37811 -0.132291,0.57154 -0.03285,0.022 -0.06341,0.0463 -0.09457,0.0698 l 0.389641,0.63304 c 0.0808,0.12204 0.24505,0.15498 0.366903,0.0739 0.122055,-0.0808 0.155505,-0.24504 0.07438,-0.3669 z m 5.089608,0.53123 -1.18494,0.20567 c -0.14464,0.0225 -0.24349,0.15824 -0.22065,0.30283 0.0225,0.14464 0.15823,0.24349 0.30282,0.22065 l 1.24333,-0.21704 c -0.0901,-0.0855 -0.19268,-0.16009 -0.30282,-0.22479 0.0632,-0.0917 0.11602,-0.18818 0.16226,-0.28732 z m -1.17305,2.37918 c -0.1338,0.004 -0.24447,0.11006 -0.25373,0.2465 -0.009,0.14628 0.10172,0.27227 0.24804,0.28112 l 0.78084,0.0667 c 0.005,-0.0613 0.006,-0.12296 0.002,-0.185 0.12209,-0.0959 0.23811,-0.20188 0.34469,-0.31523 l -1.094,-0.0935 c -0.009,-6.3e-4 -0.0185,-8.2e-4 -0.0274,-5.3e-4 z" />
      </g>
      <path
         style="color:#000000;fill:#91a9d9;stroke-linecap:round;stroke-linejoin:round;stroke-miterlimit:1.5;-inkscape-stroke:none"
         d="m 94.787109,294.79883 a 0.26460996,0.26460996 0 0 0 -0.259765,0.2207 l -0.144532,0.8457 c -0.111825,0.44729 0.224474,0.9043 0.69336,0.9043 H 104.875 c 0.46889,0 0.80516,-0.45701 0.69336,-0.9043 l -0.14453,-0.8457 a 0.26460996,0.26460996 0 0 0 -0.26172,-0.2207 z"
         id="path373593" />
      <path
         id="path382037"
         style="color:#000000;fill:#6788cb;fill-opacity:1;stroke-width:3.77953;stroke-linecap:round;stroke-linejoin:round;stroke-miterlimit:1.5;-inkscape-stroke:none"
         d="m 358.25,55.679688 a 1.0001006,1.0001006 0 0 0 -0.98047,0.835937 l -0.53906,3.146484 c 0.14378,0.01228 0.28922,0.01953 0.43555,0.01953 h 41.38867 c 0.14633,0 0.29181,-0.0073 0.43554,-0.01953 l -0.53711,-3.146484 a 1.0001006,1.0001006 0 0 0 -0.99023,-0.835937 z"
         transform="matrix(0.26458334,0,0,0.26458334,0,280.06666)" />
      <path
         style="color:#000000;fill:#d0e2ee;stroke-linecap:round;stroke-linejoin:round;stroke-miterlimit:1.5;-inkscape-stroke:none"
         d="m 92.482422,287.30664 c -0.458961,0 -0.808272,0.43756 -0.705078,0.88477 l 1.404297,6.08984 c 0.141177,0.61176 0.690517,1.04687 1.318359,1.04687 h 10.95117 c 0.62785,0 1.17522,-0.43511 1.31641,-1.04687 l 1.40625,-6.08984 c 0.10319,-0.44721 -0.24612,-0.88477 -0.70508,-0.88477 z"
         id="path373599" />
      <path
         id="path387982"
         style="color:#000000;fill:#a8c2e1;fill-opacity:1;stroke-width:1;stroke-linecap:round;stroke-linejoin:round;stroke-miterlimit:1.5;-inkscape-stroke:none"
         d="m 92.482212,287.30653 c -0.45896,0 -0.808059,0.43749 -0.704866,0.8847 l 0.03979,0.17363 h 14.593424 c 0.45896,0 0.80806,0.43749 0.70487,0.8847 l -1.39681,6.05079 c 0.51073,-0.10342 0.92835,-0.4962 1.04903,-1.01906 l 1.40611,-6.09006 c 0.10319,-0.44721 -0.24591,-0.8847 -0.70487,-0.8847 z" />
      <path
         id="path6133"
         style="color:#000000;fill:#91a9d9;stroke-width:3.77953;stroke-linecap:round;stroke-linejoin:round;stroke-miterlimit:1.5;-inkscape-stroke:none"
         d="m 347.36133,32.8125 0.46094,2 h 21.32421 a 1.0000006,1.0000006 0 0 0 0.9961,-1.003906 1.0000006,1.0000006 0 0 0 -0.9961,-0.996094 z m 27.23242,0 a 1.0000006,1.0000006 0 0 0 -1.00391,0.996094 1.0000006,1.0000006 0 0 0 1.00391,1.003906 h 33.30469 l 0.46094,-2 z"
         transform="matrix(0.26458334,0,0,0.26458334,0,280.06666)" />
      <path
         style="color:#000000;fill:#91a9d9;stroke-linecap:round;stroke-linejoin:round;stroke-miterlimit:1.5;-inkscape-stroke:none"
         d="m 93.634766,289.90039 a 0.2645835,0.2645835 0 0 0 -0.263672,0.26367 0.2645835,0.2645835 0 0 0 0.263672,0.26563 h 0.289062 a 0.2645835,0.2645835 0 0 0 0.263672,-0.26563 0.2645835,0.2645835 0 0 0 -0.263672,-0.26367 z"
         id="path7207" />
      <path
         style="color:#000000;fill:#91a9d9;stroke-linecap:round;stroke-linejoin:round;stroke-miterlimit:1.5;-inkscape-stroke:none"
         d="m 95.076172,289.90039 a 0.2645835,0.2645835 0 0 0 -0.265625,0.26367 0.2645835,0.2645835 0 0 0 0.265625,0.26563 h 0.287109 a 0.2645835,0.2645835 0 0 0 0.265625,-0.26563 0.2645835,0.2645835 0 0 0 -0.265625,-0.26367 z"
         id="path7289" />
      <path
         style="color:#000000;fill:#91a9d9;stroke-linecap:round;stroke-linejoin:round;stroke-miterlimit:1.5;-inkscape-stroke:none"
         d="m 96.517578,289.90039 a 0.2645835,0.2645835 0 0 0 -0.265625,0.26367 0.2645835,0.2645835 0 0 0 0.265625,0.26563 h 0.287109 a 0.2645835,0.2645835 0 0 0 0.265625,-0.26563 0.2645835,0.2645835 0 0 0 -0.265625,-0.26367 z"
         id="path7291" />
      <path
         style="color:#000000;fill:#91a9d9;stroke-linecap:round;stroke-linejoin:round;stroke-miterlimit:1.5;-inkscape-stroke:none"
         d="m 94.5,293.64648 a 0.2645835,0.2645835 0 0 0 -0.265625,0.26563 0.2645835,0.2645835 0 0 0 0.265625,0.26367 h 4.898437 a 0.2645835,0.2645835 0 0 0 0.265625,-0.26367 0.2645835,0.2645835 0 0 0 -0.265625,-0.26563 z"
         id="path22035" />
    </g>
  </g>
</svg>
