<?xml version="1.0" encoding="UTF-8" standalone="no"?>
<svg
   sodipodi:docname="16 - Soup.svg"
   inkscape:version="1.1.1 (1:1.1+202109281949+c3084ef5ed)"
   id="svg831"
   version="1.1"
   viewBox="0 0 22.577778 22.577778"
   height="64pt"
   width="64pt"
   inkscape:export-filename="/media/taufikramadhan/Data/Tr Design Studio/Project Design/TR Creative Design/Icon Design/Project Hiring/Icon Icons/010 - Food/Send/3 - Flat/15 - Soup.png"
   inkscape:export-xdpi="576"
   inkscape:export-ydpi="576"
   xmlns:inkscape="http://www.inkscape.org/namespaces/inkscape"
   xmlns:sodipodi="http://sodipodi.sourceforge.net/DTD/sodipodi-0.dtd"
   xmlns="http://www.w3.org/2000/svg"
   xmlns:svg="http://www.w3.org/2000/svg"
   xmlns:rdf="http://www.w3.org/1999/02/22-rdf-syntax-ns#"
   xmlns:cc="http://creativecommons.org/ns#"
   xmlns:dc="http://purl.org/dc/elements/1.1/">
  <defs
     id="defs825">
    <pattern
       y="0"
       x="0"
       height="6"
       width="6"
       patternUnits="userSpaceOnUse"
       id="EMFhbasepattern" />
    <pattern
       y="0"
       x="0"
       height="6"
       width="6"
       patternUnits="userSpaceOnUse"
       id="EMFhbasepattern-9" />
    <pattern
       y="0"
       x="0"
       height="6"
       width="6"
       patternUnits="userSpaceOnUse"
       id="EMFhbasepattern-0" />
    <pattern
       y="0"
       x="0"
       height="6"
       width="6"
       patternUnits="userSpaceOnUse"
       id="EMFhbasepattern-7" />
    <pattern
       y="0"
       x="0"
       height="6"
       width="6"
       patternUnits="userSpaceOnUse"
       id="EMFhbasepattern-2" />
    <pattern
       y="0"
       x="0"
       height="6"
       width="6"
       patternUnits="userSpaceOnUse"
       id="EMFhbasepattern-98" />
    <pattern
       y="0"
       x="0"
       height="6"
       width="6"
       patternUnits="userSpaceOnUse"
       id="EMFhbasepattern-6" />
    <pattern
       y="0"
       x="0"
       height="6"
       width="6"
       patternUnits="userSpaceOnUse"
       id="EMFhbasepattern-01" />
    <pattern
       y="0"
       x="0"
       height="6"
       width="6"
       patternUnits="userSpaceOnUse"
       id="EMFhbasepattern-07" />
    <pattern
       y="0"
       x="0"
       height="6"
       width="6"
       patternUnits="userSpaceOnUse"
       id="EMFhbasepattern-8" />
    <pattern
       y="0"
       x="0"
       height="6"
       width="6"
       patternUnits="userSpaceOnUse"
       id="EMFhbasepattern-4" />
    <pattern
       y="0"
       x="0"
       height="6"
       width="6"
       patternUnits="userSpaceOnUse"
       id="EMFhbasepattern-40" />
    <pattern
       y="0"
       x="0"
       height="6"
       width="6"
       patternUnits="userSpaceOnUse"
       id="EMFhbasepattern-08" />
    <pattern
       y="0"
       x="0"
       height="6"
       width="6"
       patternUnits="userSpaceOnUse"
       id="EMFhbasepattern-04" />
    <pattern
       y="0"
       x="0"
       height="6"
       width="6"
       patternUnits="userSpaceOnUse"
       id="EMFhbasepattern-014" />
    <pattern
       y="0"
       x="0"
       height="6"
       width="6"
       patternUnits="userSpaceOnUse"
       id="EMFhbasepattern-27" />
    <pattern
       y="0"
       x="0"
       height="6"
       width="6"
       patternUnits="userSpaceOnUse"
       id="EMFhbasepattern-09" />
    <pattern
       y="0"
       x="0"
       height="6"
       width="6"
       patternUnits="userSpaceOnUse"
       id="EMFhbasepattern-5" />
    <pattern
       y="0"
       x="0"
       height="6"
       width="6"
       patternUnits="userSpaceOnUse"
       id="EMFhbasepattern-018" />
  </defs>
  <sodipodi:namedview
     inkscape:document-rotation="0"
     inkscape:snap-global="true"
     inkscape:snap-nodes="false"
     inkscape:bbox-nodes="true"
     inkscape:snap-bbox="true"
     showguides="true"
     inkscape:snap-midpoints="true"
     inkscape:snap-smooth-nodes="true"
     inkscape:snap-intersection-paths="true"
     inkscape:object-paths="true"
     inkscape:showpageshadow="false"
     inkscape:pagecheckerboard="true"
     inkscape:window-maximized="1"
     inkscape:window-y="31"
     inkscape:window-x="0"
     inkscape:window-height="705"
     inkscape:window-width="1366"
     units="pt"
     showgrid="false"
     inkscape:current-layer="layer1"
     inkscape:document-units="pt"
     inkscape:cy="42.732286"
     inkscape:cx="42.628314"
     inkscape:zoom="4.8090103"
     inkscape:pageshadow="2"
     inkscape:pageopacity="0.0"
     borderopacity="1.0"
     bordercolor="#666666"
     pagecolor="#ffffff"
     id="base">
    <inkscape:grid
       id="grid1378"
       type="xygrid" />
    <sodipodi:guide
       inkscape:locked="false"
       id="guide1380"
       orientation="78.000048,0"
       position="0.97013831,21.607643" />
    <sodipodi:guide
       inkscape:locked="false"
       id="guide1382"
       orientation="0,78.000005"
       position="0.97013831,0.97013129" />
    <sodipodi:guide
       inkscape:locked="false"
       id="guide1384"
       orientation="-78.000048,0"
       position="21.607639,0.97013129" />
    <sodipodi:guide
       inkscape:locked="false"
       id="guide1386"
       orientation="0,-78.000005"
       position="21.607639,21.607643" />
  </sodipodi:namedview>
  <metadata
     id="metadata828">
    <rdf:RDF>
      <cc:Work
         rdf:about="">
        <dc:format>image/svg+xml</dc:format>
        <dc:type
           rdf:resource="http://purl.org/dc/dcmitype/StillImage" />
      </cc:Work>
    </rdf:RDF>
  </metadata>
  <g
     transform="translate(0,-274.42223)"
     id="layer1"
     inkscape:groupmode="layer"
     inkscape:label="Icon">
    <g
       id="g145162"
       style="display:inline"
       transform="matrix(1.2580259,0,0,1.2580259,-37.735378,-115.64458)">
      <g
         id="g144598">
        <path
           style="color:#000000;fill:#3a4d5c;stroke-linecap:round;stroke-linejoin:round;-inkscape-stroke:none;paint-order:markers fill stroke"
           d="m 39.234375,312.42187 a 0.26460996,0.26460996 0 0 0 -0.265625,0.26368 c 0,1.82852 -0.241463,3.28483 -1.023438,4.64843 0,0 -1.091796,1.86718 -1.091796,3.57227 0,0.9862 0.174641,2.82956 0.871093,3.83594 0.04665,0.0674 0.05437,0.22032 0.0059,0.33008 -0.154721,0.34951 -0.347656,0.70295 -0.347657,1.10742 v 0.52929 c 0,0.28912 0.240178,0.5293 0.529297,0.5293 h 5.554688 c 0.289119,0 0.529297,-0.24018 0.529297,-0.5293 v -0.52929 c 0,-0.40447 -0.192936,-0.75791 -0.347657,-1.10742 -0.04851,-0.10976 -0.04079,-0.26268 0.0059,-0.33008 0.696452,-1.00638 0.871094,-2.84974 0.871094,-3.83594 0,-1.70509 -1.09375,-3.57227 -1.09375,-3.57227 -0.781975,-1.3636 -1.023438,-2.81991 -1.023438,-4.64843 a 0.26460996,0.26460996 0 0 0 -0.263672,-0.26368 z"
           id="path272398" />
        <path
           id="path81064"
           style="color:#000000;fill:#143441;fill-opacity:1;stroke-width:1;stroke-linecap:round;stroke-linejoin:round;-inkscape-stroke:none;paint-order:markers fill stroke"
           d="m 41.615549,312.42179 a 0.26460996,0.26460996 0 0 1 0.263549,0.26355 c 0,1.82852 0.241736,3.28521 1.02371,4.64881 0,0 1.093475,1.86679 1.093475,3.57188 0,0.9862 -0.174813,2.82956 -0.871265,3.83594 -0.04669,0.0674 -0.05419,0.22045 -0.0057,0.33021 0.154723,0.34951 0.347784,0.70296 0.347784,1.10743 v 0.52917 c 0,0.28911 -0.240565,0.52968 -0.529685,0.52968 h 0.529166 c 0.289121,0 0.529685,-0.24057 0.529685,-0.52968 v -0.52917 c 0,-0.40447 -0.193061,-0.75792 -0.347784,-1.10743 -0.04851,-0.10976 -0.041,-0.26281 0.0057,-0.33021 0.696452,-1.00638 0.871265,-2.84974 0.871265,-3.83594 0,-1.70509 -1.093476,-3.57188 -1.093476,-3.57188 -0.781973,-1.3636 -1.02371,-2.82029 -1.02371,-4.64881 a 0.26460996,0.26460996 0 0 0 -0.263548,-0.26355 z" />
        <path
           id="path72647"
           style="color:#000000;fill:#143441;fill-opacity:1;stroke-width:3.77953;stroke-linecap:round;stroke-linejoin:round;-inkscape-stroke:none;paint-order:markers fill stroke"
           d="m 143.00781,141.59961 c -1.04002,1.97408 -3.71875,7.55949 -3.71875,12.75391 0,3.72737 0.66071,10.6944 3.29297,14.49804 0.17632,0.25474 0.20468,0.83321 0.0215,1.24805 -0.58478,1.32098 -1.31445,2.65684 -1.31446,4.18555 v 2 c 0,1.09273 0.90727,2.00195 2,2.00195 h 5.92969 l 1.20117,-1.63086 c 1.00673,-1.36301 1.5586,-3.00742 1.5586,-4.71875 v -20.30664 c 0,-1.71148 -0.55923,-3.35573 -1.5586,-4.70898 l -2.20703,-2.99805 c -1.085,-1.46861 -2.80264,-2.32422 -4.61328,-2.32422 z"
           transform="matrix(0.26458334,0,0,0.26458334,0,280.06666)" />
        <path
           id="path272404"
           style="color:#000000;fill:#dc1c4b;stroke-width:3.77953;stroke-linecap:round;stroke-linejoin:round;-inkscape-stroke:none;paint-order:markers fill stroke"
           d="m 140.93164,146.28516 c -0.87378,2.39297 -1.64258,5.28705 -1.64258,8.06836 0,2.74134 0.3577,7.23478 1.59375,10.93359 h 25.8086 c 1.23605,-3.69881 1.59375,-8.19225 1.59375,-10.93359 0,-2.78136 -0.77112,-5.67537 -1.64649,-8.06836 z"
           transform="matrix(0.26458334,0,0,0.26458334,0,280.06666)" />
        <path
           id="path272410"
           style="color:#000000;fill:#d0e2ee;stroke-width:3.77953;stroke-linecap:round;stroke-linejoin:round;-inkscape-stroke:none;paint-order:markers fill stroke"
           d="m 148.28711,122.28711 a 1.0001006,1.0001006 0 0 0 -1.00391,0.99609 c 0,1.75751 -0.0606,3.42466 -0.19726,5.01758 l 13.39062,-0.0332 c -0.13458,-1.58274 -0.19336,-3.23924 -0.19336,-4.98438 a 1.0001006,1.0001006 0 0 0 -0.99609,-0.99609 z"
           transform="matrix(0.26458334,0,0,0.26458334,0,280.06666)" />
        <path
           id="path142244"
           style="color:#000000;fill:#a8c2e1;fill-opacity:1;stroke-width:3.77953;stroke-linecap:round;stroke-linejoin:round;-inkscape-stroke:none;paint-order:markers fill stroke"
           d="m 157.28711,122.28711 c 0.54921,0.002 0.99389,0.44688 0.99609,0.99609 0,1.74786 0.0582,3.40512 0.19336,4.99024 l 2,-0.006 c -0.0959,-1.1693 -0.14666,-2.38824 -0.174,-3.41216 -0.0114,-0.5169 -0.0195,-1.03925 -0.0195,-1.57227 -0.002,-0.54921 -0.44688,-0.99389 -0.99609,-0.99609 z"
           transform="matrix(0.26458334,0,0,0.26458334,0,280.06666)"
           sodipodi:nodetypes="cccccccc" />
        <path
           id="path72526"
           style="fill:#801231;fill-opacity:1;stroke-width:3.77953;stroke-linecap:round;stroke-linejoin:round;paint-order:markers fill stroke"
           d="m 140.93164,146.28516 c -0.87378,2.39297 -1.64258,5.28705 -1.64258,8.06836 0,2.74134 0.3577,7.23478 1.59375,10.93359 h 11.09571 v -13.65625 c 0,-1.71148 -0.55923,-3.35573 -1.5586,-4.70898 l -0.46875,-0.63672 z"
           transform="matrix(0.26458334,0,0,0.26458334,0,280.06666)" />
        <path
           id="path62889"
           style="color:#000000;fill:#a8c2e1;fill-opacity:1;stroke-width:3.77953;stroke-linecap:round;stroke-linejoin:round;-inkscape-stroke:none;paint-order:markers fill stroke"
           d="m 148.28711,122.28711 a 1.0001006,1.0001006 0 0 0 -1.00391,0.99609 c 0,1.0326 -0.0234,2.03042 -0.0684,3.00391 h 13.13672 c -0.0447,-0.97356 -0.0684,-1.97137 -0.0684,-3.00391 a 1.0001006,1.0001006 0 0 0 -0.99609,-0.99609 z"
           transform="matrix(0.26458334,0,0,0.26458334,0,280.06666)" />
        <path
           style="color:#000000;fill:#dc1c4b;stroke-linecap:round;stroke-linejoin:round;-inkscape-stroke:none;paint-order:markers fill stroke"
           d="m 39.234375,310.83398 c -0.288582,0 -0.529297,0.24072 -0.529297,0.5293 v 1.05859 c 0,0.28859 0.240715,0.5293 0.529297,0.5293 h 2.910156 c 0.288583,0 0.529297,-0.24071 0.529297,-0.5293 v -1.05859 c 0,-0.28858 -0.240714,-0.5293 -0.529297,-0.5293 z"
           id="path272440" />
        <path
           id="path30840"
           style="color:#000000;fill:#b01d47;stroke-width:3.77953;stroke-linecap:round;stroke-linejoin:round;-inkscape-stroke:none;paint-order:markers fill stroke"
           d="m 151.28516,120.28711 c -0.5496,0.002 -0.99616,0.44651 -0.99805,0.99609 v 3.00391 h 2.00195 v -3.00391 c -0.002,-0.55249 -0.45143,-0.99828 -1.0039,-0.99609 z m 4.95312,0 c -0.52865,0.0247 -0.95128,0.46087 -0.95312,0.99609 v 3.00391 h 2 v -3.00391 c -0.002,-0.54958 -0.4465,-0.9942 -0.9961,-0.99609 -0.0173,-7e-5 -0.0337,-8e-4 -0.0508,0 z"
           transform="matrix(0.26458334,0,0,0.26458334,0,280.06666)" />
        <path
           style="color:#000000;fill:#d0e2ee;stroke-linecap:round;stroke-linejoin:round;-inkscape-stroke:none;paint-order:markers fill stroke"
           d="m 40.689453,320.09375 c -0.50845,0 -0.925781,0.41928 -0.925781,0.92773 v 0.52735 c 0,0.50845 0.417331,0.92773 0.925781,0.92773 0.50845,0 0.925781,-0.41928 0.925781,-0.92773 v -0.52735 c 0,-0.50845 -0.417331,-0.92773 -0.925781,-0.92773 z"
           id="path272454" />
        <path
           style="color:#000000;fill:#143441;stroke-linecap:round;stroke-linejoin:round;-inkscape-stroke:none;paint-order:markers fill stroke"
           d="m 40.027344,316.6543 c -0.435242,0 -0.792969,0.35968 -0.792969,0.79492 0,0.43524 0.357727,0.79297 0.792969,0.79297 0.435242,0 0.794922,-0.35773 0.794922,-0.79297 0,-0.43524 -0.35968,-0.79492 -0.794922,-0.79492 z"
           id="path272460" />
        <path
           style="color:#000000;fill:#143441;stroke-linecap:round;stroke-linejoin:round;-inkscape-stroke:none;paint-order:markers fill stroke"
           d="m 40.953125,314.53906 c -0.508301,0 -0.925781,0.41748 -0.925781,0.92578 0,0.50831 0.41748,0.92578 0.925781,0.92578 0.508301,0 0.927734,-0.41747 0.927734,-0.92578 0,-0.5083 -0.419433,-0.92578 -0.927734,-0.92578 z"
           id="path272466" />
        <path
           style="color:#000000;fill:#143441;stroke-linecap:round;stroke-linejoin:round;-inkscape-stroke:none;paint-order:markers fill stroke"
           d="m 40.556641,324.32812 a 0.2645835,0.2645835 0 0 0 -0.263672,0.26368 v 1.05859 a 0.2645835,0.2645835 0 0 0 0.263672,0.26563 0.2645835,0.2645835 0 0 0 0.265625,-0.26563 v -1.05859 a 0.2645835,0.2645835 0 0 0 -0.265625,-0.26368 z"
           id="path272472" />
        <path
           style="color:#000000;fill:#143441;stroke-linecap:round;stroke-linejoin:round;-inkscape-stroke:none;paint-order:markers fill stroke"
           d="m 42.144531,324.32812 a 0.2645835,0.2645835 0 0 0 -0.263672,0.26368 c -10e-7,0.26458 -0.04751,0.85678 0.341797,1.24609 a 0.2645835,0.2645835 0 0 0 0.373047,0 0.2645835,0.2645835 0 0 0 0,-0.375 c -0.139854,-0.13985 -0.187501,-0.60651 -0.1875,-0.87109 a 0.2645835,0.2645835 0 0 0 -0.263672,-0.26368 z"
           id="path272478" />
        <path
           id="path60932"
           style="color:#000000;fill:#b01d47;fill-opacity:1;stroke-width:1;stroke-linecap:round;stroke-linejoin:round;-inkscape-stroke:none;paint-order:markers fill stroke"
           d="m 39.234299,310.83378 c -0.288409,0 -0.528879,0.24081 -0.529167,0.52916 h 2.910417 c 0.288584,0 0.529167,0.2411 0.529167,0.52969 v 1.05833 c 0.288583,0 0.529166,-0.24058 0.529166,-0.52917 v -1.05833 c 0,-0.28858 -0.240583,-0.52968 -0.529166,-0.52968 z" />
        <path
           id="path83450"
           style="color:#000000;fill:#801231;fill-opacity:1;stroke-width:3.77953;stroke-linecap:round;stroke-linejoin:round;-inkscape-stroke:none;paint-order:markers fill stroke"
           d="m 164.63867,146.28516 c 0.87515,2.39268 1.64649,5.287 1.64649,8.06836 0,2.74169 -0.35909,7.23451 -1.59571,10.93359 h 2 c 1.02208,-3.71796 1.59645,-7.16287 1.59645,-10.93388 0,-3.77101 -0.73237,-5.47848 -1.64683,-8.06833 z"
           transform="matrix(0.26458334,0,0,0.26458334,0,280.06666)"
           sodipodi:nodetypes="cscczcc" />
      </g>
      <g
         id="g141707">
        <path
           style="color:#000000;fill:#d0e2ee;stroke-linecap:round;stroke-linejoin:round;-inkscape-stroke:none;paint-order:markers fill stroke"
           d="m 35.79362,317.44922 c -0.42447,0 -0.792969,0.34815 -0.792969,0.79297 v 0.52929 a 0.26460996,0.26460996 0 0 0 0.265625,0.26563 h 1.056641 a 0.26460996,0.26460996 0 0 0 0.265625,-0.26563 v -0.52929 c 0,-0.44482 -0.370452,-0.79297 -0.794922,-0.79297 z"
           id="path272416" />
        <path
           id="path85546"
           style="color:#000000;fill:#a8c2e1;fill-opacity:1;stroke-width:1;stroke-linecap:round;stroke-linejoin:round;-inkscape-stroke:none;paint-order:markers fill stroke"
           d="m 35.773528,317.44939 c -0.08489,0.002 -0.166982,0.0181 -0.244431,0.046 0.302832,0.10877 0.530202,0.39805 0.530202,0.74673 v 0.52917 a 0.26460996,0.26460996 0 0 1 -0.253733,0.26561 h 0.517282 a 0.26460996,0.26460996 0 0 0 0.265617,-0.26561 v -0.52917 c 0,-0.44482 -0.370313,-0.79272 -0.794784,-0.79272 -0.0066,0 -0.01355,-1.7e-4 -0.02016,0 z" />
        <path
           style="color:#000000;fill:#50b86b;fill-opacity:1;stroke-linecap:round;stroke-linejoin:round;-inkscape-stroke:none;paint-order:markers fill stroke"
           d="m 34.652995,318.50781 c -0.171971,0 -0.33382,0.0829 -0.435547,0.22071 l -0.585937,0.79101 c -0.142302,0.19268 -0.21875,0.42609 -0.21875,0.66602 v 5.37304 c 0,0.23993 0.07645,0.4753 0.21875,0.66797 l 0.585937,0.79102 c 0.101709,0.13767 0.263516,0.2207 0.435547,0.2207 h 3.341797 c 0.171971,0 0.333821,-0.0829 0.435547,-0.2207 l 0.583984,-0.79102 c 0.142306,-0.19267 0.220703,-0.42804 0.220703,-0.66797 v -5.37304 c 0,-0.23993 -0.07841,-0.47334 -0.220703,-0.66602 l -0.583984,-0.79101 a 0.26460996,0.26460996 0 0 0 0,-0.002 c -0.101708,-0.13767 -0.263516,-0.21875 -0.435547,-0.21875 z"
           id="path272422" />
        <path
           id="path272428"
           style="color:#000000;fill:#349951;fill-opacity:1;stroke-width:1;stroke-linecap:round;stroke-linejoin:round;-inkscape-stroke:none;paint-order:markers fill stroke"
           d="m 33.412949,324.59159 v 0.96687 c 0,0.19697 0.05164,0.39096 0.148828,0.56069 l 5.523694,-0.002 c 0.09692,-0.16925 0.149344,-0.36243 0.149344,-0.55862 v -0.96687 z" />
        <path
           style="color:#000000;fill:#e4ed97;fill-opacity:1;stroke-linecap:round;stroke-linejoin:round;-inkscape-stroke:none;paint-order:markers fill stroke"
           d="m 36.322917,321.71484 c -0.634618,0 -1.150391,0.52201 -1.150391,1.15821 0,0.6362 0.515773,1.1582 1.150391,1.1582 0.634618,0 1.152344,-0.522 1.152344,-1.1582 0,-0.6362 -0.517726,-1.15821 -1.152344,-1.15821 z"
           id="path272434" />
        <path
           id="path272484"
           style="color:#000000;fill:#349951;fill-opacity:1;stroke-width:1;stroke-linecap:round;stroke-linejoin:round;-inkscape-stroke:none;paint-order:markers fill stroke"
           d="m 33.561777,319.62704 c -0.09717,0.16924 -0.148828,0.36167 -0.148828,0.55862 v 0.96842 l 5.821866,-0.002 v -0.96687 c 0,-0.19695 -0.05274,-0.38938 -0.150379,-0.55862 z" />
      </g>
    </g>
  </g>
</svg>
