<?xml version="1.0" encoding="UTF-8" standalone="no"?>
<svg
   sodipodi:docname="15 - Soup.svg"
   inkscape:version="1.1.1 (1:1.1+202109281949+c3084ef5ed)"
   id="svg831"
   version="1.1"
   viewBox="0 0 22.577778 22.577778"
   height="64pt"
   width="64pt"
   inkscape:export-filename="/media/taufikramadhan/Data/Tr Design Studio/Project Design/TR Creative Design/Icon Design/Project Hiring/Icon Icons/010 - Food/Send/3 - Flat/15 - Soup.png"
   inkscape:export-xdpi="576"
   inkscape:export-ydpi="576"
   xmlns:inkscape="http://www.inkscape.org/namespaces/inkscape"
   xmlns:sodipodi="http://sodipodi.sourceforge.net/DTD/sodipodi-0.dtd"
   xmlns="http://www.w3.org/2000/svg"
   xmlns:svg="http://www.w3.org/2000/svg"
   xmlns:rdf="http://www.w3.org/1999/02/22-rdf-syntax-ns#"
   xmlns:cc="http://creativecommons.org/ns#"
   xmlns:dc="http://purl.org/dc/elements/1.1/">
  <defs
     id="defs825">
    <pattern
       y="0"
       x="0"
       height="6"
       width="6"
       patternUnits="userSpaceOnUse"
       id="EMFhbasepattern" />
    <pattern
       y="0"
       x="0"
       height="6"
       width="6"
       patternUnits="userSpaceOnUse"
       id="EMFhbasepattern-9" />
    <pattern
       y="0"
       x="0"
       height="6"
       width="6"
       patternUnits="userSpaceOnUse"
       id="EMFhbasepattern-0" />
    <pattern
       y="0"
       x="0"
       height="6"
       width="6"
       patternUnits="userSpaceOnUse"
       id="EMFhbasepattern-7" />
    <pattern
       y="0"
       x="0"
       height="6"
       width="6"
       patternUnits="userSpaceOnUse"
       id="EMFhbasepattern-2" />
    <pattern
       y="0"
       x="0"
       height="6"
       width="6"
       patternUnits="userSpaceOnUse"
       id="EMFhbasepattern-98" />
    <pattern
       y="0"
       x="0"
       height="6"
       width="6"
       patternUnits="userSpaceOnUse"
       id="EMFhbasepattern-6" />
    <pattern
       y="0"
       x="0"
       height="6"
       width="6"
       patternUnits="userSpaceOnUse"
       id="EMFhbasepattern-01" />
    <pattern
       y="0"
       x="0"
       height="6"
       width="6"
       patternUnits="userSpaceOnUse"
       id="EMFhbasepattern-07" />
    <pattern
       y="0"
       x="0"
       height="6"
       width="6"
       patternUnits="userSpaceOnUse"
       id="EMFhbasepattern-8" />
    <pattern
       y="0"
       x="0"
       height="6"
       width="6"
       patternUnits="userSpaceOnUse"
       id="EMFhbasepattern-4" />
    <pattern
       y="0"
       x="0"
       height="6"
       width="6"
       patternUnits="userSpaceOnUse"
       id="EMFhbasepattern-40" />
    <pattern
       y="0"
       x="0"
       height="6"
       width="6"
       patternUnits="userSpaceOnUse"
       id="EMFhbasepattern-08" />
    <pattern
       y="0"
       x="0"
       height="6"
       width="6"
       patternUnits="userSpaceOnUse"
       id="EMFhbasepattern-04" />
    <pattern
       y="0"
       x="0"
       height="6"
       width="6"
       patternUnits="userSpaceOnUse"
       id="EMFhbasepattern-014" />
    <pattern
       y="0"
       x="0"
       height="6"
       width="6"
       patternUnits="userSpaceOnUse"
       id="EMFhbasepattern-27" />
    <pattern
       y="0"
       x="0"
       height="6"
       width="6"
       patternUnits="userSpaceOnUse"
       id="EMFhbasepattern-09" />
    <pattern
       y="0"
       x="0"
       height="6"
       width="6"
       patternUnits="userSpaceOnUse"
       id="EMFhbasepattern-5" />
    <pattern
       y="0"
       x="0"
       height="6"
       width="6"
       patternUnits="userSpaceOnUse"
       id="EMFhbasepattern-018" />
  </defs>
  <sodipodi:namedview
     inkscape:document-rotation="0"
     inkscape:snap-global="true"
     inkscape:snap-nodes="false"
     inkscape:bbox-nodes="true"
     inkscape:snap-bbox="true"
     showguides="false"
     inkscape:snap-midpoints="true"
     inkscape:snap-smooth-nodes="true"
     inkscape:snap-intersection-paths="true"
     inkscape:object-paths="true"
     inkscape:showpageshadow="false"
     inkscape:pagecheckerboard="true"
     inkscape:window-maximized="1"
     inkscape:window-y="31"
     inkscape:window-x="0"
     inkscape:window-height="705"
     inkscape:window-width="1366"
     units="pt"
     showgrid="false"
     inkscape:current-layer="layer1"
     inkscape:document-units="pt"
     inkscape:cy="42.732286"
     inkscape:cx="42.628314"
     inkscape:zoom="4.8090103"
     inkscape:pageshadow="2"
     inkscape:pageopacity="0.0"
     borderopacity="1.0"
     bordercolor="#666666"
     pagecolor="#ffffff"
     id="base">
    <inkscape:grid
       id="grid1378"
       type="xygrid" />
    <sodipodi:guide
       inkscape:locked="false"
       id="guide1380"
       orientation="78.000048,0"
       position="0.97013831,21.607643" />
    <sodipodi:guide
       inkscape:locked="false"
       id="guide1382"
       orientation="0,78.000005"
       position="0.97013831,0.97013129" />
    <sodipodi:guide
       inkscape:locked="false"
       id="guide1384"
       orientation="-78.000048,0"
       position="21.607639,0.97013129" />
    <sodipodi:guide
       inkscape:locked="false"
       id="guide1386"
       orientation="0,-78.000005"
       position="21.607639,21.607643" />
  </sodipodi:namedview>
  <metadata
     id="metadata828">
    <rdf:RDF>
      <cc:Work
         rdf:about="">
        <dc:format>image/svg+xml</dc:format>
        <dc:type
           rdf:resource="http://purl.org/dc/dcmitype/StillImage" />
      </cc:Work>
    </rdf:RDF>
  </metadata>
  <g
     transform="translate(0,-274.42223)"
     id="layer1"
     inkscape:groupmode="layer"
     inkscape:label="Icon">
    <g
       id="g370717"
       transform="matrix(1.2580128,0,0,1.2580128,0.63754998,-122.29716)"
       style="display:inline">
      <g
         id="g370100">
        <path
           style="color:#000000;fill:#e2f0fa;fill-opacity:1;stroke-linecap:round;stroke-linejoin:round;-inkscape-stroke:none;paint-order:markers fill stroke"
           d="m 13.740234,326.86589 -10.5488277,0.004 a 0.26460996,0.26460996 0 0 0 -0.1855469,0.0742 c -0.5520759,0.53885 -0.888672,1.19108 -0.8886719,1.89649 10e-8,1.07258 0.7646479,2.00451 1.9160156,2.65234 1.1513678,0.64783 2.7129262,1.03711 4.4335938,1.03711 1.7206671,0 3.2822261,-0.38928 4.4335941,-1.03711 1.151367,-0.64783 1.916015,-1.57976 1.916015,-2.65234 0,-0.70665 -0.338766,-1.35902 -0.892578,-1.89844 a 0.26460996,0.26460996 0 0 0 -0.183594,-0.0762 z"
           id="path272306" />
        <path
           id="path285575"
           style="fill:#c8dae5;fill-opacity:1;stroke-width:3.77953;stroke-linecap:round;stroke-linejoin:round;paint-order:markers fill stroke"
           d="m 51.931641,176.87891 -39.869141,0.0156 a 1.0001006,1.0001006 0 0 0 -0.701172,0.2793 c -0.741759,0.72399 -1.3791754,1.5041 -1.8945311,2.32617 2.0898741,3.37879 4.9967521,5.99987 8.2421871,7.83008 l 0.908204,2.44922 c 0.991689,2.6663 3.547658,4.4375 6.384765,4.4375 h 13.996094 c 2.83711,0 5.395035,-1.7712 6.386719,-4.4375 a 2.933042,2.933042 0 0 0 0.0059,0 l 0.916016,-2.46485 c 3.235946,-1.82929 6.137437,-4.44373 8.224609,-7.81445 -0.518341,-0.82499 -1.160279,-1.60545 -1.90625,-2.33203 a 1.0001006,1.0001006 0 0 0 -0.693359,-0.28906 z"
           transform="matrix(0.26458334,0,0,0.26458334,0,280.06666)" />
      </g>
      <g
         id="g370075">
        <path
           style="color:#000000;fill:#d0e2ee;stroke-linecap:round;stroke-linejoin:round;-inkscape-stroke:none;paint-order:markers fill stroke"
           d="m 8.3300781,316.16276 a 0.2645835,0.2645835 0 0 0 -0.089844,0.36328 c 0.1744147,0.29069 0.2051123,0.50422 0.1855469,0.70313 -0.019566,0.19891 -0.1010818,0.39284 -0.1992188,0.60547 -0.098137,0.21263 -0.2145101,0.44171 -0.2460938,0.7207 -0.031584,0.27899 0.045203,0.59738 0.2753907,0.9043 a 0.2645835,0.2645835 0 0 0 0.3691406,0.0527 0.2645835,0.2645835 0 0 0 0.052734,-0.37109 c -0.1666872,-0.22225 -0.1899007,-0.36616 -0.171875,-0.52539 0.018026,-0.15923 0.1008715,-0.34323 0.2011719,-0.56055 0.1003003,-0.21732 0.2160498,-0.46994 0.2460937,-0.77539 0.030044,-0.30544 -0.037306,-0.65462 -0.2597656,-1.02539 a 0.2645835,0.2645835 0 0 0 -0.3632813,-0.0918 z"
           id="path17357" />
        <path
           style="color:#000000;fill:#d0e2ee;stroke-linecap:round;stroke-linejoin:round;-inkscape-stroke:none;paint-order:markers fill stroke"
           d="m 9.4335938,317.96159 a 0.2645835,0.2645835 0 0 0 -0.1484375,0.13672 c -0.098137,0.21263 -0.2145102,0.44367 -0.2460938,0.72266 -0.031584,0.27899 0.043249,0.59543 0.2734375,0.90234 a 0.2645835,0.2645835 0 0 0 0.3710938,0.0547 0.2645835,0.2645835 0 0 0 0.052734,-0.3711 c -0.1666865,-0.22224 -0.1899007,-0.36811 -0.171875,-0.52734 0.018026,-0.15923 0.1008716,-0.34127 0.2011719,-0.55859 a 0.2645835,0.2645835 0 0 0 -0.1289062,-0.35157 0.2645835,0.2645835 0 0 0 -0.203125,-0.008 z"
           id="path17800" />
        <path
           style="color:#000000;fill:#d0e2ee;stroke-linecap:round;stroke-linejoin:round;-inkscape-stroke:none;paint-order:markers fill stroke"
           d="m 7.3164062,317.96159 a 0.2645835,0.2645835 0 0 0 -0.1484375,0.13672 c -0.098137,0.21263 -0.2145101,0.44367 -0.2460937,0.72266 -0.031584,0.27899 0.045202,0.59543 0.2753906,0.90234 a 0.2645835,0.2645835 0 0 0 0.3691406,0.0547 0.2645835,0.2645835 0 0 0 0.052734,-0.3711 c -0.1666865,-0.22224 -0.1899007,-0.36811 -0.171875,-0.52734 0.018026,-0.15923 0.1008716,-0.34127 0.2011719,-0.55859 a 0.2645835,0.2645835 0 0 0 -0.1289063,-0.35157 0.2645835,0.2645835 0 0 0 -0.203125,-0.008 z"
           id="path17802" />
      </g>
      <g
         id="g370096">
        <path
           style="color:#000000;fill:#5b6571;fill-opacity:1;stroke-width:1;stroke-linecap:round;stroke-linejoin:round;-inkscape-stroke:none;paint-order:markers fill stroke"
           d="m 8.466792,320.35833 c -1.4625817,0 -2.7971366,0.30114 -3.817072,0.80859 -1.0199354,0.50746 -1.7481639,1.22969 -1.9020788,2.11524 a 0.24994589,0.26460996 0 0 0 -0.00184,0.0879 c 0.1440862,1.02298 0.8603577,1.89738 1.88363,2.51172 1.0232722,0.61433 2.3662418,0.98047 3.8373657,0.98047 1.4691051,0 2.8108141,-0.36545 3.8336761,-0.97852 1.022861,-0.61307 1.739812,-1.48606 1.88732,-2.50781 a 0.24994589,0.26460996 0 0 0 -0.0019,-0.0859 c -0.160382,-0.94351 -0.966445,-1.69996 -2.086567,-2.21094 a 0.24994589,0.26460996 0 0 0 -0.02398,-0.01 L 10.71936,320.614 a 0.24994589,0.26460996 0 0 0 -0.0203,-0.006 c -0.686752,-0.16113 -1.4408813,-0.25 -2.2323133,-0.25 z"
           id="path275409" />
        <path
           style="color:#000000;fill:#7d8e9e;stroke-linecap:round;stroke-linejoin:round;-inkscape-stroke:none;paint-order:markers fill stroke"
           d="m 2.6621094,324.06315 a 0.26460996,0.26460996 0 0 0 -0.2636719,0.26563 c 2.6e-6,2.43372 1.2858388,3.99622 2.9277344,4.80273 l 0.3261718,0.87891 c 0.1491333,0.40097 0.5350839,0.66797 0.9628907,0.66797 h 3.7031246 c 0.427808,0 0.813759,-0.267 0.962891,-0.66797 l 0.326172,-0.88086 c 1.640858,-0.80683 2.927731,-2.3681 2.927734,-4.80078 a 0.26460996,0.26460996 0 0 0 -0.263672,-0.26563 z"
           id="path272312" />
        <path
           style="color:#000000;fill:#fed883;stroke-width:0.999999;stroke-linecap:round;stroke-linejoin:round;-inkscape-stroke:none;paint-order:markers fill stroke"
           d="m 8.4667969,321.41666 c -1.5483899,0 -2.9612417,0.29311 -4.0410157,0.78704 -1.0797739,0.49393 -1.8507268,1.19691 -2.0136718,2.05885 a 0.26460996,0.25755651 0 0 0 -0.00195,0.0856 c 0.1525396,0.99571 0.910834,1.8468 1.9941406,2.44477 1.0833065,0.59795 2.5050668,0.95433 4.0625,0.95433 1.555296,0 2.975722,-0.35571 4.058594,-0.95244 1.082871,-0.59672 1.841885,-1.44644 1.998047,-2.44096 a 0.26460996,0.25755651 0 0 0 -0.002,-0.0836 c -0.169791,-0.91836 -1.023145,-1.65464 -2.208984,-2.152 a 0.26460996,0.25755651 0 0 0 -0.02539,-0.01 l -1.435546,-0.44295 a 0.26460996,0.25755651 0 0 0 -0.02149,-0.006 c -0.727043,-0.15683 -1.5254165,-0.24333 -2.363281,-0.24333 z"
           id="path272318" />
        <path
           id="path319345"
           style="color:#000000;fill:#cba158;fill-opacity:1;stroke-width:0.999998;stroke-linecap:round;stroke-linejoin:round;-inkscape-stroke:none;paint-order:markers fill stroke"
           d="m 8.4666667,321.41608 v 5.2e-4 c -1.5483899,0 -2.9613231,0.29311 -4.0410972,0.78704 -0.8162097,0.37336 -1.4554897,0.86612 -1.7895547,1.45676 0.2224823,-0.14482 0.4675542,-0.27782 0.7312213,-0.39843 1.0797741,-0.49393 2.4927074,-0.78703 4.0410972,-0.78703 v -5.3e-4 c 0.8378645,0 1.6361203,0.0866 2.3631633,0.24339 a 0.26460996,0.25755651 0 0 1 0.021704,0.006 l 1.4355714,0.44287 a 0.26460996,0.25755651 0 0 1 0.02532,0.0103 c 1.185839,0.49736 2.039377,1.23345 2.209168,2.15181 a 0.26460996,0.25755651 0 0 1 0.0021,0.0837 c -0.05893,0.3753 -0.203965,0.73008 -0.419613,1.05833 0.801869,-0.5643 1.348216,-1.29048 1.477946,-2.11667 a 0.26460996,0.25755651 0 0 0 -0.0021,-0.0837 c -0.169791,-0.91837 -1.023329,-1.65445 -2.209168,-2.15181 a 0.26460996,0.25755651 0 0 0 -0.02532,-0.0104 l -1.435571,-0.44286 a 0.26460996,0.25755651 0 0 0 -0.0217,-0.006 c -0.727042,-0.15673 -1.5252978,-0.24329 -2.3631623,-0.24329 z" />
        <path
           id="path30920"
           style="color:#000000;fill:#7d8e9e;stroke-width:1;stroke-linecap:round;stroke-linejoin:round;-inkscape-stroke:none;paint-order:markers fill stroke"
           d="m 8.4666667,320.196 c -1.6515631,0 -3.1509944,0.41081 -4.2555542,1.09347 -1.10456,0.68265 -1.8303778,1.6587 -1.8303794,2.76779 -3.4e-6,1.1091 0.7258191,2.08668 1.8303794,2.76934 1.10456,0.68265 2.6039879,1.09399 4.2555542,1.09399 1.6515663,0 3.1515113,-0.41134 4.2560713,-1.09399 1.104561,-0.68266 1.829866,-1.66024 1.829862,-2.76934 -2e-6,-1.12591 -0.747093,-2.11432 -1.880505,-2.79879 a 0.26460996,0.26460996 0 0 0 -0.03359,-0.0176 l -1.574064,-0.678 a 0.26460996,0.26460996 0 0 0 -0.02946,-0.0114 C 10.253545,320.32221 9.3836056,320.196 8.4666627,320.196 Z m 0,0.52916 c 0.8636581,0 1.6804883,0.11991 2.4081223,0.33228 l 1.527555,0.65785 c 1.026623,0.62159 1.621088,1.45246 1.62109,2.34197 2e-6,0.87774 -0.5781,1.69883 -1.580266,2.31821 -1.002165,0.61937 -2.413309,1.01595 -3.9765013,1.01595 -1.5631925,0 -2.9743361,-0.39658 -3.9765016,-1.01595 -1.0021655,-0.61938 -1.5802682,-1.44047 -1.5802653,-2.31821 1.1e-6,-0.87773 0.5781001,-1.69883 1.5802653,-2.3182 1.0021652,-0.61938 2.413312,-1.0139 3.9765016,-1.0139 z" />
        <path
           style="color:#000000;fill:#dc1c4b;stroke-linecap:round;stroke-linejoin:round;-inkscape-stroke:none;paint-order:markers fill stroke"
           d="m 6.8789062,325.12175 c -0.4352417,0 -0.7929687,0.35773 -0.7929687,0.79297 0,0.43524 0.357727,0.79492 0.7929687,0.79492 0.4352418,0 0.7949219,-0.35968 0.7949219,-0.79492 0,-0.43524 -0.3596801,-0.79297 -0.7949219,-0.79297 z"
           id="path272328" />
        <path
           style="color:#000000;fill:#feefc8;stroke-linecap:round;stroke-linejoin:round;-inkscape-stroke:none;paint-order:markers fill stroke"
           d="m 6.6289062,323.04948 a 0.26460996,0.26460996 0 0 0 -0.3671875,0.0742 l -0.5292968,0.79299 a 0.26460996,0.26460996 0 0 0 0.074219,0.36719 l 0.7929688,0.52929 a 0.26460996,0.26460996 0 0 0 0.3671875,-0.0742 l 0.5292968,-0.79297 a 0.26460996,0.26460996 0 0 0 -0.074219,-0.36719 z"
           id="path272334" />
        <path
           style="color:#000000;fill:#50b86b;stroke-linecap:round;stroke-linejoin:round;-inkscape-stroke:none;paint-order:markers fill stroke"
           d="m 5.2910156,324.59245 a 0.2645835,0.2645835 0 0 0 -0.2636719,0.26367 0.2645835,0.2645835 0 0 0 0.2636719,0.26563 h 0.265625 a 0.2645835,0.2645835 0 0 0 0.2636719,-0.26563 0.2645835,0.2645835 0 0 0 -0.2636719,-0.26367 z"
           id="path9867" />
        <path
           style="color:#000000;fill:#50b86b;stroke-linecap:round;stroke-linejoin:round;-inkscape-stroke:none;paint-order:markers fill stroke"
           d="m 8.3359375,325.39519 a 0.2645835,0.2645835 0 0 0 -0.1992187,0.0273 0.2645835,0.2645835 0 0 0 -0.097656,0.36133 l 0.1328125,0.22851 a 0.2645835,0.2645835 0 0 0 0.3613281,0.0977 0.2645835,0.2645835 0 0 0 0.095703,-0.36328 L 8.498047,325.51823 a 0.2645835,0.2645835 0 0 0 -0.1621095,-0.12304 z"
           id="path9949" />
        <path
           style="color:#000000;fill:#9a605a;stroke-linecap:round;stroke-linejoin:round;-inkscape-stroke:none;paint-order:markers fill stroke"
           d="m 12.705078,317.62956 c -0.724276,-0.19407 -1.527973,0.22852 -1.646484,0.95508 l -0.675781,4.13672 a 0.26460996,0.26460996 0 0 0 0.193359,0.29883 l 1.277344,0.34179 a 0.26460996,0.26460996 0 0 0 0.316406,-0.16211 l 1.484375,-3.91992 c 0.260645,-0.68848 -0.224952,-1.45631 -0.949219,-1.65039 z"
           id="path272348" />
        <path
           style="color:#000000;fill:#66342d;stroke-linecap:round;stroke-linejoin:round;-inkscape-stroke:none;paint-order:markers fill stroke"
           d="m 12.234375,318.33854 a 0.2645835,0.2645835 0 0 0 -0.181641,0.0879 0.2645835,0.2645835 0 0 0 0.02149,0.375 c 0,0 0.180375,0.14504 0.201172,0.50781 a 0.2645835,0.2645835 0 0 0 0.279297,0.25 0.2645835,0.2645835 0 0 0 0.248046,-0.2793 c -0.03177,-0.55409 -0.376953,-0.875 -0.376953,-0.875 a 0.2645835,0.2645835 0 0 0 -0.191406,-0.0664 z"
           id="path11773" />
        <path
           id="path350571"
           style="color:#000000;fill:#66342d;fill-opacity:1;stroke-width:1;stroke-linecap:round;stroke-linejoin:round;-inkscape-stroke:none;paint-order:markers fill stroke"
           d="m 12.362553,317.58272 c -0.50458,-0.006 -0.98976,0.25829 -1.204061,0.69091 0.300486,-0.1582 0.668192,-0.20832 1.017509,-0.11472 0.724267,0.19408 1.209941,0.96155 0.949296,1.65003 l -1.338936,3.53518 0.06718,0.0181 a 0.26460996,0.26460996 0 0 0 0.31626,-0.16226 l 1.484664,-3.92018 c 0.260645,-0.68848 -0.225029,-1.45595 -0.949296,-1.65003 -0.113168,-0.0303 -0.228485,-0.0456 -0.342615,-0.047 z" />
        <path
           style="color:#000000;fill:#66342d;stroke-linecap:round;stroke-linejoin:round;-inkscape-stroke:none;paint-order:markers fill stroke"
           d="m 11.404297,322.48503 c -0.811235,-0.21737 -1.6471407,0.30679 -1.8710939,1.14258 -0.065004,0.24259 -0.081658,0.5039 -0.023437,0.75976 l 0.037109,0.16211 a 0.26460996,0.26460996 0 0 0 0.3496094,0.18946 l 0.1542965,-0.0566 c 0.130344,-0.0474 0.273953,-0.0474 0.404297,0 l 0.142578,0.0527 c 0.247039,0.0898 0.518586,0.0898 0.765625,0 l 0.142578,-0.0527 c 0.130342,-0.0474 0.273971,-0.0474 0.404297,0 l 0.15625,0.0566 a 0.26460996,0.26460996 0 0 0 0.345703,-0.17969 l 0.04297,-0.16406 a 0.26460996,0.26460996 0 0 0 0,-0.002 c 0.214505,-0.83199 -0.245235,-1.69235 -1.050781,-1.9082 z"
           id="path272358" />
        <path
           style="color:#000000;fill:#cba158;fill-opacity:1;stroke-linecap:round;stroke-linejoin:round;-inkscape-stroke:none;paint-order:markers fill stroke"
           d="m 9.8691406,324.1862 -0.4335937,0.1582 a 0.2645835,0.2645835 0 0 0 -0.1601563,0.33789 0.2645835,0.2645835 0 0 0 0.3398438,0.15821 l 0.4355466,-0.15821 c 0.130335,-0.0474 0.273963,-0.0474 0.404297,0 l 0.142578,0.0527 c 0.247049,0.0898 0.518577,0.0898 0.765625,0 l 0.142578,-0.0527 c 0.130335,-0.0474 0.273963,-0.0474 0.404297,0 l 0.435547,0.15821 a 0.2645835,0.2645835 0 0 0 0.337891,-0.15821 0.2645835,0.2645835 0 0 0 -0.158203,-0.33789 l -0.435547,-0.1582 c -0.247049,-0.0898 -0.516623,-0.0898 -0.763672,0 l -0.144531,0.0508 c -0.130335,0.0474 -0.27201,0.0474 -0.402344,0 l -0.144531,-0.0508 c -0.247049,-0.0898 -0.518577,-0.0898 -0.7656254,0 z"
           id="path13407" />
        <path
           style="color:#000000;fill:#ec7523;stroke-linecap:round;stroke-linejoin:round;-inkscape-stroke:none;paint-order:markers fill stroke"
           d="m 9.7890625,325.12175 c -0.4352418,0 -0.7929688,0.35773 -0.7929687,0.79297 0,0.43524 0.3577269,0.79492 0.7929687,0.79492 0.4352415,0 0.7949215,-0.35968 0.7949215,-0.79492 0,-0.43524 -0.35968,-0.79297 -0.7949215,-0.79297 z"
           id="path272368" />
        <path
           style="color:#000000;fill:#50b86b;stroke-linecap:round;stroke-linejoin:round;-inkscape-stroke:none;paint-order:markers fill stroke"
           d="m 8.53125,324.10808 a 0.2645835,0.2645835 0 0 0 -0.1621094,0.12304 l -0.1308593,0.22852 a 0.2645835,0.2645835 0 0 0 0.095703,0.36133 0.2645835,0.2645835 0 0 0 0.3613281,-0.0957 l 0.1328126,-0.23048 a 0.2645835,0.2645835 0 0 0 -0.097656,-0.36132 0.2645835,0.2645835 0 0 0 -0.1992188,-0.0254 z"
           id="path15160" />
        <path
           style="color:#000000;fill:#50b86b;stroke-linecap:round;stroke-linejoin:round;-inkscape-stroke:none;paint-order:markers fill stroke"
           d="m 11.375,325.01628 a 0.2645835,0.2645835 0 0 0 -0.160156,0.12305 l -0.132813,0.22851 a 0.2645835,0.2645835 0 0 0 0.0957,0.36133 0.2645835,0.2645835 0 0 0 0.363282,-0.0957 l 0.130859,-0.23047 a 0.2645835,0.2645835 0 0 0 -0.0957,-0.36133 0.2645835,0.2645835 0 0 0 -0.201172,-0.0254 z"
           id="path15520" />
        <path
           style="color:#000000;fill:#dc1c4b;stroke-linecap:round;stroke-linejoin:round;-inkscape-stroke:none;paint-order:markers fill stroke"
           d="m 7.9375,322.74089 a 0.2645835,0.2645835 0 0 0 -0.2636719,0.26367 c -2.7e-6,0.43524 0.3577239,0.79492 0.7929688,0.79492 0.4352449,0 0.7929714,-0.35968 0.7929687,-0.79492 a 0.2645835,0.2645835 0 0 0 -0.2636718,-0.26367 0.2645835,0.2645835 0 0 0 -0.265625,0.26367 c 9e-7,0.14926 -0.1144134,0.26563 -0.2636719,0.26563 -0.1492586,0 -0.2656259,-0.11637 -0.265625,-0.26563 A 0.2645835,0.2645835 0 0 0 7.9375,322.74089 Z"
           id="circle17005" />
        <path
           id="path280655"
           style="color:#000000;fill:#5b6571;fill-opacity:1;stroke-width:1;stroke-linecap:round;stroke-linejoin:round;-inkscape-stroke:none;paint-order:markers fill stroke"
           d="m 5.3262899,329.13124 0.2134238,0.57568 c 0.4850074,0.10127 1.756613,0.34142 2.9269532,0.34106 1.1711631,-2.6e-4 2.4437651,-0.2422 2.9279871,-0.34365 l 0.212907,-0.57464 c -2.0583159,0.43767 -4.1482669,0.47377 -6.2812711,0.002 z"
           sodipodi:nodetypes="ccccccc" />
      </g>
    </g>
  </g>
</svg>
