<?xml version="1.0" encoding="UTF-8" standalone="no"?>
<svg
   sodipodi:docname="17 - Sushi.svg"
   inkscape:version="1.1.1 (1:1.1+202109281949+c3084ef5ed)"
   id="svg831"
   version="1.1"
   viewBox="0 0 22.577778 22.577778"
   height="64pt"
   width="64pt"
   inkscape:export-filename="/media/taufikramadhan/Data/Tr Design Studio/Project Design/TR Creative Design/Icon Design/Project Hiring/Icon Icons/010 - Food/Send/3 - Flat/17 - Sushi.png"
   inkscape:export-xdpi="576"
   inkscape:export-ydpi="576"
   xmlns:inkscape="http://www.inkscape.org/namespaces/inkscape"
   xmlns:sodipodi="http://sodipodi.sourceforge.net/DTD/sodipodi-0.dtd"
   xmlns="http://www.w3.org/2000/svg"
   xmlns:svg="http://www.w3.org/2000/svg"
   xmlns:rdf="http://www.w3.org/1999/02/22-rdf-syntax-ns#"
   xmlns:cc="http://creativecommons.org/ns#"
   xmlns:dc="http://purl.org/dc/elements/1.1/">
  <defs
     id="defs825">
    <pattern
       y="0"
       x="0"
       height="6"
       width="6"
       patternUnits="userSpaceOnUse"
       id="EMFhbasepattern" />
    <pattern
       y="0"
       x="0"
       height="6"
       width="6"
       patternUnits="userSpaceOnUse"
       id="EMFhbasepattern-9" />
    <pattern
       y="0"
       x="0"
       height="6"
       width="6"
       patternUnits="userSpaceOnUse"
       id="EMFhbasepattern-0" />
    <pattern
       y="0"
       x="0"
       height="6"
       width="6"
       patternUnits="userSpaceOnUse"
       id="EMFhbasepattern-7" />
    <pattern
       y="0"
       x="0"
       height="6"
       width="6"
       patternUnits="userSpaceOnUse"
       id="EMFhbasepattern-2" />
    <pattern
       y="0"
       x="0"
       height="6"
       width="6"
       patternUnits="userSpaceOnUse"
       id="EMFhbasepattern-98" />
    <pattern
       y="0"
       x="0"
       height="6"
       width="6"
       patternUnits="userSpaceOnUse"
       id="EMFhbasepattern-6" />
    <pattern
       y="0"
       x="0"
       height="6"
       width="6"
       patternUnits="userSpaceOnUse"
       id="EMFhbasepattern-01" />
    <pattern
       y="0"
       x="0"
       height="6"
       width="6"
       patternUnits="userSpaceOnUse"
       id="EMFhbasepattern-07" />
    <pattern
       y="0"
       x="0"
       height="6"
       width="6"
       patternUnits="userSpaceOnUse"
       id="EMFhbasepattern-8" />
    <pattern
       y="0"
       x="0"
       height="6"
       width="6"
       patternUnits="userSpaceOnUse"
       id="EMFhbasepattern-4" />
    <pattern
       y="0"
       x="0"
       height="6"
       width="6"
       patternUnits="userSpaceOnUse"
       id="EMFhbasepattern-40" />
    <pattern
       y="0"
       x="0"
       height="6"
       width="6"
       patternUnits="userSpaceOnUse"
       id="EMFhbasepattern-08" />
    <pattern
       y="0"
       x="0"
       height="6"
       width="6"
       patternUnits="userSpaceOnUse"
       id="EMFhbasepattern-04" />
    <pattern
       y="0"
       x="0"
       height="6"
       width="6"
       patternUnits="userSpaceOnUse"
       id="EMFhbasepattern-014" />
    <pattern
       y="0"
       x="0"
       height="6"
       width="6"
       patternUnits="userSpaceOnUse"
       id="EMFhbasepattern-27" />
    <pattern
       y="0"
       x="0"
       height="6"
       width="6"
       patternUnits="userSpaceOnUse"
       id="EMFhbasepattern-09" />
    <pattern
       y="0"
       x="0"
       height="6"
       width="6"
       patternUnits="userSpaceOnUse"
       id="EMFhbasepattern-5" />
    <pattern
       y="0"
       x="0"
       height="6"
       width="6"
       patternUnits="userSpaceOnUse"
       id="EMFhbasepattern-018" />
  </defs>
  <sodipodi:namedview
     inkscape:document-rotation="0"
     inkscape:snap-global="true"
     inkscape:snap-nodes="false"
     inkscape:bbox-nodes="true"
     inkscape:snap-bbox="true"
     showguides="false"
     inkscape:snap-midpoints="true"
     inkscape:snap-smooth-nodes="true"
     inkscape:snap-intersection-paths="true"
     inkscape:object-paths="true"
     inkscape:showpageshadow="false"
     inkscape:pagecheckerboard="true"
     inkscape:window-maximized="1"
     inkscape:window-y="31"
     inkscape:window-x="0"
     inkscape:window-height="705"
     inkscape:window-width="1366"
     units="pt"
     showgrid="false"
     inkscape:current-layer="layer1"
     inkscape:document-units="pt"
     inkscape:cy="42.732286"
     inkscape:cx="42.628314"
     inkscape:zoom="4.8090103"
     inkscape:pageshadow="2"
     inkscape:pageopacity="0.0"
     borderopacity="1.0"
     bordercolor="#666666"
     pagecolor="#ffffff"
     id="base">
    <inkscape:grid
       id="grid1378"
       type="xygrid" />
    <sodipodi:guide
       inkscape:locked="false"
       id="guide1380"
       orientation="78.000048,0"
       position="0.97013831,21.607643" />
    <sodipodi:guide
       inkscape:locked="false"
       id="guide1382"
       orientation="0,78.000005"
       position="0.97013831,0.97013129" />
    <sodipodi:guide
       inkscape:locked="false"
       id="guide1384"
       orientation="-78.000048,0"
       position="21.607639,0.97013129" />
    <sodipodi:guide
       inkscape:locked="false"
       id="guide1386"
       orientation="0,-78.000005"
       position="21.607639,21.607643" />
  </sodipodi:namedview>
  <metadata
     id="metadata828">
    <rdf:RDF>
      <cc:Work
         rdf:about="">
        <dc:format>image/svg+xml</dc:format>
        <dc:type
           rdf:resource="http://purl.org/dc/dcmitype/StillImage" />
      </cc:Work>
    </rdf:RDF>
  </metadata>
  <g
     transform="translate(0,-274.42223)"
     id="layer1"
     inkscape:groupmode="layer"
     inkscape:label="Icon">
    <g
       id="g300411"
       style="display:inline"
       transform="matrix(1.2580546,0,0,1.2580546,-76.110277,-115.65376)">
      <path
         style="color:#000000;fill:#d0e2ee;stroke-linecap:round;stroke-linejoin:round;-inkscape-stroke:none;paint-order:markers fill stroke"
         d="m 63.123047,312.68555 c -1.02148,0 -1.853516,0.83203 -1.853516,1.85351 v 8.99414 c 0,1.02148 0.832036,1.85352 1.853516,1.85352 h 12.699219 c 1.021479,0 1.851562,-0.83204 1.851562,-1.85352 v -8.99414 c 0,-1.02148 -0.830083,-1.85351 -1.851562,-1.85351 z"
         id="path252270" />
      <g
         id="g299841">
        <path
           style="color:#000000;fill:#f6fbfe;stroke-linecap:round;stroke-linejoin:round;-inkscape-stroke:none;paint-order:markers fill stroke"
           d="m 70.134766,315.01172 a 0.26460996,0.26460996 0 0 0 -0.234375,0.14062 l -0.646485,1.2168 a 0.26460996,0.26460996 0 0 0 -0.0078,0.0176 c 0,0 -0.14491,0.31568 -0.08984,0.70508 0.05306,0.3752 0.353353,0.81034 1,1.03125 0.123709,0.19368 0.2668,0.3723 0.447266,0.45703 0.224903,0.10559 0.46235,0.13617 0.675781,0.13867 0.426861,0.005 0.787109,-0.11133 0.787109,-0.11133 a 0.26460996,0.26460996 0 0 0 0.0098,-0.004 l 0.07031,-0.0254 c 0.155783,0.0908 0.309266,0.19288 0.501953,0.19336 a 0.26460996,0.26460996 0 0 0 0.002,0 c 0.192687,-4.8e-4 0.34617,-0.10254 0.501953,-0.19336 l 0.07031,0.0254 a 0.26460996,0.26460996 0 0 0 0.0098,0.004 c 0,0 0.360248,0.11632 0.787109,0.11133 0.213431,-0.002 0.450878,-0.0331 0.675781,-0.13867 0.180466,-0.0847 0.323557,-0.26335 0.447266,-0.45703 0.646647,-0.22091 0.946941,-0.65605 1,-1.03125 0.05507,-0.3894 -0.08984,-0.70508 -0.08984,-0.70508 a 0.26460996,0.26460996 0 0 0 -0.02539,-0.0469 l -0.863282,-1.21679 a 0.26460996,0.26460996 0 0 0 -0.214843,-0.11133 z"
           id="path252300" />
        <path
           id="path294598"
           style="fill:#a3b9c9;fill-opacity:1;stroke-width:3.77953;stroke-linecap:round;stroke-linejoin:round;paint-order:markers fill stroke"
           d="m 265.07617,132.07617 a 1.0001006,1.0001006 0 0 0 -0.88476,0.53125 l -2.44532,4.59961 a 1.0001006,1.0001006 0 0 0 -0.0293,0.0664 c 0,0 -0.54603,1.19231 -0.33789,2.66406 0.19082,1.34936 1.22789,2.9027 3.43359,3.76953 0.0976,-0.29237 0.17035,-0.58978 0.21289,-0.89062 0.0196,-0.13796 -0.003,-0.24196 0.008,-0.375 1.1245,-0.92213 1.68164,-2.23732 1.68164,-3.54493 v -4.13281 c 0,-0.96955 -0.23463,-1.87889 -0.61718,-2.6875 z"
           transform="matrix(0.26458334,0,0,0.26458334,0,280.06666)" />
        <path
           style="color:#000000;fill:#dc1c4b;stroke-linecap:round;stroke-linejoin:round;-inkscape-stroke:none;paint-order:markers fill stroke"
           d="m 72.644531,313.68359 c 0,0 -0.559869,8.2e-4 -1.242187,0.043 -0.682319,0.0421 -1.478398,0.11976 -2.019532,0.30274 a 0.26460996,0.26460996 0 0 0 -0.002,0 c -0.22043,0.0747 -0.38218,0.23497 -0.496093,0.41601 -0.113913,0.18104 -0.183594,0.3879 -0.183594,0.60156 a 0.26460996,0.26460996 0 0 0 0.208984,0.25782 l 0.503906,0.11133 -0.61914,0.52343 a 0.26460996,0.26460996 0 0 0 -0.09375,0.20117 c 0,0.21595 0.09236,0.42736 0.263672,0.54297 0.171311,0.11562 0.386389,0.12577 0.585937,0.0684 0.411753,-0.11838 1.206143,-0.21305 1.876953,-0.26953 0.665501,-0.056 1.210026,-0.0797 1.21875,-0.0801 0.01046,4.3e-4 0.550476,0.0235 1.214844,0.0781 0.670751,0.0552 1.465639,0.14739 1.876953,0.26562 0.199548,0.0574 0.414627,0.0473 0.585938,-0.0684 0.171311,-0.11561 0.263672,-0.32702 0.263672,-0.54296 a 0.26460996,0.26460996 0 0 0 -0.0957,-0.20118 l -0.61914,-0.52148 0.505859,-0.11328 a 0.26460996,0.26460996 0 0 0 0.208985,-0.25781 c 0,-0.21367 -0.06968,-0.42053 -0.183594,-0.60157 -0.113913,-0.18104 -0.275663,-0.34136 -0.496094,-0.41601 a 0.26460996,0.26460996 0 0 0 -0.002,0 c -0.541619,-0.18336 -1.337133,-0.25806 -2.019531,-0.29883 -0.682398,-0.0408 -1.242188,-0.041 -1.242188,-0.041 z"
           id="path252306" />
        <path
           id="path294477"
           style="fill:#801231;fill-opacity:1;stroke-width:3.77953;stroke-linecap:round;stroke-linejoin:round;paint-order:markers fill stroke"
           d="m 261.72266,128.58789 c -0.58159,0.3219 -1.03274,0.80991 -1.3711,1.34766 -0.43053,0.68424 -0.69336,1.4659 -0.69336,2.27343 a 1.0001006,1.0001006 0 0 0 0.78907,0.97461 l 1.90429,0.41993 -2.33984,1.97851 a 1.0001006,1.0001006 0 0 0 -0.35352,0.75977 c 0,0.81619 0.34862,1.61578 0.9961,2.05273 0.64747,0.43699 1.46064,0.4766 2.21484,0.25977 0.91237,-0.26231 2.32472,-0.49196 3.8457,-0.68164 v -3.20899 c 0,-1.27377 -0.40486,-2.44417 -1.01757,-3.41797 -0.6139,-0.97561 -1.58914,-1.97985 -3.00391,-2.45898 -0.32059,-0.10855 -0.64589,-0.20636 -0.9707,-0.29883 z"
           transform="matrix(0.26458334,0,0,0.26458334,0,280.06666)" />
        <path
           id="path271147"
           style="color:#000000;fill:#801231;fill-opacity:1;stroke-width:1;stroke-linecap:round;stroke-linejoin:round;-inkscape-stroke:none;paint-order:markers fill stroke"
           d="m 71.402363,313.72663 c -0.682321,0.0421 -1.478381,0.11984 -2.019515,0.30283 -0.226398,0.0773 -0.372052,0.26355 -0.49821,0.41599 -0.113911,0.18104 -0.183452,0.38785 -0.183452,0.60151 2.65e-4,0.0628 0.0231,0.12345 0.06408,0.17105 0.03049,-0.0849 0.07091,-0.16637 0.119372,-0.24339 0.140999,-0.21033 0.327345,-0.34781 0.49821,-0.416 0.541134,-0.18298 1.337194,-0.26072 2.019515,-0.30282 0.842477,-0.0624 1.792495,-0.0422 2.484085,-0.002 0.682398,0.0408 1.477897,0.11533 2.019515,0.29869 0.226411,0.0884 0.372051,0.26355 0.49821,0.416 0.04837,0.0769 0.0889,0.15867 0.119375,0.24339 0.04117,-0.0475 0.06407,-0.10816 0.06459,-0.17105 0,-0.21367 -0.07005,-0.42047 -0.18397,-0.60151 -0.140999,-0.21035 -0.323784,-0.33545 -0.49821,-0.416 -0.541618,-0.18336 -1.337117,-0.25791 -2.019515,-0.29868 -0.840631,-0.0635 -1.791234,-0.0394 -2.48408,0.002 z"
           sodipodi:nodetypes="ccccccccccccccccc" />
        <path
           id="path19530"
           style="color:#000000;fill:#a3b9c9;stroke-width:3.77953;stroke-linecap:round;stroke-linejoin:round;-inkscape-stroke:none;paint-order:markers fill stroke"
           d="m 267.34766,139.88086 a 1.0000006,1.0000006 0 0 0 -0.13086,0.0117 c -1.20291,0.18973 -1.96208,1.05436 -2.26563,1.75781 -0.30353,0.70348 -0.29492,1.35156 -0.29492,1.35156 v 0.64258 c 0.16088,0.0673 0.32793,0.13196 0.50195,0.19141 0.42256,0.66156 0.90562,1.27439 1.49805,1.62304 v -2.45703 c 0,0 0.008,-0.27401 0.13281,-0.5625 0.12454,-0.28875 0.22955,-0.48815 0.73828,-0.56836 a 1.0000006,1.0000006 0 0 0 0.83399,-1.14453 1.0000006,1.0000006 0 0 0 -1.01367,-0.8457 z m 14.47656,0 a 1.0000006,1.0000006 0 0 0 -1.02539,0.8457 1.0000006,1.0000006 0 0 0 0.83594,1.14453 c 0.50872,0.0801 0.6118,0.27965 0.73632,0.56836 0.12454,0.28838 0.13477,0.5625 0.13477,0.5625 v 2.45703 c 0.59243,-0.34859 1.07548,-0.96148 1.49805,-1.62304 0.17419,-0.0595 0.34092,-0.12405 0.50195,-0.19141 v -0.64258 c 0,0 8.2e-4,-0.64808 -0.30274,-1.35156 -0.30353,-0.70345 -1.05686,-1.56816 -2.25976,-1.75781 a 1.0000006,1.0000006 0 0 0 -0.11914,-0.0117 z"
           transform="matrix(0.26458334,0,0,0.26458334,0,280.06666)" />
        <path
           id="path20681"
           style="color:#000000;fill:#801231;stroke-width:3.77953;stroke-linecap:round;stroke-linejoin:round;-inkscape-stroke:none;paint-order:markers fill stroke"
           d="m 275.57422,137.38284 v -10.3125 h -2.00195 v 10.3125 z m 4,-10.15042 v 10.42969 c 0.65535,0.0568 1.32878,0.12342 2,0.19727 v -10.47461 c -0.67616,-0.0629 -1.34854,-0.11121 -2,-0.15235 z m -10.00195,0.006 c -0.65142,0.0423 -1.32317,0.0938 -2,0.1582 v 10.47266 c 0.67135,-0.0753 1.34511,-0.14132 2,-0.19922 z"
           transform="matrix(0.26458334,0,0,0.26458334,0,280.06666)"
           sodipodi:nodetypes="ccccccccccccccc" />
      </g>
      <g
         id="g300384">
        <path
           style="color:#000000;fill:#9a605a;stroke-linecap:round;stroke-linejoin:round;-inkscape-stroke:none;paint-order:markers fill stroke"
           d="m 74.494141,319.83008 -11.376954,0.26367 c -0.435055,0.0101 -0.789062,0.36866 -0.789062,0.80078 0,0.43213 0.359795,0.7769 0.787109,0.78711 a 0.26460996,0.26460996 0 0 0 0.002,0 l 11.376954,0.26563 c 0.31172,0.007 0.594411,-0.0757 0.789062,-0.27149 0.194651,-0.19577 0.275396,-0.47517 0.275391,-0.78125 5e-6,-0.3113 -0.08076,-0.59297 -0.275391,-0.79101 -0.194633,-0.19805 -0.477346,-0.28069 -0.789062,-0.27344 z"
           id="path252276" />
        <path
           style="color:#000000;fill:#9a605a;stroke-linecap:round;stroke-linejoin:round;-inkscape-stroke:none;paint-order:markers fill stroke"
           d="m 64.451172,322.20508 c -0.311716,-0.007 -0.59443,0.0754 -0.789063,0.27344 -0.194633,0.19804 -0.275395,0.47971 -0.27539,0.79101 -6e-6,0.30608 0.08074,0.58548 0.27539,0.78125 0.194651,0.19577 0.477343,0.27874 0.789063,0.27149 l 11.376953,-0.26563 c 0.427314,-0.0102 0.787109,-0.35498 0.787109,-0.78711 0,-0.43212 -0.352053,-0.79065 -0.787109,-0.80078 z"
           id="path252282" />
        <path
           id="path259350"
           style="color:#000000;fill:#66342d;fill-opacity:1;stroke-width:1;stroke-linecap:round;stroke-linejoin:round;-inkscape-stroke:none;paint-order:markers fill stroke"
           d="m 74.552039,319.82961 c -0.01923,-2.6e-4 -0.03839,6e-5 -0.05788,5.3e-4 l -11.377084,0.26355 c -0.353309,0.008 -0.65323,0.24629 -0.753441,0.56689 0.0712,-0.0226 0.146302,-0.0359 0.224274,-0.0377 l 11.377084,-0.26354 c 0.311716,-0.007 0.594469,0.0753 0.789101,0.27336 0.19463,0.19804 0.275439,0.47987 0.275434,0.79117 3e-6,0.16189 -0.02278,0.31622 -0.07286,0.45475 0.124039,-0.0445 0.235241,-0.11068 0.326596,-0.20257 0.194651,-0.19577 0.275439,-0.47527 0.275434,-0.78135 5e-6,-0.3113 -0.0808,-0.59312 -0.275434,-0.79116 -0.18247,-0.18568 -0.442603,-0.27006 -0.731224,-0.27389 z" />
        <path
           id="path264460"
           style="color:#000000;fill:#66342d;fill-opacity:1;stroke-width:1;stroke-linecap:round;stroke-linejoin:round;-inkscape-stroke:none;paint-order:markers fill stroke"
           d="m 64.393333,322.20459 c 0.01923,-2.6e-4 0.03839,6e-5 0.05788,5.3e-4 l 11.377084,0.26355 c 0.353309,0.008 0.65323,0.24629 0.753441,0.56689 -0.0712,-0.0226 -0.146302,-0.0359 -0.224274,-0.0377 L 64.98038,322.73432 c -0.311716,-0.007 -0.594469,0.0753 -0.789101,0.27336 -0.19463,0.19804 -0.275439,0.47987 -0.275434,0.79117 -3e-6,0.16189 0.02278,0.31622 0.07286,0.45475 -0.124039,-0.0445 -0.235241,-0.11068 -0.326596,-0.20257 -0.194651,-0.19577 -0.275439,-0.47527 -0.275434,-0.78135 -5e-6,-0.3113 0.0808,-0.59312 0.275434,-0.79116 0.18247,-0.18568 0.442603,-0.27006 0.731224,-0.27389 z" />
      </g>
      <g
         id="g299832">
        <path
           style="color:#000000;fill:#f6fbfe;stroke-linecap:round;stroke-linejoin:round;-inkscape-stroke:none;paint-order:markers fill stroke"
           d="m 64.130859,316.24414 a 0.26460996,0.26460996 0 0 0 -0.148437,0.0449 l -0.996094,0.66406 a 0.26460996,0.26460996 0 0 0 -0.09375,0.11329 c 0,0 -0.146862,0.31763 -0.0918,0.70703 0.05306,0.37517 0.353449,0.80837 1,1.02929 0.123832,0.195 0.267974,0.37389 0.449219,0.45899 0.224903,0.10559 0.462351,0.13617 0.675781,0.13867 0.385481,0.005 0.650315,-0.0811 0.710938,-0.0996 l 0.214843,-0.004 a 0.26460996,0.26460996 0 0 0 0.259766,-0.26562 v -2.52344 a 0.26460996,0.26460996 0 0 0 -0.263672,-0.26367 z"
           id="path252288" />
        <path
           style="color:#000000;fill:#f6fbfe;stroke-linecap:round;stroke-linejoin:round;-inkscape-stroke:none;paint-order:markers fill stroke"
           d="m 66.427734,316.28906 a 0.26460996,0.26460996 0 0 0 -0.263672,0.26367 V 319 a 0.26460996,0.26460996 0 0 0 0.232422,0.26367 l 0.298828,0.0352 -0.04883,-0.01 c 0,0 0.360248,0.11632 0.78711,0.11133 0.21343,-0.002 0.450878,-0.0331 0.675781,-0.13867 0.182419,-0.0857 0.327165,-0.2659 0.451172,-0.46289 0.642406,-0.22159 0.945152,-0.65135 0.998047,-1.02539 0.05506,-0.3894 -0.0918,-0.70703 -0.0918,-0.70703 a 0.26460996,0.26460996 0 0 0 -0.07617,-0.0977 l -0.767578,-0.62109 a 0.26460996,0.26460996 0 0 0 -0.167969,-0.0586 z"
           id="path252294" />
        <path
           style="color:#000000;fill:#fca311;stroke-linecap:round;stroke-linejoin:round;-inkscape-stroke:none;paint-order:markers fill stroke"
           d="m 65.359375,314.36328 c 0,0 -1.288865,-0.008 -2.322266,0.3418 -0.220445,0.0746 -0.38218,0.23497 -0.496093,0.41601 -0.113914,0.18105 -0.183594,0.3879 -0.183594,0.60157 v 1.09375 c 0,0.21594 0.09236,0.42735 0.263672,0.54296 0.17131,0.11562 0.386389,0.12577 0.585937,0.0684 0.862271,-0.24791 2.131708,-0.34414 2.152344,-0.3457 h 0.0059 1.628907 c 0.01394,0.001 1.293642,0.0971 2.158203,0.3457 0.199547,0.0574 0.414627,0.0473 0.585937,-0.0684 0.171311,-0.11561 0.263672,-0.32702 0.263672,-0.54296 v -1.09375 c 0,-0.21367 -0.06968,-0.42053 -0.183594,-0.60157 -0.113913,-0.18103 -0.275663,-0.34136 -0.496093,-0.41601 C 68.288865,314.35524 67,314.36328 67,314.36328 Z"
           id="path252312" />
        <path
           style="color:#000000;fill:#3a4d5c;fill-opacity:1;stroke-linecap:round;stroke-linejoin:round;-inkscape-stroke:none;paint-order:markers fill stroke"
           d="m 65.632812,317.02734 a 0.26460996,0.26460996 0 0 0 -0.265625,0.26368 v 1.74609 c 10e-7,0.27676 0.231049,0.50781 0.507813,0.50781 h 0.609375 c 0.276764,0 0.507812,-0.23105 0.507812,-0.50781 v -1.74609 a 0.26460996,0.26460996 0 0 0 -0.265625,-0.26368 z"
           id="path252318" />
        <path
           id="path15456"
           style="color:#000000;fill:#ca7d02;stroke-width:3.77953;stroke-linecap:round;stroke-linejoin:round;-inkscape-stroke:none;paint-order:markers fill stroke"
           d="m 239.40625,134.48047 c -0.0433,0.002 -0.0863,0.008 -0.12891,0.0156 -0.9738,0.17726 -1.96073,0.38806 -2.87304,0.65039 l -0.72266,0.16016 v 2.04883 l 1.21875,-0.26758 c 0.0197,-0.005 0.0392,-0.01 0.0586,-0.0156 0.82145,-0.23622 1.75206,-0.44243 2.67969,-0.61133 0.54205,-0.099 0.9019,-0.61779 0.80469,-1.16016 -0.0898,-0.4956 -0.53416,-0.84707 -1.03711,-0.82031 z m 25.16797,2.90253 v -2.05859 l -0.72266,-0.17774 -0.0371,-0.008 c -0.90256,-0.25776 -1.88041,-0.46751 -2.84179,-0.64258 -0.0401,-0.007 -0.0805,-0.0116 -0.1211,-0.0137 l -10e-6,8e-5 c -0.50306,-0.0279 -0.94832,0.32277 -1.03906,0.81836 -0.0972,0.54237 0.26264,1.06118 0.80469,1.16016 0.92763,0.16894 1.85823,0.37702 2.67969,0.61328 z"
           transform="matrix(0.26458334,0,0,0.26458334,0,280.06666)"
           sodipodi:nodetypes="sccccccccssccccccccccc" />
        <path
           id="path18711"
           style="color:#000000;fill:#a3b9c9;stroke-width:3.77953;stroke-linecap:round;stroke-linejoin:round;-inkscape-stroke:none;paint-order:markers fill stroke"
           d="m 243.32617,142.45703 a 1.0000006,1.0000006 0 0 0 -0.1289,0.0117 c -1.2029,0.18973 -1.95623,1.04652 -2.25977,1.75 -0.30353,0.70345 -0.29492,1.35937 -0.29492,1.35937 v 0.63868 c 0.15852,0.066 0.3229,0.12899 0.49414,0.1875 0.42353,0.66694 0.90957,1.28316 1.50586,1.63281 v -2.45899 c 0,0 0.008,-0.274 0.13281,-0.5625 0.12454,-0.28875 0.22955,-0.48815 0.73828,-0.56835 a 1.0000006,1.0000006 0 0 0 0.82617,-1.14454 1.0000006,1.0000006 0 0 0 -1.01367,-0.8457 z"
           transform="matrix(0.26458334,0,0,0.26458334,0,280.06666)" />
        <path
           id="path18797"
           style="color:#000000;fill:#a3b9c9;stroke-width:3.77953;stroke-linecap:round;stroke-linejoin:round;-inkscape-stroke:none;paint-order:markers fill stroke"
           d="m 256.92188,142.45898 a 1.0000006,1.0000006 0 0 0 -1.00586,0.84375 1.0000006,1.0000006 0 0 0 0.82617,1.14454 c 0.50872,0.0801 0.61376,0.27964 0.73828,0.56835 0.12453,0.28876 0.13281,0.5625 0.13281,0.5625 v 2.45704 c 0.60009,-0.35213 1.08946,-0.97262 1.51367,-1.64649 0.16869,-0.0582 0.32992,-0.1201 0.48633,-0.18555 v -0.625 c 0,0 0.009,-0.65592 -0.29492,-1.35937 -0.30353,-0.70348 -1.06273,-1.56034 -2.26563,-1.75 a 1.0000006,1.0000006 0 0 0 -0.13085,-0.01 z"
           transform="matrix(0.26458334,0,0,0.26458334,0,280.06666)" />
        <path
           id="path265033"
           style="color:#000000;fill:#0d202b;fill-opacity:1;stroke-width:3.77953;stroke-linecap:round;stroke-linejoin:round;-inkscape-stroke:none;paint-order:markers fill stroke"
           d="m 248.06055,139.69336 a 1.0001006,1.0001006 0 0 0 -1.00391,0.99805 v 2.49218 c 0.5442,0.48633 1.2583,0.78321 2.03711,0.78321 h 2.06836 c 0.77881,0 1.49291,-0.29688 2.03711,-0.78321 v -2.49218 a 1.0001006,1.0001006 0 0 0 -1.00391,-0.99805 z"
           transform="matrix(0.26458334,0,0,0.26458334,0,280.06666)" />
        <path
           id="path268656"
           style="color:#000000;fill:#ca7d02;fill-opacity:1;stroke-width:1;stroke-linecap:round;stroke-linejoin:round;-inkscape-stroke:none;paint-order:markers fill stroke"
           d="m 65.359319,314.36328 c 0,0 -1.288937,-0.008 -2.322338,0.34158 -0.220446,0.0746 -0.38218,0.23495 -0.496094,0.41599 -0.02569,0.0409 -0.04885,0.0833 -0.06976,0.12661 0.01214,-0.005 0.02418,-0.009 0.03669,-0.0134 1.033402,-0.3498 2.322338,-0.34158 2.322338,-0.34158 h 1.640729 c 0,0 1.288896,-0.008 2.322338,0.34158 0.220429,0.0747 0.38218,0.23496 0.496094,0.41599 0.113913,0.18104 0.183451,0.38836 0.183451,0.60203 v 1.09348 c 0,0.0377 -0.0032,0.0752 -0.0088,0.11213 0.09719,-0.0107 0.191087,-0.0419 0.274399,-0.0982 0.171313,-0.11561 0.263552,-0.32718 0.263552,-0.54312 v -1.09347 c 0,-0.21367 -0.06954,-0.42099 -0.183452,-0.60203 -0.113913,-0.18103 -0.275664,-0.34135 -0.496094,-0.416 -1.033441,-0.34984 -2.322337,-0.34158 -2.322337,-0.34158 z" />
        <path
           style="color:#000000;fill:#3a4d5c;fill-opacity:1;stroke-linecap:round;stroke-linejoin:round;-inkscape-stroke:none;paint-order:markers fill stroke"
           d="m 65.90625,313.81641 c -0.445207,0 -0.8125,0.36534 -0.8125,0.81054 v 2.18946 c 0,0.4452 0.367293,0.8125 0.8125,0.8125 h 0.546875 c 0.445207,0 0.8125,-0.3673 0.8125,-0.8125 v -2.18946 c 0,-0.4452 -0.367293,-0.81054 -0.8125,-0.81054 z"
           id="path252360" />
      </g>
    </g>
  </g>
</svg>
